<svg id="Layer_1" data-name="Layer 1" xmlns="http://www.w3.org/2000/svg" xmlns:xlink="http://www.w3.org/1999/xlink" viewBox="0 0 638.65 606.32"><defs><style>.cls-1{fill:none;}.cls-2{clip-path:url(#clip-path);}.cls-3{fill:#e0e0e0;}.cls-4{fill:#ebebeb;}.cls-5{fill:#fafafa;}.cls-6{fill:#fff;}.cls-7{fill:#f5f5f5;}.cls-8{fill:#e8505b;}.cls-9{fill:#263238;}.cls-10{fill:#455a64;}.cls-11{opacity:0.6;}.cls-12{opacity:0.3;}.cls-13{fill:#ffbe9d;}.cls-14{fill:#eb996e;}</style><clipPath id="clip-path"><circle class="cls-1" cx="335.48" cy="303.16" r="303.16"/></clipPath></defs><g class="cls-2"><path class="cls-3" d="M508,54.05c0-5.15,2.7-8.22,6.44-8.22s6.46,3.07,6.46,8.22-2.72,8.22-6.46,8.22S508,59.2,508,54.05Zm11.2,0c0-4.32-1.94-6.69-4.76-6.69s-4.76,2.37-4.76,6.69,1.94,6.7,4.76,6.7S519.24,58.37,519.24,54.05Z"/><path class="cls-3" d="M523.32,54.05c0-5.15,2.7-8.22,6.44-8.22s6.46,3.07,6.46,8.22-2.72,8.22-6.46,8.22S523.32,59.2,523.32,54.05Zm11.19,0c0-4.32-1.94-6.69-4.75-6.69S525,49.73,525,54.05s1.94,6.7,4.76,6.7S534.51,58.37,534.51,54.05Z"/><path class="cls-3" d="M543,46V62.13h-1.67V47.45h-3.81V46Z"/><path class="cls-3" d="M546.88,54.05c0-5.15,2.7-8.22,6.44-8.22s6.46,3.07,6.46,8.22-2.72,8.22-6.46,8.22S546.88,59.2,546.88,54.05Zm11.2,0c0-4.32-1.94-6.69-4.76-6.69s-4.76,2.37-4.76,6.69,1.94,6.7,4.76,6.7S558.08,58.37,558.08,54.05Z"/><path class="cls-3" d="M566.59,46V62.13h-1.66V47.45h-3.81V46Z"/><path class="cls-3" d="M492.13,77c0-5.15,2.71-8.22,6.45-8.22S505,71.83,505,77s-2.72,8.22-6.46,8.22S492.13,82.13,492.13,77Zm11.2,0c0-4.32-1.94-6.7-4.75-6.7s-4.76,2.38-4.76,6.7,1.94,6.69,4.76,6.69S503.33,81.3,503.33,77Z"/><path class="cls-3" d="M507.41,77c0-5.15,2.7-8.22,6.44-8.22s6.47,3.07,6.47,8.22-2.73,8.22-6.47,8.22S507.41,82.13,507.41,77Zm11.2,0c0-4.32-1.94-6.7-4.76-6.7s-4.75,2.38-4.75,6.7,1.94,6.69,4.75,6.69S518.61,81.3,518.61,77Z"/><path class="cls-3" d="M527.12,68.9V85.06h-1.66V70.37h-3.81V68.9Z"/><path class="cls-3" d="M531,77c0-5.15,2.7-8.22,6.44-8.22s6.47,3.07,6.47,8.22-2.72,8.22-6.47,8.22S531,82.13,531,77Zm11.2,0c0-4.32-1.94-6.7-4.76-6.7s-4.75,2.38-4.75,6.7,1.94,6.69,4.75,6.69S542.17,81.3,542.17,77Z"/><path class="cls-3" d="M550.68,68.9V85.06H549V70.37h-3.81V68.9Z"/><path class="cls-3" d="M559,68.9V85.06h-1.66V70.37h-3.81V68.9Z"/><path class="cls-3" d="M562.86,77c0-5.15,2.71-8.22,6.45-8.22s6.46,3.07,6.46,8.22-2.72,8.22-6.46,8.22S562.86,82.13,562.86,77Zm11.2,0c0-4.32-1.94-6.7-4.75-6.7s-4.76,2.38-4.76,6.7,1.94,6.69,4.76,6.69S574.06,81.3,574.06,77Z"/><path class="cls-3" d="M582.58,68.9V85.06h-1.67V70.37H577.1V68.9Z"/><path class="cls-3" d="M508,99.15c0-5.15,2.7-8.22,6.44-8.22S521,94,521,99.15s-2.73,8.22-6.47,8.22S508,104.3,508,99.15Zm11.2,0c0-4.32-1.94-6.7-4.76-6.7s-4.75,2.38-4.75,6.7,1.94,6.69,4.75,6.69S519.24,103.47,519.24,99.15Z"/><path class="cls-3" d="M527.75,91.07v16.16h-1.66V92.55h-3.81V91.07Z"/><path class="cls-3" d="M536.08,91.07v16.16h-1.66V92.55h-3.81V91.07Z"/><path class="cls-3" d="M544.41,91.07v16.16h-1.66V92.55h-3.81V91.07Z"/><path class="cls-3" d="M548.26,99.15c0-5.15,2.71-8.22,6.45-8.22s6.46,3.07,6.46,8.22-2.72,8.22-6.46,8.22S548.26,104.3,548.26,99.15Zm11.2,0c0-4.32-1.94-6.7-4.75-6.7S550,94.83,550,99.15s1.94,6.69,4.76,6.69S559.46,103.47,559.46,99.15Z"/><path class="cls-3" d="M568,91.07v16.16h-1.67V92.55H562.5V91.07Z"/><path class="cls-3" d="M143.85,225.14c0,.13-18.4.24-41.1.24s-41.11-.11-41.11-.24,18.4-.23,41.11-.23S143.85,225,143.85,225.14Z"/><path class="cls-3" d="M143.85,232.43c0,.13-18.4.23-41.1.23s-41.11-.1-41.11-.23,18.4-.24,41.11-.24S143.85,232.3,143.85,232.43Z"/><path class="cls-3" d="M114.57,239.71a1.8,1.8,0,0,1-.54,0l-1.54.05-5.68.07L88.1,240l-18.71-.07-5.67-.07-1.54-.05a1.8,1.8,0,0,1-.54,0,2.9,2.9,0,0,1,.54,0l1.54,0,5.67-.07,18.71-.07,18.71.07,5.68.07,1.54,0A2.9,2.9,0,0,1,114.57,239.71Z"/><path class="cls-3" d="M151.48,258.71c0-.19.59-.35,1.32-.35s1.32.16,1.32.35-.59.34-1.32.34S151.48,258.9,151.48,258.71Z"/><path class="cls-3" d="M146.2,258.71c0-.19.59-.35,1.32-.35s1.32.16,1.32.35-.59.34-1.32.34S146.2,258.9,146.2,258.71Z"/><path class="cls-3" d="M140.92,258.71c0-.19.59-.35,1.32-.35s1.32.16,1.32.35-.59.34-1.32.34S140.92,258.9,140.92,258.71Z"/><path class="cls-3" d="M135.64,258.71c0-.19.59-.35,1.32-.35s1.32.16,1.32.35-.6.34-1.32.34S135.64,258.9,135.64,258.71Z"/><path class="cls-3" d="M130.35,258.71c0-.19.6-.35,1.32-.35s1.33.16,1.33.35-.6.34-1.33.34S130.35,258.9,130.35,258.71Z"/><path class="cls-3" d="M125.07,258.71c0-.19.6-.35,1.32-.35s1.32.16,1.32.35-.59.34-1.32.34S125.07,258.9,125.07,258.71Z"/><path class="cls-3" d="M119.79,258.71c0-.19.59-.35,1.32-.35s1.32.16,1.32.35-.59.34-1.32.34S119.79,258.9,119.79,258.71Z"/><path class="cls-3" d="M114.51,258.71c0-.19.59-.35,1.32-.35s1.32.16,1.32.35-.59.34-1.32.34S114.51,258.9,114.51,258.71Z"/><path class="cls-3" d="M109.23,258.71c0-.19.59-.35,1.32-.35s1.32.16,1.32.35-.59.34-1.32.34S109.23,258.9,109.23,258.71Z"/><path class="cls-3" d="M104,258.71c0-.19.59-.35,1.32-.35s1.32.16,1.32.35-.59.34-1.32.34S104,258.9,104,258.71Z"/><path class="cls-3" d="M98.67,258.71c0-.19.59-.35,1.32-.35s1.32.16,1.32.35-.59.34-1.32.34S98.67,258.9,98.67,258.71Z"/><path class="cls-3" d="M93.39,258.71c0-.19.59-.35,1.32-.35s1.32.16,1.32.35-.59.34-1.32.34S93.39,258.9,93.39,258.71Z"/><path class="cls-3" d="M88.11,258.71c0-.19.59-.35,1.32-.35s1.32.16,1.32.35-.59.34-1.32.34S88.11,258.9,88.11,258.71Z"/><path class="cls-3" d="M82.83,258.71c0-.19.59-.35,1.32-.35s1.32.16,1.32.35-.59.34-1.32.34S82.83,258.9,82.83,258.71Z"/><path class="cls-3" d="M77.55,258.71c0-.19.59-.35,1.32-.35s1.32.16,1.32.35-.59.34-1.32.34S77.55,258.9,77.55,258.71Z"/><path class="cls-3" d="M72.27,258.71c0-.19.59-.35,1.32-.35s1.32.16,1.32.35-.59.34-1.32.34S72.27,258.9,72.27,258.71Z"/><path class="cls-3" d="M67,258.71c0-.19.59-.35,1.32-.35s1.32.16,1.32.35-.59.34-1.32.34S67,258.9,67,258.71Z"/><path class="cls-3" d="M61.71,258.71c0-.19.59-.35,1.32-.35s1.32.16,1.32.35-.59.34-1.32.34S61.71,258.9,61.71,258.71Z"/><path class="cls-3" d="M56.43,258.71c0-.19.59-.35,1.32-.35s1.32.16,1.32.35-.59.34-1.32.34S56.43,258.9,56.43,258.71Z"/><path class="cls-3" d="M51.15,258.71c0-.19.59-.35,1.32-.35s1.32.16,1.32.35-.59.34-1.32.34S51.15,258.9,51.15,258.71Z"/><path class="cls-3" d="M45.87,258.71c0-.19.59-.35,1.32-.35s1.32.16,1.32.35-.59.34-1.32.34S45.87,258.9,45.87,258.71Z"/><path class="cls-3" d="M40.59,258.71c0-.19.59-.35,1.32-.35s1.32.16,1.32.35-.59.34-1.32.34S40.59,258.9,40.59,258.71Z"/><path class="cls-3" d="M35.31,258.71c0-.19.59-.35,1.32-.35s1.32.16,1.32.35-.59.34-1.32.34S35.31,258.9,35.31,258.71Z"/><path class="cls-3" d="M30,258.71c0-.19.59-.35,1.32-.35s1.32.16,1.32.35-.59.34-1.32.34S30,258.9,30,258.71Z"/><path class="cls-3" d="M24.75,258.71c0-.19.59-.35,1.32-.35s1.32.16,1.32.35-.6.34-1.32.34S24.75,258.9,24.75,258.71Z"/><path class="cls-3" d="M19.46,258.71c0-.19.6-.35,1.32-.35s1.33.16,1.33.35-.6.34-1.33.34S19.46,258.9,19.46,258.71Z"/><path class="cls-3" d="M14.18,258.71c0-.19.6-.35,1.32-.35s1.32.16,1.32.35-.59.34-1.32.34S14.18,258.9,14.18,258.71Z"/><path class="cls-3" d="M8.9,258.71c0-.19.6-.35,1.32-.35s1.32.16,1.32.35-.59.34-1.32.34S8.9,258.9,8.9,258.71Z"/><path class="cls-3" d="M6,256.3c.19,0,.34.59.34,1.32a3.39,3.39,0,0,1-.15,1.09l-.19-.2c.15.06.23.13.23.2s-.08.14-.23.19l-.11,0-.09-.23a3.43,3.43,0,0,1-.14-1.09C5.69,256.89,5.84,256.3,6,256.3Z"/><path class="cls-3" d="M6,251c.19,0,.34.59.34,1.32s-.15,1.32-.34,1.32-.34-.59-.34-1.32S5.84,251,6,251Z"/><path class="cls-3" d="M6,245.74c.19,0,.34.59.34,1.32s-.15,1.32-.34,1.32-.34-.59-.34-1.32S5.84,245.74,6,245.74Z"/><path class="cls-3" d="M6,240.46c.19,0,.34.59.34,1.32S6.22,243.1,6,243.1s-.34-.59-.34-1.32S5.84,240.46,6,240.46Z"/><path class="cls-3" d="M6,235.18c.19,0,.34.59.34,1.32s-.15,1.32-.34,1.32-.34-.59-.34-1.32S5.84,235.18,6,235.18Z"/><path class="cls-3" d="M6,229.9c.19,0,.34.59.34,1.32s-.15,1.32-.34,1.32-.34-.59-.34-1.32S5.84,229.9,6,229.9Z"/><path class="cls-3" d="M6,224.62c.19,0,.34.59.34,1.32s-.15,1.32-.34,1.32-.34-.59-.34-1.32S5.84,224.62,6,224.62Z"/><path class="cls-3" d="M6,219.34c.19,0,.34.59.34,1.32S6.22,222,6,222s-.34-.59-.34-1.32S5.84,219.34,6,219.34Z"/><path class="cls-3" d="M6,214.06c.19,0,.34.59.34,1.32S6.22,216.7,6,216.7s-.34-.59-.34-1.32S5.84,214.06,6,214.06Z"/><path class="cls-3" d="M6,208.78c.19,0,.34.59.34,1.32s-.15,1.32-.34,1.32-.34-.59-.34-1.32S5.84,208.78,6,208.78Z"/><path class="cls-3" d="M6,203.5c.19,0,.34.59.34,1.32s-.15,1.32-.34,1.32-.34-.59-.34-1.32S5.84,203.5,6,203.5Z"/><path class="cls-3" d="M7.18,199.37c0,.17-.5.32-1.15.34l.34-.34v.17c0,.73-.15,1.32-.34,1.32s-.34-.59-.34-1.32V199L6,199C6.68,199.05,7.18,199.19,7.18,199.37Z"/><path class="cls-3" d="M12.46,199.37c0,.19-.59.34-1.32.34s-1.32-.15-1.32-.34.59-.35,1.32-.35S12.46,199.18,12.46,199.37Z"/><path class="cls-3" d="M17.74,199.37c0,.19-.59.34-1.32.34s-1.32-.15-1.32-.34.59-.35,1.32-.35S17.74,199.18,17.74,199.37Z"/><path class="cls-3" d="M23,199.37c0,.19-.59.34-1.32.34s-1.32-.15-1.32-.34S21,199,21.7,199,23,199.18,23,199.37Z"/><path class="cls-3" d="M28.3,199.37c0,.19-.59.34-1.32.34s-1.32-.15-1.32-.34S26.25,199,27,199,28.3,199.18,28.3,199.37Z"/><path class="cls-3" d="M33.58,199.37c0,.19-.59.34-1.32.34s-1.32-.15-1.32-.34.59-.35,1.32-.35S33.58,199.18,33.58,199.37Z"/><path class="cls-3" d="M38.86,199.37c0,.19-.59.34-1.32.34s-1.32-.15-1.32-.34.59-.35,1.32-.35S38.86,199.18,38.86,199.37Z"/><path class="cls-3" d="M44.14,199.37c0,.19-.59.34-1.32.34s-1.32-.15-1.32-.34.59-.35,1.32-.35S44.14,199.18,44.14,199.37Z"/><path class="cls-3" d="M49.42,199.37c0,.19-.59.34-1.32.34s-1.32-.15-1.32-.34.59-.35,1.32-.35S49.42,199.18,49.42,199.37Z"/><path class="cls-3" d="M54.7,199.37c0,.19-.59.34-1.32.34s-1.32-.15-1.32-.34.59-.35,1.32-.35S54.7,199.18,54.7,199.37Z"/><path class="cls-3" d="M60,199.37c0,.19-.59.34-1.32.34s-1.32-.15-1.32-.34.59-.35,1.32-.35S60,199.18,60,199.37Z"/><path class="cls-3" d="M65.26,199.37c0,.19-.59.34-1.32.34s-1.32-.15-1.32-.34.6-.35,1.32-.35S65.26,199.18,65.26,199.37Z"/><path class="cls-3" d="M70.55,199.37c0,.19-.6.34-1.32.34s-1.33-.15-1.33-.34.6-.35,1.33-.35S70.55,199.18,70.55,199.37Z"/><path class="cls-3" d="M75.83,199.37c0,.19-.6.34-1.32.34s-1.32-.15-1.32-.34.59-.35,1.32-.35S75.83,199.18,75.83,199.37Z"/><path class="cls-3" d="M81.11,199.37c0,.19-.59.34-1.32.34s-1.32-.15-1.32-.34.59-.35,1.32-.35S81.11,199.18,81.11,199.37Z"/><path class="cls-3" d="M86.39,199.37c0,.19-.59.34-1.32.34s-1.32-.15-1.32-.34.59-.35,1.32-.35S86.39,199.18,86.39,199.37Z"/><path class="cls-3" d="M91.67,199.37c0,.19-.59.34-1.32.34s-1.32-.15-1.32-.34.59-.35,1.32-.35S91.67,199.18,91.67,199.37Z"/><path class="cls-3" d="M97,199.37c0,.19-.59.34-1.32.34s-1.32-.15-1.32-.34.59-.35,1.32-.35S97,199.18,97,199.37Z"/><path class="cls-3" d="M102.23,199.37c0,.19-.59.34-1.32.34s-1.32-.15-1.32-.34.59-.35,1.32-.35S102.23,199.18,102.23,199.37Z"/><path class="cls-3" d="M107.51,199.37c0,.19-.59.34-1.32.34s-1.32-.15-1.32-.34.59-.35,1.32-.35S107.51,199.18,107.51,199.37Z"/><path class="cls-3" d="M112.79,199.37c0,.19-.59.34-1.32.34s-1.32-.15-1.32-.34.59-.35,1.32-.35S112.79,199.18,112.79,199.37Z"/><path class="cls-3" d="M118.07,199.37c0,.19-.59.34-1.32.34s-1.32-.15-1.32-.34.59-.35,1.32-.35S118.07,199.18,118.07,199.37Z"/><path class="cls-3" d="M123.35,199.37c0,.19-.59.34-1.32.34s-1.32-.15-1.32-.34.59-.35,1.32-.35S123.35,199.18,123.35,199.37Z"/><path class="cls-3" d="M128.63,199.37c0,.19-.59.34-1.32.34s-1.32-.15-1.32-.34.59-.35,1.32-.35S128.63,199.18,128.63,199.37Z"/><path class="cls-3" d="M133.91,199.37c0,.19-.59.34-1.32.34s-1.32-.15-1.32-.34.59-.35,1.32-.35S133.91,199.18,133.91,199.37Z"/><path class="cls-3" d="M139.19,199.37c0,.19-.59.34-1.32.34s-1.32-.15-1.32-.34.59-.35,1.32-.35S139.19,199.18,139.19,199.37Z"/><path class="cls-3" d="M144.47,199.37c0,.19-.59.34-1.32.34s-1.32-.15-1.32-.34.59-.35,1.32-.35S144.47,199.18,144.47,199.37Z"/><path class="cls-3" d="M149.75,199.37c0,.19-.59.34-1.32.34s-1.32-.15-1.32-.34.59-.35,1.32-.35S149.75,199.18,149.75,199.37Z"/><path class="cls-3" d="M154.12,200.28c-.16,0-.29-.38-.33-.91l.33.32-.41,0c-.73,0-1.32-.15-1.32-.34s.59-.35,1.32-.35l.41,0,.35,0,0,.3C154.4,199.9,154.27,200.28,154.12,200.28Z"/><path class="cls-3" d="M154.12,205.56c-.19,0-.35-.59-.35-1.32s.16-1.32.35-1.32.34.59.34,1.32S154.31,205.56,154.12,205.56Z"/><path class="cls-3" d="M154.12,210.84c-.19,0-.35-.59-.35-1.32s.16-1.32.35-1.32.34.59.34,1.32S154.31,210.84,154.12,210.84Z"/><path class="cls-3" d="M154.12,216.12c-.19,0-.35-.59-.35-1.32s.16-1.32.35-1.32.34.59.34,1.32S154.31,216.12,154.12,216.12Z"/><path class="cls-3" d="M154.12,221.4c-.19,0-.35-.59-.35-1.32s.16-1.32.35-1.32.34.6.34,1.32S154.31,221.4,154.12,221.4Z"/><path class="cls-3" d="M154.12,226.68c-.19,0-.35-.59-.35-1.32s.16-1.32.35-1.32.34.6.34,1.32S154.31,226.68,154.12,226.68Z"/><path class="cls-3" d="M154.12,232c-.19,0-.35-.6-.35-1.32s.16-1.33.35-1.33.34.6.34,1.33S154.31,232,154.12,232Z"/><path class="cls-3" d="M154.12,237.25c-.19,0-.35-.6-.35-1.32s.16-1.32.35-1.32.34.59.34,1.32S154.31,237.25,154.12,237.25Z"/><path class="cls-3" d="M154.12,242.53c-.19,0-.35-.59-.35-1.32s.16-1.32.35-1.32.34.59.34,1.32S154.31,242.53,154.12,242.53Z"/><path class="cls-3" d="M154.12,247.81c-.19,0-.35-.59-.35-1.32s.16-1.32.35-1.32.34.59.34,1.32S154.31,247.81,154.12,247.81Z"/><path class="cls-3" d="M154.12,253.09c-.19,0-.35-.59-.35-1.32s.16-1.32.35-1.32.34.59.34,1.32S154.31,253.09,154.12,253.09Z"/><path class="cls-3" d="M154.12,258.37c-.19,0-.35-.59-.35-1.32s.16-1.32.35-1.32.34.59.34,1.32S154.31,258.37,154.12,258.37Z"/><path class="cls-3" d="M55,248.27c0-.19.59-.34,1.32-.34-.69.69-.19.19-.35.34h0V248l0-.25a2.24,2.24,0,0,1,.08-.42c.06-.24.14-.39.24-.39s.18.15.24.39a2.29,2.29,0,0,1,.07.42l0,.25v.25h0c-.15.16.35-.34-.34.35C55.57,248.62,55,248.46,55,248.27Z"/><path class="cls-3" d="M50.05,248.27c0-.19.55-.34,1.23-.34s1.23.15,1.23.34-.55.35-1.23.35S50.05,248.46,50.05,248.27Z"/><path class="cls-3" d="M45.12,248.27c0-.19.55-.34,1.23-.34s1.23.15,1.23.34-.55.35-1.23.35S45.12,248.46,45.12,248.27Z"/><path class="cls-3" d="M40.19,248.27c0-.19.55-.34,1.23-.34s1.23.15,1.23.34-.55.35-1.23.35S40.19,248.46,40.19,248.27Z"/><path class="cls-3" d="M35.26,248.27c0-.19.55-.34,1.23-.34s1.23.15,1.23.34-.55.35-1.23.35S35.26,248.46,35.26,248.27Z"/><path class="cls-3" d="M30.32,248.27c0-.19.56-.34,1.24-.34s1.23.15,1.23.34-.55.35-1.23.35S30.32,248.46,30.32,248.27Z"/><path class="cls-3" d="M25.39,248.27c0-.19.56-.34,1.24-.34s1.23.15,1.23.34-.55.35-1.23.35S25.39,248.46,25.39,248.27Z"/><path class="cls-3" d="M20.46,248.27c0-.19.56-.34,1.24-.34s1.23.15,1.23.34-.55.35-1.23.35S20.46,248.46,20.46,248.27Z"/><path class="cls-3" d="M16.68,247c.19,0,.34.59.34,1.32l-.34-.34h.26l.25,0a2.29,2.29,0,0,1,.42.07c.24.06.39.15.39.24s-.15.18-.39.25l-.42.07-.25,0h-.26l-.35-.35C16.33,247.54,16.49,247,16.68,247Z"/><path class="cls-3" d="M16.68,241.64c.19,0,.34.59.34,1.33s-.15,1.33-.34,1.33-.35-.6-.35-1.33S16.49,241.64,16.68,241.64Z"/><path class="cls-3" d="M16.68,236.32c.19,0,.34.6.34,1.33s-.15,1.33-.34,1.33-.35-.59-.35-1.33S16.49,236.32,16.68,236.32Z"/><path class="cls-3" d="M16.68,231c.19,0,.34.59.34,1.33s-.15,1.33-.34,1.33-.35-.6-.35-1.33S16.49,231,16.68,231Z"/><path class="cls-3" d="M16.68,225.69c.19,0,.34.6.34,1.33s-.15,1.33-.34,1.33-.35-.59-.35-1.33S16.49,225.69,16.68,225.69Z"/><path class="cls-3" d="M16.68,220.38c.19,0,.34.59.34,1.33s-.15,1.33-.34,1.33-.35-.6-.35-1.33S16.49,220.38,16.68,220.38Z"/><path class="cls-3" d="M16.68,215.06c.19,0,.34.6.34,1.33s-.15,1.33-.34,1.33-.35-.59-.35-1.33S16.49,215.06,16.68,215.06Z"/><path class="cls-3" d="M18,211.09c0,.19-.59.34-1.32.34l.34-.34h0v.25c0,.07,0,.15,0,.25a2.29,2.29,0,0,1-.07.42c-.06.24-.15.39-.24.39s-.18-.15-.25-.39a3.66,3.66,0,0,1-.07-.42l0-.25v-.25h0l.35-.35C17.41,210.74,18,210.9,18,211.09Z"/><path class="cls-3" d="M22.93,211.09c0,.19-.55.34-1.23.34s-1.24-.15-1.24-.34.55-.35,1.24-.35S22.93,210.9,22.93,211.09Z"/><path class="cls-3" d="M27.86,211.09c0,.19-.55.34-1.23.34s-1.24-.15-1.24-.34.56-.35,1.24-.35S27.86,210.9,27.86,211.09Z"/><path class="cls-3" d="M32.79,211.09c0,.19-.55.34-1.23.34s-1.24-.15-1.24-.34.56-.35,1.24-.35S32.79,210.9,32.79,211.09Z"/><path class="cls-3" d="M37.72,211.09c0,.19-.55.34-1.23.34s-1.23-.15-1.23-.34.55-.35,1.23-.35S37.72,210.9,37.72,211.09Z"/><path class="cls-3" d="M42.65,211.09c0,.19-.55.34-1.23.34s-1.23-.15-1.23-.34.55-.35,1.23-.35S42.65,210.9,42.65,211.09Z"/><path class="cls-3" d="M47.58,211.09c0,.19-.55.34-1.23.34s-1.23-.15-1.23-.34.55-.35,1.23-.35S47.58,210.9,47.58,211.09Z"/><path class="cls-3" d="M52.51,211.09c0,.19-.55.34-1.23.34s-1.23-.15-1.23-.34.55-.35,1.23-.35S52.51,210.9,52.51,211.09Z"/><path class="cls-3" d="M56.3,212.41c-.19,0-.35-.59-.35-1.32l.35.34H56l-.25,0a2.45,2.45,0,0,1-.42-.07c-.23-.06-.38-.15-.38-.24s.15-.18.38-.25l.42-.07.25,0h.27c.15.16-.35-.34.34.35C56.64,211.82,56.49,212.41,56.3,212.41Z"/><path class="cls-3" d="M56.3,217.72c-.19,0-.35-.59-.35-1.33s.16-1.33.35-1.33.34.6.34,1.33S56.49,217.72,56.3,217.72Z"/><path class="cls-3" d="M56.3,223c-.19,0-.35-.6-.35-1.33s.16-1.33.35-1.33.34.59.34,1.33S56.49,223,56.3,223Z"/><path class="cls-3" d="M56.3,228.35c-.19,0-.35-.59-.35-1.33s.16-1.33.35-1.33.34.6.34,1.33S56.49,228.35,56.3,228.35Z"/><path class="cls-3" d="M56.3,233.67c-.19,0-.35-.6-.35-1.33s.16-1.33.35-1.33.34.59.34,1.33S56.49,233.67,56.3,233.67Z"/><path class="cls-3" d="M56.3,239c-.19,0-.35-.59-.35-1.33s.16-1.33.35-1.33.34.6.34,1.33S56.49,239,56.3,239Z"/><path class="cls-3" d="M56.3,244.3c-.19,0-.35-.6-.35-1.33s.16-1.33.35-1.33.34.59.34,1.33S56.49,244.3,56.3,244.3Z"/><rect class="cls-3" x="15.73" y="247.33" width="1.89" height="1.89"/><rect class="cls-3" x="15.73" y="210.14" width="1.89" height="1.89"/><rect class="cls-3" x="55.35" y="210.14" width="1.89" height="1.89"/><rect class="cls-3" x="55.35" y="246.38" width="1.89" height="1.89"/><rect class="cls-3" x="34.6" y="247.33" width="1.89" height="1.89"/><rect class="cls-3" x="35.54" y="210.14" width="1.89" height="1.89"/><rect class="cls-3" x="15.73" y="229.68" width="1.89" height="1.89"/><rect class="cls-3" x="54.41" y="228.74" width="1.89" height="1.89"/><path class="cls-3" d="M255.91,78.91s0-.47,0-1.36,0-2.2,0-3.89c0-3.42,0-8.41-.07-14.76,0-12.7-.08-30.85-.13-52.74l.25.26-89.27,0h0l.31-.31c0,26.3,0,51.13,0,72.75l-.28-.28,64.47.14,18.27.07,4.86,0,1.25,0,.43,0h-.4l-1.22,0-4.8,0-18.21.08-64.65.13h-.28v-.27c0-21.62,0-46.45,0-72.75V5.85h.32l89.27.05h.26v.26c-.05,22-.1,40.16-.13,52.9,0,6.33-.05,11.29-.07,14.7,0,1.67,0,3,0,3.85S255.91,78.91,255.91,78.91Z"/><path class="cls-3" d="M256.61,17c0,.17-20.15.31-45,.31s-45-.14-45-.31,20.15-.31,45-.31S256.61,16.78,256.61,17Z"/><path class="cls-3" d="M173.92,11.64a1.21,1.21,0,1,1-1.2-1.2A1.21,1.21,0,0,1,173.92,11.64Z"/><path class="cls-3" d="M178.3,11.64a1.2,1.2,0,1,1-1.2-1.2A1.21,1.21,0,0,1,178.3,11.64Z"/><path class="cls-3" d="M182.68,11.64a1.2,1.2,0,1,1-1.2-1.2A1.21,1.21,0,0,1,182.68,11.64Z"/><path class="cls-3" d="M199,44.36c0,3.87-2.8,6.21-7.42,6.21h-4.88V56.3h-1.92V38.13h6.8C196.18,38.13,199,40.47,199,44.36Zm-1.92,0c0-2.9-1.92-4.56-5.55-4.56h-4.83v9.08h4.83C195.14,48.88,197.06,47.22,197.06,44.36Z"/><path class="cls-3" d="M218.31,38.13V56.3h-1.89V47.92H205.05V56.3h-1.92V38.13h1.92v8.1h11.37v-8.1Z"/><path class="cls-3" d="M238.45,44.36c0,3.87-2.8,6.21-7.42,6.21h-4.89V56.3h-1.92V38.13H231C235.65,38.13,238.45,40.47,238.45,44.36Zm-1.92,0c0-2.9-1.92-4.56-5.56-4.56h-4.83v9.08H231C234.61,48.88,236.53,47.22,236.53,44.36Z"/><rect class="cls-4" x="308.51" y="341.43" width="90.81" height="72.87"/><path class="cls-5" d="M400.12,352.24c0,.25-11.66.45-40.12.45s-51.54-.2-51.54-.45,23.08-.45,51.54-.45S400.12,352,400.12,352.24Z"/><path class="cls-6" d="M316.85,346.92a1.39,1.39,0,1,1-1.37-1.2A1.29,1.29,0,0,1,316.85,346.92Z"/><path class="cls-6" d="M321.87,346.92a1.39,1.39,0,1,1-1.38-1.2A1.3,1.3,0,0,1,321.87,346.92Z"/><path class="cls-6" d="M326.89,346.92a1.39,1.39,0,1,1-1.38-1.2A1.3,1.3,0,0,1,326.89,346.92Z"/><path class="cls-6" d="M366.88,393.42a5.74,5.74,0,0,1,.9-1l2.62-2.64c2.23-2.2,5.35-5.22,8.81-8.52l.08-.07v.44c-3.49-3.24-6.62-6.19-8.87-8.35l-2.63-2.58a5.4,5.4,0,0,1-.91-1,5.93,5.93,0,0,1,1.07.83l2.77,2.44c2.32,2.08,5.49,5,9,8.22l.24.23-.23.22-.08.08c-3.47,3.3-6.62,6.26-8.93,8.39l-2.76,2.49A5.42,5.42,0,0,1,366.88,393.42Z"/><path class="cls-6" d="M340,369.67a6,6,0,0,1-.9,1l-2.63,2.63c-2.23,2.2-5.34,5.22-8.8,8.52l-.08.08v-.45c3.49,3.24,6.62,6.2,8.86,8.36l2.64,2.58a6.17,6.17,0,0,1,.91,1,4.92,4.92,0,0,1-1.07-.83l-2.77-2.44c-2.32-2.08-5.5-5-9-8.22l-.23-.22.23-.23.08-.07c3.46-3.3,6.62-6.27,8.93-8.39l2.75-2.5A5.62,5.62,0,0,1,340,369.67Z"/><path class="cls-6" d="M346.86,399c-.16-.06,2.67-8,6.31-17.74s6.73-17.59,6.89-17.53-2.67,8-6.32,17.74S347,399.08,346.86,399Z"/><path class="cls-4" d="M111.49,499.14c5.28-2.73,11.49-3.08,17.36-2.11,3.15.52,6.43,1.46,8.57,3.83s2.55,6.53.09,8.56c-1.47,1.21-3.51,1.39-5.41,1.37-4.59-.05-9.68-.86-13.34,1.9-2.1,1.58-3.49,4.19-6,5s-5.21-.69-6.5-2.9a10.09,10.09,0,0,1-.74-7.45A11.39,11.39,0,0,1,111.49,499.14Z"/><path class="cls-4" d="M99.39,475.79c3.23,4.61,9.5,3.08,12.41.27s4.14-6.9,5.26-10.79c2.56-8.89,5.14-18.21,3.24-27.26a15.12,15.12,0,0,0-3.49-7.42,7.92,7.92,0,0,0-7.5-2.49c-3.16.83-5.13,3.93-6.55,6.88a65.07,65.07,0,0,0-6.42,27.89c0,4.49.51,9.21,3,12.92"/><path class="cls-4" d="M90.52,482.4c3.51-4.16,4.17-10.23,2.61-15.44s-5.08-9.64-9.14-13.27A49.34,49.34,0,0,0,67.61,444a17.46,17.46,0,0,0-7.36-1.25,7.73,7.73,0,0,0-6.18,3.74c-1.73,3.29-.08,7.27,1.71,10.53a125,125,0,0,0,10.76,16.38c3.22,4.15,6.91,8.25,11.83,10.13s10,1.66,12.62-1.75"/><path class="cls-3" d="M99.17,545.35a10.07,10.07,0,0,0,.29-2.1c.15-1.52.34-3.44.56-5.72a83.08,83.08,0,0,1,1.29-8.38,63.64,63.64,0,0,1,3-9.9,36.48,36.48,0,0,1,5.06-9A18.9,18.9,0,0,1,115.8,505a18.06,18.06,0,0,1,5.38-1.67,10.38,10.38,0,0,0,2.09-.3,9.94,9.94,0,0,0-2.12,0,16.71,16.71,0,0,0-5.62,1.46,19,19,0,0,0-6.74,5.36,35.9,35.9,0,0,0-5.24,9.14,61.36,61.36,0,0,0-3,10.06,71.93,71.93,0,0,0-1.11,8.5c-.18,2.43-.25,4.39-.28,5.75A10.06,10.06,0,0,0,99.17,545.35Z"/><path class="cls-3" d="M99.56,541a4.11,4.11,0,0,0,.06-1c0-.74,0-1.66,0-2.79,0-2.41,0-5.9.13-10.21.21-8.63,1-17.91,2.39-31,1.36-12.31,3.18-26.62,5.1-35.93.41-2.12.83-4,1.22-5.7s.69-3.11,1-4.28l.65-2.7a4,4,0,0,0,.17-1,4.44,4.44,0,0,0-.34.91l-.81,2.67c-.35,1.15-.72,2.59-1.14,4.25s-.89,3.56-1.35,5.68a316.7,316.7,0,0,0-5.36,33.34c-1.44,13.11-2.09,25.05-2.14,33.7-.06,4.32,0,7.82.15,10.23.07,1.13.12,2,.17,2.78A3.9,3.9,0,0,0,99.56,541Z"/><path class="cls-3" d="M99.62,517.92a18.37,18.37,0,0,0,0-2.9c-.11-1.87-.36-4.57-.89-7.87a100.88,100.88,0,0,0-2.56-11.47,93.58,93.58,0,0,0-4.79-13.56,72.33,72.33,0,0,0-14.08-21.93A37.4,37.4,0,0,0,74,457.11c-.51-.43-1-.85-1.42-1.19L71.27,455a18,18,0,0,0-2.45-1.56c-.14.18,3.47,2.31,8,7.15a76.33,76.33,0,0,1,13.73,21.84,109,109,0,0,1,4.82,13.44c1.25,4.21,2.09,8.09,2.72,11.35s1,5.94,1.16,7.79A18.76,18.76,0,0,0,99.62,517.92Z"/><polygon class="cls-3" points="77.36 558.54 79.67 590.15 120.28 590.15 122.59 558.54 77.36 558.54"/><rect class="cls-3" x="73.44" y="546.08" width="53.99" height="12.46"/><polygon class="cls-4" points="73.44 588.94 73.44 592.4 75.98 592.4 126.54 592.4 126.54 588.94 73.44 588.94"/><polygon class="cls-3" points="78.47 598.47 75.98 592.4 124.61 592.4 121.71 598.47 78.47 598.47"/><path class="cls-7" d="M121.84,568.87a1.31,1.31,0,0,1-.19.29L121,570l-2.37,3-.1.14-.1-.14-5.81-8H113l-5.72,8.1-.18.26-.2-.24L100.1,565h.39l-.37.47-6.07,7.6-.2.26-.19-.27L87.94,565l.33,0-7,8-.13.15L81,573l-2.21-3.7c-.23-.41-.42-.73-.57-1a2.28,2.28,0,0,1-.17-.35,1.62,1.62,0,0,1,.24.31l.62,1,2.32,3.64-.22,0c1.81-2.11,4.16-4.87,6.94-8.13l.17-.2.16.22,5.78,8.06h-.39l6-7.62.38-.47.19-.24.2.24,6.77,8.09h-.38l5.77-8.06.17-.23.17.23,5.69,8.13h-.21l2.46-3,.66-.76C121.74,569,121.83,568.86,121.84,568.87Z"/><path class="cls-7" d="M123.16,558.33c0,.14-10.18.25-22.73.25s-22.73-.11-22.73-.25,10.18-.25,22.73-.25S123.16,558.19,123.16,558.33Z"/><path class="cls-7" d="M125.21,592.74c0,.14-11.06.25-24.7.25s-24.7-.11-24.7-.25,11.06-.26,24.7-.26S125.21,592.6,125.21,592.74Z"/><path class="cls-8" d="M480.84,471.7A45.21,45.21,0,0,0,461.48,465c-3.16-.32-6.62-.23-9.15,1.68a1.9,1.9,0,0,0-.95,1.68,2,2,0,0,0,.9,1.14c7.87,6,19.79,6.77,28.56,2.16"/><path class="cls-8" d="M480.34,471.16a94.91,94.91,0,0,1-12.5-11c-3.71-4.14-6.73-9.05-7.84-14.5-.34-1.65-.44-3.54.62-4.85,10,7.78,17.79,17.85,19.72,30.35"/><path class="cls-8" d="M480.73,471.63c-.75-5.45-1-11.06.23-16.42s4.17-10.48,8.75-13.54c1.72,4,1,8.66-.23,12.87a62.75,62.75,0,0,1-8.67,18.25"/><path class="cls-8" d="M490.5,489.13c-5.93.72-11.09,3.85-15.52,7.86a29.32,29.32,0,0,0-8.88,15.24c5.82-.36,10.75-4.46,14.33-9.06s6.06-9.65,10-13.95"/><path class="cls-8" d="M492.62,491.93A38.31,38.31,0,0,1,497,455.72c3.38,12,2.14,25.59-4.42,36.21"/><path class="cls-8" d="M505.53,507.3a27.7,27.7,0,0,0-26.47,15.24c-.33.65-.62,1.49-.18,2.07a2,2,0,0,0,1.76.52c5.21-.34,9.84-3.48,13.65-7s7.14-7.7,11.36-10.79"/><path class="cls-8" d="M505.12,506.46a49.2,49.2,0,0,1-.49-27.53c1-3.55,2.6-7.28,5.87-8.94a1.13,1.13,0,0,1,.9-.16,1.17,1.17,0,0,1,.57.66,16.53,16.53,0,0,1,1.39,7.9,49.46,49.46,0,0,1-1.24,8c-1,4.88-1.58,10.14-4.26,14.35a28.26,28.26,0,0,0-1.71,3.16c-.51,1.07-.51,1.45-1,2.3"/><path class="cls-8" d="M539.29,511.55c-2.53-9.62.15-21.3,6.22-29.19.45-.58,1-1.2,1.77-1.14,1.12.11,1.41,1.6,1.36,2.72a52.8,52.8,0,0,1-9.35,27.61"/><path class="cls-8" d="M542.37,513.66c11.7,3,25.12.09,34.85-7.09a28.25,28.25,0,0,0-18.87-2.31c-6.3,1.44-12.06,4.26-16,9.4"/><path class="cls-8" d="M545,507.25c6.56-10.68,19.12-17.65,31.63-18.29-1.44,5.09-5.62,9.05-10.34,11.44s-10,3.43-15.18,4.44c-2,.39-4.8.82-6.11,2.41"/><path class="cls-8" d="M539.94,476.14c1.77-6.08,3.56-12.21,4-18.52s-.41-12.91-3.69-18.32c-6.12,11.84-6.74,25.67-.54,37.47"/><path class="cls-8" d="M560.54,465.73c7.16-13,21.76-23.4,36.53-24.86-5.69,14.19-21.24,25.16-36.53,24.86"/><path class="cls-8" d="M556,468.27c10.67,1.63,19.77,8.45,29.74,12.58a13.37,13.37,0,0,0,6.72,1.29c2.29-.3,4.55-1.84,5.07-4.09a5.88,5.88,0,0,0-1.77-5.22,14.42,14.42,0,0,0-4.88-3c-10.87-4.52-22.52-4.63-34-1.89"/><path class="cls-8" d="M549.86,475.76c2.42.69,3.24,1.94,5.16,3.57a55.68,55.68,0,0,0,22.55,11.59c.86.21,2,.3,2.42-.48s-.1-1.5-.58-2.11c-3.47-4.34-8.42-7.3-13.62-9.24s-9.71-4.28-15.93-3.78"/><path class="cls-8" d="M542.89,430.55a42.69,42.69,0,0,0,32.73,11.13,2.3,2.3,0,0,0,1.49-.53c.82-.9-.17-2.28-1.13-3-9.62-7.5-21.27-10.61-33.09-7.57"/><path class="cls-8" d="M551.16,427.52A45.6,45.6,0,0,1,592,420.79c-5.14,5.06-12.28,7.79-19.46,8.54a61.4,61.4,0,0,1-21.37-1.81"/><path class="cls-8" d="M547.87,406.75c-.94-9.61-.33-17.19-1-26.83,0-.78-.22-1.7-.94-2-1-.39-1.84.85-2.17,1.87a30.74,30.74,0,0,0,4.1,26.72"/><path class="cls-8" d="M547.18,407.81c6.51-4,11.39-9.28,15.91-15.46,3.14-4.3,5.79-9.45,5.07-14.73-4.41-.09-8.6,2.35-11.47,5.7s-4.58,7.54-5.85,11.77-2.16,8.57-3.66,12.72"/><path class="cls-8" d="M562.81,403.47A128.6,128.6,0,0,0,602,380.38c-4.68-1.88-10-.75-14.71,1.13-10.68,4.31-19.41,11.59-24.64,21.85"/><path class="cls-8" d="M551.58,413.06c7.22.79,14.56,1.31,21.73.11s13.71-4,20.3-6.75a2.35,2.35,0,0,0,1.37-1,1.58,1.58,0,0,0-.49-1.74,4.18,4.18,0,0,0-1.73-.81c-7.16-2-14.89-1.07-21.93,1.31a102.19,102.19,0,0,0-19.25,8.92"/><path class="cls-8" d="M510.31,430.88c-4.93-10-4.61-21.57-.35-31.83,3,4.57,3.36,10.39,2.82,15.82s-2.21,11-2.31,16.5"/><path class="cls-8" d="M490.62,420.94a44.42,44.42,0,0,0-33,14.05c6.15,1,12.47-.62,18.06-3.35s10.56-6.55,15.48-10.36"/><path class="cls-8" d="M477.37,416.51c-6-.49-11.81-1.23-17.6.54s-11.06,5.81-13.42,11.38c5.63.64,11.34-.78,16.5-3.11a94,94,0,0,0,14.52-8.81"/><path class="cls-8" d="M497,416.72c-5.42-3.55-11-7.17-17.29-8.64s-13.62-.38-18,4.37c5.1,3,11.3,3.35,17.22,3.35s13.18-.07,18.76,1.9"/><path class="cls-8" d="M497,417c-9.26-9.09-12.77-25.43-9-37.86A57.64,57.64,0,0,1,497,417"/><path class="cls-8" d="M522.48,391.23c1.75-4.06,3-8.32,4.54-12.45a35.93,35.93,0,0,1,6.48-11.49c3-3.28,7-5.72,11.47-5.94a46.24,46.24,0,0,1-22.26,29.95"/><path class="cls-8" d="M517.87,396.6c-2.89-4-6.23-9.38-10.15-12.35s-9-4.76-13.81-3.62a32.17,32.17,0,0,0,24,16"/><path class="cls-8" d="M518.79,391.56c-1.89-4.81-3.8-9.67-4.57-14.79s-.3-10.58,2.32-15c5.08,9.61,6.72,19.93,2.51,29.95"/><path class="cls-8" d="M522.53,361.72c2.88-9.52,11.6-16.54,21-19.76a7.9,7.9,0,0,1,3.68-.55,3.2,3.2,0,0,1,2.72,2.27c.34,1.62-1,3.07-2.26,4.15a71.44,71.44,0,0,1-25.16,13.89"/><path class="cls-8" d="M522.63,353.93c.37-6.14.75-12.37,2.75-18.19s5.85-11.28,11.45-13.83c.95,6.2-1.79,12.38-5.09,17.72S524.46,350,522.48,356"/><path class="cls-8" d="M522.48,358.16c-2.38-6.94-2.63-15.76-6.78-21.81-2.91-4.23-7.56-7.11-10.07-11.59-1.66,4.19-1.15,9,.59,13.16a38.08,38.08,0,0,0,7.69,11c3.07,3.28,5.71,5.75,8.57,9.23"/><path class="cls-9" d="M522.53,562.63c-.19,0-.35-46.32-.36-103.44s.12-103.45.31-103.45.34,46.31.36,103.45S522.71,562.63,522.53,562.63Z"/><path class="cls-9" d="M563,423.89a11,11,0,0,1-1.74.65l-4.79,1.62c-4,1.37-9.6,3.37-15.62,5.84s-11.59,4.63-14.8,7.41a10.94,10.94,0,0,0-3,3.93c-.46,1.09-.54,1.75-.6,1.74a1.26,1.26,0,0,1,0-.48,6.89,6.89,0,0,1,.34-1.35,10.48,10.48,0,0,1,2.9-4.2,26.19,26.19,0,0,1,6.42-4c2.57-1.2,5.41-2.45,8.44-3.69,6-2.48,11.63-4.41,15.72-5.67,2-.64,3.71-1.11,4.86-1.42A9.38,9.38,0,0,1,563,423.89Z"/><path class="cls-9" d="M576.27,391.3a3.76,3.76,0,0,1-.49.52l-1.49,1.4-5.54,5c-4.8,4.26-11.29,10.05-18.47,16.44s-13.44,12.55-17.76,17.16c-2.16,2.31-3.86,4.22-5,5.55l-1.35,1.53c-.31.35-.48.53-.5.51a3.42,3.42,0,0,1,.4-.59c.28-.37.69-.93,1.25-1.62,1.1-1.38,2.75-3.34,4.87-5.7a235,235,0,0,1,17.66-17.34c7.24-6.4,13.82-12.15,18.6-16.3l5.69-4.88,1.57-1.3A2.57,2.57,0,0,1,576.27,391.3Z"/><path class="cls-9" d="M542.5,421.22c-.19-.08,1.31-3.56,2.81-8s2.23-8.11,2.42-8.08-.25,3.84-1.78,8.29a57.31,57.31,0,0,1-2.24,5.57A8.83,8.83,0,0,1,542.5,421.22Z"/><path class="cls-9" d="M522.57,449.26a9.11,9.11,0,0,1-1.11-1.29l-2.85-3.65c-2.39-3.09-5.69-7.36-9.4-12s-7.11-8.86-9.57-11.89l-2.91-3.6a8.82,8.82,0,0,1-1-1.37,8.37,8.37,0,0,1,1.21,1.2c.74.81,1.79,2,3.07,3.47,2.56,2.95,6,7.1,9.74,11.77s7,9,9.25,12.15c1.15,1.59,2.06,2.88,2.68,3.78A8.51,8.51,0,0,1,522.57,449.26Z"/><path class="cls-9" d="M513.69,437.86c-.11.12-2.47-2.69-3.71-7a19.84,19.84,0,0,1-.85-7l.3,0c-.13.54-.23.82-.28.81s-.06-.31,0-.86l.3,0a32.16,32.16,0,0,0,1.19,6.82C511.81,434.85,513.87,437.75,513.69,437.86Z"/><path class="cls-9" d="M502.24,423.45a11.94,11.94,0,0,0-2.6-1.51,17.47,17.47,0,0,0-7.21-.57,44.46,44.46,0,0,0-7.25,1.17,22.42,22.42,0,0,1-3,.72,10,10,0,0,1,2.86-1.17,33,33,0,0,1,7.33-1.39,15.71,15.71,0,0,1,7.44.81A4.66,4.66,0,0,1,502.24,423.45Z"/><path class="cls-9" d="M499.52,420c0,.1-1.51-.61-4-1.45a40.12,40.12,0,0,0-20-1.53c-2.56.46-4.11.94-4.15.83a4.07,4.07,0,0,1,1.06-.45,23.89,23.89,0,0,1,3-.84,35.44,35.44,0,0,1,10.26-.72,34.92,34.92,0,0,1,10,2.27,26.82,26.82,0,0,1,2.85,1.28A4.22,4.22,0,0,1,499.52,420Z"/><path class="cls-9" d="M522.48,405.19c-.18,0-1.48-4.47-2.9-10.08s-2.43-10.19-2.25-10.24,1.47,4.47,2.9,10.08S522.66,405.14,522.48,405.19Z"/><path class="cls-9" d="M522.66,405.19c-.2.06-1-2.95-3.21-6s-4.83-4.73-4.73-4.89a4.47,4.47,0,0,1,1.82,1,14.66,14.66,0,0,1,3.46,3.55C522.26,402,522.83,405.18,522.66,405.19Z"/><path class="cls-9" d="M522.53,537.94c-.08,0-.21-1.12-.73-3.08a43.92,43.92,0,0,0-3.1-8c-3.2-6.54-9-14.83-16.42-23.14-3.67-4.19-7.22-8.14-10.24-11.92a83.54,83.54,0,0,1-7.33-10.57,51.77,51.77,0,0,1-3.7-7.83q-.51-1.45-.72-2.25a3.5,3.5,0,0,1-.19-.8c.06,0,.4,1.06,1.16,2.95a56.78,56.78,0,0,0,3.86,7.7,87.89,87.89,0,0,0,7.4,10.41c3,3.75,6.59,7.68,10.26,11.87,7.42,8.33,13.23,16.72,16.35,23.37a40.37,40.37,0,0,1,2.92,8.16c.21,1,.36,1.79.41,2.33A4.92,4.92,0,0,1,522.53,537.94Z"/><path class="cls-9" d="M559.1,496.62a16.17,16.17,0,0,1-1.92,1.08,42.22,42.22,0,0,0-5,3.29,57.82,57.82,0,0,0-6.53,5.95c-2.29,2.42-4.65,5.24-7.06,8.25-4.82,6-9.32,11.39-12,15.66-1.37,2.12-2.37,3.9-3,5.16a19.85,19.85,0,0,1-1.05,1.93s0-.2.17-.55.34-.86.65-1.5a47.7,47.7,0,0,1,2.85-5.29c2.62-4.37,7.09-9.8,11.9-15.83,2.41-3,4.8-5.84,7.14-8.25a52.54,52.54,0,0,1,6.69-5.91,35,35,0,0,1,5.13-3.14c.64-.32,1.16-.51,1.5-.66A2.19,2.19,0,0,1,559.1,496.62Z"/><path class="cls-9" d="M559.82,510a30.93,30.93,0,0,1-4.06.59,52.44,52.44,0,0,0-9.6,1.89,29.06,29.06,0,0,0-8.61,4.51c-2,1.54-2.92,2.8-3,2.73a3.1,3.1,0,0,1,.6-.93,15.14,15.14,0,0,1,2.11-2.16,25.94,25.94,0,0,1,8.7-4.79,43.77,43.77,0,0,1,9.77-1.73A21.88,21.88,0,0,1,559.82,510Z"/><path class="cls-9" d="M535.72,518.28c-.21-.12,1.62-2.91,3-6.66s1.64-7.11,1.87-7.07a6.16,6.16,0,0,1-.06,2.17,23.19,23.19,0,0,1-1.19,5.13,23.91,23.91,0,0,1-2.35,4.69A6.58,6.58,0,0,1,535.72,518.28Z"/><path class="cls-9" d="M571,460.65a4.47,4.47,0,0,1-.65.34l-1.91.87c-.83.35-1.84.81-3,1.41s-2.48,1.2-3.87,2l-2.22,1.26c-.76.44-1.52,1-2.33,1.47-1.63,1-3.26,2.2-5,3.45a85.25,85.25,0,0,0-19.27,19.94c-1.19,1.78-2.35,3.46-3.28,5.12-.48.82-1,1.6-1.39,2.38l-1.18,2.25c-.78,1.42-1.35,2.77-1.9,3.94s-1,2.19-1.31,3l-.8,1.93a3.16,3.16,0,0,1-.32.66,3.37,3.37,0,0,1,.2-.7c.18-.52.4-1.18.68-2a33,33,0,0,1,1.21-3.09c.52-1.18,1.06-2.56,1.82-4l1.15-2.29c.4-.79.89-1.58,1.36-2.41.92-1.69,2.07-3.38,3.25-5.19A82.69,82.69,0,0,1,551.62,471c1.77-1.24,3.42-2.45,5.08-3.42.82-.5,1.59-1,2.36-1.45l2.25-1.22c1.41-.82,2.77-1.4,3.94-2s2.19-1,3-1.31l2-.76A2.46,2.46,0,0,1,571,460.65Z"/><path class="cls-9" d="M542,480a4.64,4.64,0,0,1,1.59-2.37,10,10,0,0,1,6.41-2.46,17.42,17.42,0,0,1,6.75,1.32,9.16,9.16,0,0,1,2.55,1.24,16.76,16.76,0,0,1-2.7-.8,20.55,20.55,0,0,0-6.57-1.09A10.46,10.46,0,0,0,543.9,478,18.46,18.46,0,0,0,542,480Z"/><path class="cls-9" d="M537.67,484.5c-.18-.1,1.45-2.49,1.82-5.92s-.61-6.13-.4-6.19a4.08,4.08,0,0,1,.75,1.73,12.39,12.39,0,0,1,.32,4.54A12.06,12.06,0,0,1,538.8,483C538.24,484,537.74,484.55,537.67,484.5Z"/><path class="cls-10" d="M490.54,544.57c1,17.7,6.33,35.7,14.53,53.9h35.68c7.82-18,12.79-36,13.67-53.9Z"/><path class="cls-5" d="M548.64,573.21c0,.19-11.75.34-26.23.34s-26.24-.15-26.24-.34,11.74-.33,26.24-.33S548.64,573,548.64,573.21Z"/><path class="cls-5" d="M547.84,579.63c0,.18-11,.33-24.59.33s-24.6-.15-24.6-.33,11-.34,24.6-.34S547.84,579.44,547.84,579.63Z"/><path class="cls-8" d="M305.94,134.07c0-3.45,1.81-5.51,4.32-5.51s4.33,2.06,4.33,5.51-1.83,5.51-4.33,5.51S305.94,137.52,305.94,134.07Zm7.5,0c0-2.9-1.3-4.49-3.18-4.49s-3.19,1.59-3.19,4.49,1.3,4.49,3.19,4.49S313.44,137,313.44,134.07Z"/><path class="cls-8" d="M316.19,134.07c0-3.45,1.81-5.51,4.31-5.51s4.34,2.06,4.34,5.51-1.83,5.51-4.34,5.51S316.19,137.52,316.19,134.07Zm7.5,0c0-2.9-1.3-4.49-3.19-4.49s-3.18,1.59-3.18,4.49,1.3,4.49,3.18,4.49S323.69,137,323.69,134.07Z"/><path class="cls-8" d="M329.41,128.65v10.84h-1.12v-9.85h-2.55v-1Z"/><path class="cls-8" d="M332,134.07c0-3.45,1.81-5.51,4.32-5.51s4.33,2.06,4.33,5.51-1.82,5.51-4.33,5.51S332,137.52,332,134.07Zm7.51,0c0-2.9-1.3-4.49-3.19-4.49s-3.19,1.59-3.19,4.49,1.3,4.49,3.19,4.49S339.5,137,339.5,134.07Z"/><path class="cls-8" d="M345.21,128.65v10.84H344.1v-9.85h-2.56v-1Z"/><path class="cls-8" d="M295.27,149.45c0-3.45,1.81-5.51,4.32-5.51s4.33,2.06,4.33,5.51-1.83,5.51-4.33,5.51S295.27,152.9,295.27,149.45Zm7.5,0c0-2.9-1.3-4.49-3.18-4.49s-3.19,1.59-3.19,4.49,1.3,4.49,3.19,4.49S302.77,152.34,302.77,149.45Z"/><path class="cls-8" d="M305.52,149.45c0-3.45,1.81-5.51,4.31-5.51s4.34,2.06,4.34,5.51-1.83,5.51-4.34,5.51S305.52,152.9,305.52,149.45Zm7.5,0c0-2.9-1.3-4.49-3.19-4.49s-3.18,1.59-3.18,4.49,1.3,4.49,3.18,4.49S313,152.34,313,149.45Z"/><path class="cls-8" d="M318.74,144v10.84h-1.12V145h-2.55v-1Z"/><path class="cls-8" d="M321.32,149.45c0-3.45,1.81-5.51,4.32-5.51S330,146,330,149.45s-1.82,5.51-4.33,5.51S321.32,152.9,321.32,149.45Zm7.51,0c0-2.9-1.3-4.49-3.19-4.49s-3.19,1.59-3.19,4.49,1.3,4.49,3.19,4.49S328.83,152.34,328.83,149.45Z"/><path class="cls-8" d="M334.54,144v10.84h-1.11V145h-2.56v-1Z"/><path class="cls-8" d="M340.13,144v10.84H339V145h-2.56v-1Z"/><path class="cls-8" d="M342.72,149.45c0-3.45,1.81-5.51,4.31-5.51s4.34,2.06,4.34,5.51S349.54,155,347,155,342.72,152.9,342.72,149.45Zm7.5,0c0-2.9-1.3-4.49-3.19-4.49s-3.18,1.59-3.18,4.49,1.3,4.49,3.18,4.49S350.22,152.34,350.22,149.45Z"/><path class="cls-8" d="M355.94,144v10.84h-1.12V145h-2.55v-1Z"/><path class="cls-8" d="M305.94,164.32c0-3.45,1.81-5.51,4.32-5.51s4.33,2.06,4.33,5.51-1.83,5.51-4.33,5.51S305.94,167.77,305.94,164.32Zm7.51,0c0-2.89-1.3-4.49-3.19-4.49s-3.19,1.6-3.19,4.49,1.3,4.49,3.19,4.49S313.45,167.22,313.45,164.32Z"/><path class="cls-8" d="M319.16,158.9v10.84H318V159.9h-2.55v-1Z"/><path class="cls-8" d="M324.75,158.9v10.84h-1.12V159.9h-2.55v-1Z"/><path class="cls-8" d="M330.34,158.9v10.84h-1.12V159.9h-2.55v-1Z"/><path class="cls-8" d="M332.92,164.32c0-3.45,1.81-5.51,4.32-5.51s4.33,2.06,4.33,5.51-1.82,5.51-4.33,5.51S332.92,167.77,332.92,164.32Zm7.51,0c0-2.89-1.3-4.49-3.19-4.49s-3.19,1.6-3.19,4.49,1.3,4.49,3.19,4.49S340.43,167.22,340.43,164.32Z"/><path class="cls-8" d="M346.14,158.9v10.84H345V159.9h-2.56v-1Z"/><path class="cls-10" d="M347.53,20.63h.72l2.13.07c.47,0,1,0,1.57.08l1.87.26,2.19.32,2.44.61a43.94,43.94,0,0,1,5.62,1.87l3.07,1.46c1.05.52,2.07,1.21,3.16,1.84a41.89,41.89,0,0,1,19.26,31.39,45.42,45.42,0,0,1,.13,5.73c-.06,1-.07,1.95-.18,2.93s-.29,2-.44,2.94a41.44,41.44,0,0,1-3.93,11.67,41.78,41.78,0,0,1-18.47,18.44c-1.05.48-2.06,1.05-3.14,1.46l-3.29,1.21c-1.12.32-2.27.59-3.41.89a33.68,33.68,0,0,1-3.5.62c-.58.07-1.17.21-1.76.24l-1.8.09c-1.19.06-2.39.14-3.6.09A43.09,43.09,0,0,1,339,104a42.17,42.17,0,0,1-11.68-4.29h.34l-14.08,6.7-.65.31L313,106c1-5.32,2-10.51,2.94-15.53l.08.3a42.13,42.13,0,0,1-9.94-36.36,41.44,41.44,0,0,1,6.28-15.19A42.87,42.87,0,0,1,322.1,29a43.5,43.5,0,0,1,5.11-3.33c.84-.46,1.7-.83,2.51-1.23a19.05,19.05,0,0,1,2.4-1A35.38,35.38,0,0,1,336.56,22a28.18,28.18,0,0,1,3.81-.81c1.15-.16,2.17-.34,3.06-.42l2.25-.08,1.38,0h.47a2.93,2.93,0,0,1-.47.06l-1.37.1-2.24.14c-.88.1-1.9.3-3,.47a28.51,28.51,0,0,0-3.78.86,34.27,34.27,0,0,0-4.39,1.47,19.43,19.43,0,0,0-2.37,1c-.8.41-1.64.78-2.47,1.24a46.65,46.65,0,0,0-5,3.34,42.57,42.57,0,0,0-9.54,10.17,41,41,0,0,0-6.13,15,41.55,41.55,0,0,0,9.88,35.77l.12.13,0,.17q-1.41,7.53-2.92,15.54l-.51-.4L327.29,99l.17-.08.16.09a41.59,41.59,0,0,0,11.48,4.21,42.72,42.72,0,0,0,7.1.84c1.18.05,2.36,0,3.54-.09l1.76-.09c.58,0,1.15-.16,1.73-.24a33,33,0,0,0,3.44-.6c1.12-.29,2.25-.56,3.35-.87l3.23-1.18c1.06-.41,2.06-1,3.09-1.44a43.48,43.48,0,0,0,10.73-7.79,43.2,43.2,0,0,0,7.46-10.32A40.7,40.7,0,0,0,388.43,70c.15-1,.29-1.94.44-2.9s.12-1.94.18-2.89a46,46,0,0,0-.1-5.64,41.58,41.58,0,0,0-18.87-31.1C369,26.86,368,26.16,367,25.64l-3-1.47a42.91,42.91,0,0,0-5.55-1.92L356,21.61l-2.17-.35-1.86-.3c-.57-.06-1.1-.07-1.56-.11l-2.12-.14C347.77,20.67,347.53,20.63,347.53,20.63Z"/><path class="cls-8" d="M358.54,73.21a4.48,4.48,0,0,1,.74-.84l2.14-2.16c1.83-1.8,4.37-4.27,7.2-7l.07-.06v.36c-2.85-2.65-5.41-5.06-7.25-6.83l-2.16-2.11a5.41,5.41,0,0,1-.74-.82,4.23,4.23,0,0,1,.87.68l2.27,2c1.9,1.7,4.49,4.08,7.35,6.73l.19.18-.19.18-.06.06c-2.83,2.71-5.42,5.13-7.31,6.87l-2.25,2A5.76,5.76,0,0,1,358.54,73.21Z"/><path class="cls-8" d="M358.52,73.58a.31.31,0,0,1-.24-.13c-.27-.29-.09-.46.74-1.33L361.17,70c1.8-1.78,4.21-4.11,6.81-6.59-2.58-2.4-5-4.66-6.79-6.4L359,54.85c-.85-.85-1-1-.75-1.32s.47-.11,1.37.66l2.26,2c2,1.77,4.59,4.16,7.36,6.74l.2.18a.35.35,0,0,1,.11.26.36.36,0,0,1-.11.26l-.19.18c-2.78,2.65-5.37,5.09-7.37,6.93l-2.26,2C359,73.33,358.73,73.58,358.52,73.58Z"/><path class="cls-8" d="M336.51,53.78a4.92,4.92,0,0,1-.73.84l-2.15,2.15c-1.82,1.8-4.37,4.27-7.2,7l-.06.06v-.36c2.86,2.65,5.42,5.06,7.25,6.83.86.83,1.58,1.54,2.16,2.11s.77.8.74.83a5.22,5.22,0,0,1-.87-.69l-2.26-2c-1.9-1.7-4.5-4.08-7.35-6.73l-.2-.18.19-.18.07-.06c2.83-2.7,5.41-5.13,7.3-6.87l2.25-2A4.6,4.6,0,0,1,336.51,53.78Z"/><path class="cls-8" d="M336.53,73.58c-.2,0-.49-.24-1.12-.78l-2.27-2c-2-1.8-4.61-4.19-7.36-6.73l-.19-.18a.35.35,0,0,1-.12-.26.39.39,0,0,1,.11-.27l.2-.18c2.81-2.69,5.41-5.13,7.37-6.93l2.25-2c.91-.8,1.1-1,1.37-.68s.1.47-.74,1.33L333.89,57c-1.81,1.79-4.21,4.11-6.81,6.59,2.58,2.4,5,4.66,6.78,6.4L336,72.13c.85.86,1,1,.75,1.32A.31.31,0,0,1,336.53,73.58Z"/><path class="cls-8" d="M342.17,77.78c-.13,0,2.18-6.54,5.16-14.51s5.5-14.39,5.63-14.34-2.18,6.55-5.16,14.52S342.3,77.83,342.17,77.78Z"/><path class="cls-8" d="M342.22,78.16a.65.65,0,0,1-.18,0h0c-.41-.16-.56-.22,5-15,5.36-14.33,5.68-14.48,5.81-14.53a.34.34,0,0,1,.28,0c.41.15.56.21-5,15-1.44,3.86-2.82,7.47-3.88,10.18C342.75,77.56,342.51,78.16,342.22,78.16Z"/><rect class="cls-6" x="438.1" y="205.63" width="123.82" height="50.29"/><path class="cls-8" d="M561.91,255.92s0-.31,0-.9,0-1.47,0-2.61c0-2.29,0-5.66,0-10,0-8.68,0-21.23-.08-36.77l.14.14-123.8,0h0l.19-.19c0,17.61,0,34.61,0,50.29l-.18-.19,88.77.09,25.75.05,6.89,0h0l-6.85,0L527,256l-88.9.09h-.19v-.19c0-15.68,0-32.68,0-50.29v-.2h.21l123.8.06h.14v.14c0,15.57-.06,28.16-.07,36.86,0,4.33,0,7.69,0,10,0,1.13,0,2,0,2.58S561.91,255.92,561.91,255.92Z"/><rect class="cls-8" x="448.62" y="217.15" width="29.91" height="29.91"/><path class="cls-8" d="M553.35,228.6c0,.11-15.39.2-34.37.2s-34.38-.09-34.38-.2,15.39-.2,34.38-.2S553.35,228.49,553.35,228.6Z"/><path class="cls-8" d="M553.35,234.69c0,.11-15.39.2-34.37.2s-34.38-.09-34.38-.2S500,234.5,519,234.5,553.35,234.58,553.35,234.69Z"/><path class="cls-8" d="M528.86,240.78a1.48,1.48,0,0,1-.45,0l-1.29,0-4.74.06-15.65.06-15.65-.06-4.74-.06-1.29,0a1.48,1.48,0,0,1-.45,0l.45,0,1.29,0,4.74-.06,15.65-.06,15.65.06,4.74.06,1.29,0Z"/><rect class="cls-5" x="396.93" y="104.15" width="130.62" height="86.2"/><path class="cls-9" d="M527.56,190.34s0-.54,0-1.58,0-2.57,0-4.55c0-4,0-9.85-.07-17.34,0-15-.09-36.48-.16-62.72l.3.29-130.62.08h0l.37-.37c0,30.67,0,59.84,0,86.19l-.34-.34,94,.17,26.92.09,7.17,0,1.85,0,.65,0s-.2,0-.61,0l-1.81,0-7.1,0-26.84.1-94.27.16h-.34v-.34c0-26.35,0-55.52,0-86.19v-.38h.38l130.62.08h.29v.3c-.06,26.31-.12,47.89-.15,62.91,0,7.45-.06,13.28-.08,17.27q0,2.94,0,4.5C527.58,189.84,527.56,190.34,527.56,190.34Z"/><path class="cls-9" d="M528.15,112.94c0,.2-29.17.37-65.15.37s-65.16-.17-65.16-.37,29.16-.37,65.16-.37S528.15,112.73,528.15,112.94Z"/><rect class="cls-8" x="408.3" y="125.35" width="41.62" height="54.87"/><path class="cls-8" d="M516.19,127.91c0,.21-13.06.37-29.17.37s-29.18-.16-29.18-.37,13.06-.37,29.18-.37S516.19,127.7,516.19,127.91Z"/><path class="cls-8" d="M516.19,134.78c0,.2-13.06.37-29.17.37s-29.18-.17-29.18-.37,13.06-.38,29.18-.38S516.19,134.57,516.19,134.78Z"/><path class="cls-8" d="M516.19,141.64c0,.21-13.06.37-29.17.37s-29.18-.16-29.18-.37,13.06-.37,29.18-.37S516.19,141.44,516.19,141.64Z"/><path class="cls-8" d="M516.19,148.51c0,.2-13.06.37-29.17.37s-29.18-.17-29.18-.37,13.06-.37,29.18-.37S516.19,148.3,516.19,148.51Z"/><rect class="cls-8" x="490.93" y="154.2" width="23.45" height="26.02"/><path class="cls-8" d="M487.08,155.37c0,.21-6.38.38-14.25.38s-14.25-.17-14.25-.38S465,155,472.83,155,487.08,155.17,487.08,155.37Z"/><path class="cls-8" d="M487.08,162.24c0,.21-6.38.37-14.25.37s-14.25-.16-14.25-.37,6.38-.37,14.25-.37S487.08,162,487.08,162.24Z"/><path class="cls-8" d="M487.08,170.2c0,.2-6.38.37-14.25.37s-14.25-.17-14.25-.37,6.38-.37,14.25-.37S487.08,170,487.08,170.2Z"/><path class="cls-8" d="M486.35,178.31c0,.21-6.38.38-14.25.38s-14.26-.17-14.26-.38,6.38-.37,14.26-.37S486.35,178.11,486.35,178.31Z"/><path class="cls-8" d="M187.46,148.87a4.38,4.38,0,0,1,0-.56c0-.4,0-.92,0-1.58,0-1.42,0-3.41-.07-5.93,0-5.13-.09-12.38-.15-21.11l.28.28L151,120c-.07.07.62-.62.33-.32h0v7.76q0,3.83,0,7.5c0,4.89,0,9.55,0,13.89l-.29-.29,26.23.14,7.48.08,2,0,.71,0a5.86,5.86,0,0,1-.65,0l-1.94,0-7.41.08-26.42.15h-.29v-.3c0-4.34,0-9,0-13.89q0-3.67,0-7.5v-7.76h0l.33-.34,36.42.06h.27v.27c-.06,8.8-.11,16.11-.14,21.28,0,2.49-.05,4.47-.07,5.87,0,.64,0,1.14,0,1.53A2.9,2.9,0,0,1,187.46,148.87Z"/><path class="cls-8" d="M182.8,138.23a20.26,20.26,0,0,1-2.27-2c-1.4-1.29-3.37-3.16-5.7-5.4h.42l-5.78,6.6-.23.27L169,138l-.25-.21-3.57-3h.42c-3.15,2.81-5.9,5.23-7.88,6.94l-2.33,2a5.13,5.13,0,0,1-.89.66s.24-.32.74-.82l2.21-2.12c1.9-1.78,4.6-4.26,7.72-7.1l.21-.18.21.17,3.58,2.94-.45,0L169,137l5.83-6.56.21-.24.22.22c2.29,2.28,4.2,4.2,5.53,5.57A17.86,17.86,0,0,1,182.8,138.23Z"/><path class="cls-8" d="M163.72,128.2c-.05,0-.21-.21-.58-.54a3.16,3.16,0,0,0-1.84-.81,3,3,0,0,0-2.62,1.08,3,3,0,1,0,5,3,3.21,3.21,0,0,0,.22-2c-.1-.48-.23-.74-.18-.77s.24.2.43.7a3.26,3.26,0,0,1,0,2.25,3.45,3.45,0,0,1-2.57,2.14,3.52,3.52,0,0,1-3.32-5.75,3.43,3.43,0,0,1,3.14-1.15,3.18,3.18,0,0,1,2,1.09C163.67,127.9,163.75,128.19,163.72,128.2Z"/><path class="cls-8" d="M146.81,140.92c-.05,0-.21-.21-.57-.54a3.29,3.29,0,0,0-1.85-.82,3.06,3.06,0,0,0-2.62,1.09,2.94,2.94,0,0,0,2.75,4.76,3,3,0,0,0,2.25-1.72,3.21,3.21,0,0,0,.22-2c-.1-.49-.23-.74-.18-.77s.24.19.43.7a3.21,3.21,0,0,1,0,2.25,3.43,3.43,0,0,1-2.57,2.14,3.52,3.52,0,0,1-3.32-5.75,3.46,3.46,0,0,1,3.14-1.16,3.21,3.21,0,0,1,2,1.1C146.76,140.61,146.84,140.9,146.81,140.92Z"/><path class="cls-8" d="M169.25,150.16a2.5,2.5,0,0,1,.06.62c0,.47,0,1.06.05,1.8,0,1.65,0,3.94.09,6.79v.2h-.21c-7.53.08-19.37.13-32.65.13h-2v-.33c0-10.37.07-19.75.09-26.83v-.24h.24l9.78.11,2.65.06a4.83,4.83,0,0,1,.93.07,4.83,4.83,0,0,1-.93.07l-2.65.06-9.78.11.24-.24c0,7.08.06,16.46.09,26.83l-.33-.33h1.68c13.28,0,25.12.05,32.65.12l-.21.21c0-2.85.08-5.14.1-6.79,0-.74,0-1.33.05-1.8A2.5,2.5,0,0,1,169.25,150.16Z"/><path class="cls-8" d="M149.09,147.07c.12.15-2.29,2.32-5.26,5s-5.39,4.85-5.52,4.72,2.09-2.52,5.08-5.21S149,146.94,149.09,147.07Z"/><path class="cls-8" d="M156.45,154.4c-.12.14-1.11-.49-2-1.56s-1.46-2.13-1.31-2.23.88.76,1.8,1.79S156.56,154.26,156.45,154.4Z"/><path class="cls-8" d="M199.2,175.44s0-.46,0-1.35,0-2.2,0-3.89c0-3.43,0-8.45-.07-14.88,0-12.87-.08-31.39-.13-54.1l.25.26-124.41.07h0l.33-.33c0,26.29,0,51.38,0,74.22l-.31-.3,89.49.15,25.69.08,6.86,0h1.77l.61,0s-.18,0-.57,0l-1.74,0-6.79,0-25.63.08-89.69.15h-.31v-.31c0-22.84,0-47.93,0-74.22v-.33h.34L199.2,101h.26v.25c-.06,22.78-.1,41.35-.14,54.26,0,6.41,0,11.4-.06,14.82,0,1.67,0,3,0,3.85S199.2,175.44,199.2,175.44Z"/><rect class="cls-8" x="84.85" y="118.6" width="37.9" height="2.77"/><path class="cls-8" d="M121.23,132.3c0,.18-8.27.33-18.47.33s-18.47-.15-18.47-.33,8.27-.33,18.47-.33S121.23,132.12,121.23,132.3Z"/><path class="cls-8" d="M121.23,138.44c0,.18-8.27.33-18.47.33s-18.47-.15-18.47-.33,8.27-.33,18.47-.33S121.23,138.26,121.23,138.44Z"/><path class="cls-8" d="M121.23,144.58c0,.18-8.27.33-18.47.33s-18.47-.15-18.47-.33,8.27-.33,18.47-.33S121.23,144.4,121.23,144.58Z"/><path class="cls-8" d="M121.23,150.72c0,.18-8.27.33-18.47.33s-18.47-.15-18.47-.33,8.27-.33,18.47-.33S121.23,150.54,121.23,150.72Z"/><path class="cls-8" d="M100.91,156.74c0,.18-3.72.33-8.31.33s-8.31-.15-8.31-.33,3.72-.33,8.31-.33S100.91,156.55,100.91,156.74Z"/><path class="cls-8" d="M466.26,292.14c0,.11-16.16.2-36.09.2s-36.1-.09-36.1-.2,16.16-.21,36.1-.21S466.26,292,466.26,292.14Z"/><path class="cls-8" d="M466.26,298.53c0,.12-16.16.21-36.09.21s-36.1-.09-36.1-.21,16.16-.2,36.1-.2S466.26,298.42,466.26,298.53Z"/><path class="cls-8" d="M440.55,304.93a1.68,1.68,0,0,1-.48,0l-1.35,0-5,.07-16.43.06-16.43-.06-5-.07-1.35,0a1.68,1.68,0,0,1-.48,0,2.32,2.32,0,0,1,.48,0l1.35,0,5-.06,16.43-.06,16.43.06,5,.06,1.35,0A2.32,2.32,0,0,1,440.55,304.93Z"/><path class="cls-8" d="M473,321.61c0-.17.52-.3,1.16-.3s1.15.13,1.15.3-.51.3-1.15.3S473,321.78,473,321.61Z"/><path class="cls-8" d="M468.32,321.61c0-.17.52-.3,1.16-.3s1.16.13,1.16.3-.52.3-1.16.3S468.32,321.78,468.32,321.61Z"/><path class="cls-8" d="M463.68,321.61c0-.17.52-.3,1.16-.3s1.16.13,1.16.3-.52.3-1.16.3S463.68,321.78,463.68,321.61Z"/><path class="cls-8" d="M459.05,321.61c0-.17.52-.3,1.16-.3s1.15.13,1.15.3-.51.3-1.15.3S459.05,321.78,459.05,321.61Z"/><path class="cls-8" d="M454.41,321.61c0-.17.52-.3,1.16-.3s1.16.13,1.16.3-.52.3-1.16.3S454.41,321.78,454.41,321.61Z"/><path class="cls-8" d="M449.77,321.61c0-.17.52-.3,1.16-.3s1.16.13,1.16.3-.52.3-1.16.3S449.77,321.78,449.77,321.61Z"/><path class="cls-8" d="M445.14,321.61c0-.17.52-.3,1.16-.3s1.15.13,1.15.3-.51.3-1.15.3S445.14,321.78,445.14,321.61Z"/><path class="cls-8" d="M440.5,321.61c0-.17.52-.3,1.16-.3s1.16.13,1.16.3-.52.3-1.16.3S440.5,321.78,440.5,321.61Z"/><path class="cls-8" d="M435.86,321.61c0-.17.52-.3,1.16-.3s1.16.13,1.16.3-.52.3-1.16.3S435.86,321.78,435.86,321.61Z"/><path class="cls-8" d="M431.23,321.61c0-.17.52-.3,1.16-.3s1.15.13,1.15.3-.51.3-1.15.3S431.23,321.78,431.23,321.61Z"/><path class="cls-8" d="M426.59,321.61c0-.17.52-.3,1.16-.3s1.16.13,1.16.3-.52.3-1.16.3S426.59,321.78,426.59,321.61Z"/><path class="cls-8" d="M422,321.61c0-.17.52-.3,1.16-.3s1.16.13,1.16.3-.52.3-1.16.3S422,321.78,422,321.61Z"/><path class="cls-8" d="M417.32,321.61c0-.17.52-.3,1.16-.3s1.16.13,1.16.3-.52.3-1.16.3S417.32,321.78,417.32,321.61Z"/><path class="cls-8" d="M412.68,321.61c0-.17.52-.3,1.16-.3s1.16.13,1.16.3-.52.3-1.16.3S412.68,321.78,412.68,321.61Z"/><path class="cls-8" d="M408,321.61c0-.17.52-.3,1.16-.3s1.16.13,1.16.3-.52.3-1.16.3S408,321.78,408,321.61Z"/><path class="cls-8" d="M403.41,321.61c0-.17.52-.3,1.16-.3s1.16.13,1.16.3-.52.3-1.16.3S403.41,321.78,403.41,321.61Z"/><path class="cls-8" d="M398.77,321.61c0-.17.52-.3,1.16-.3s1.16.13,1.16.3-.52.3-1.16.3S398.77,321.78,398.77,321.61Z"/><path class="cls-8" d="M394.13,321.61c0-.17.52-.3,1.16-.3s1.16.13,1.16.3-.52.3-1.16.3S394.13,321.78,394.13,321.61Z"/><path class="cls-8" d="M389.5,321.61c0-.17.52-.3,1.16-.3s1.16.13,1.16.3-.52.3-1.16.3S389.5,321.78,389.5,321.61Z"/><path class="cls-8" d="M384.86,321.61c0-.17.52-.3,1.16-.3s1.16.13,1.16.3-.52.3-1.16.3S384.86,321.78,384.86,321.61Z"/><path class="cls-8" d="M380.22,321.61c0-.17.52-.3,1.16-.3s1.16.13,1.16.3-.52.3-1.16.3S380.22,321.78,380.22,321.61Z"/><path class="cls-8" d="M375.59,321.61c0-.17.52-.3,1.16-.3s1.16.13,1.16.3-.52.3-1.16.3S375.59,321.78,375.59,321.61Z"/><path class="cls-8" d="M371,321.61c0-.17.52-.3,1.16-.3s1.16.13,1.16.3-.52.3-1.16.3S371,321.78,371,321.61Z"/><path class="cls-8" d="M366.31,321.61c0-.17.52-.3,1.16-.3s1.16.13,1.16.3-.52.3-1.16.3S366.31,321.78,366.31,321.61Z"/><path class="cls-8" d="M361.68,321.61c0-.17.52-.3,1.16-.3s1.16.13,1.16.3-.52.3-1.16.3S361.68,321.78,361.68,321.61Z"/><path class="cls-8" d="M357,321.61c0-.17.52-.3,1.16-.3s1.16.13,1.16.3-.52.3-1.16.3S357,321.78,357,321.61Z"/><path class="cls-8" d="M352.4,321.61c0-.17.52-.3,1.16-.3s1.16.13,1.16.3-.52.3-1.16.3S352.4,321.78,352.4,321.61Z"/><path class="cls-8" d="M347.77,321.61c0-.17.52-.3,1.16-.3s1.16.13,1.16.3-.52.3-1.16.3S347.77,321.78,347.77,321.61Z"/><path class="cls-8" d="M345.24,319.5c.17,0,.3.52.3,1.16a2.93,2.93,0,0,1-.13.95l-.17-.17c.13.05.21.11.21.17s-.08.12-.21.17l-.09,0-.08-.21a2.93,2.93,0,0,1-.13-.95C344.94,320,345.08,319.5,345.24,319.5Z"/><ellipse class="cls-8" cx="345.24" cy="316.02" rx="0.3" ry="1.16"/><ellipse class="cls-8" cx="345.24" cy="311.38" rx="0.3" ry="1.16"/><ellipse class="cls-8" cx="345.24" cy="306.75" rx="0.3" ry="1.16"/><ellipse class="cls-8" cx="345.24" cy="302.11" rx="0.3" ry="1.16"/><ellipse class="cls-8" cx="345.24" cy="297.47" rx="0.3" ry="1.16"/><ellipse class="cls-8" cx="345.24" cy="292.84" rx="0.3" ry="1.16"/><path class="cls-8" d="M345.24,287c.17,0,.3.52.3,1.16s-.13,1.16-.3,1.16-.3-.52-.3-1.16S345.08,287,345.24,287Z"/><ellipse class="cls-8" cx="345.24" cy="283.56" rx="0.3" ry="1.16"/><ellipse class="cls-8" cx="345.24" cy="278.93" rx="0.3" ry="1.16"/><ellipse class="cls-8" cx="345.24" cy="274.29" rx="0.3" ry="1.16"/><path class="cls-8" d="M346.25,269.5c0,.16-.44.28-1,.3l.3-.3v.15c0,.64-.13,1.16-.3,1.16s-.3-.52-.3-1.16v-.46h.29C345.81,269.22,346.25,269.35,346.25,269.5Z"/><path class="cls-8" d="M350.89,269.5c0,.17-.52.31-1.16.31s-1.16-.14-1.16-.31.52-.3,1.16-.3S350.89,269.34,350.89,269.5Z"/><path class="cls-8" d="M355.53,269.5c0,.17-.52.31-1.16.31s-1.16-.14-1.16-.31.52-.3,1.16-.3S355.53,269.34,355.53,269.5Z"/><path class="cls-8" d="M360.16,269.5c0,.17-.52.31-1.16.31s-1.16-.14-1.16-.31.52-.3,1.16-.3S360.16,269.34,360.16,269.5Z"/><path class="cls-8" d="M364.8,269.5c0,.17-.52.31-1.16.31s-1.16-.14-1.16-.31.52-.3,1.16-.3S364.8,269.34,364.8,269.5Z"/><path class="cls-8" d="M369.44,269.5c0,.17-.52.31-1.16.31s-1.16-.14-1.16-.31.52-.3,1.16-.3S369.44,269.34,369.44,269.5Z"/><path class="cls-8" d="M374.07,269.5c0,.17-.52.31-1.16.31s-1.16-.14-1.16-.31.52-.3,1.16-.3S374.07,269.34,374.07,269.5Z"/><path class="cls-8" d="M378.71,269.5c0,.17-.52.31-1.16.31s-1.16-.14-1.16-.31.52-.3,1.16-.3S378.71,269.34,378.71,269.5Z"/><path class="cls-8" d="M383.35,269.5c0,.17-.52.31-1.16.31s-1.16-.14-1.16-.31.52-.3,1.16-.3S383.35,269.34,383.35,269.5Z"/><path class="cls-8" d="M388,269.5c0,.17-.52.31-1.16.31s-1.16-.14-1.16-.31.52-.3,1.16-.3S388,269.34,388,269.5Z"/><path class="cls-8" d="M392.62,269.5c0,.17-.52.31-1.16.31s-1.16-.14-1.16-.31.52-.3,1.16-.3S392.62,269.34,392.62,269.5Z"/><path class="cls-8" d="M397.26,269.5c0,.17-.52.31-1.16.31s-1.16-.14-1.16-.31.52-.3,1.16-.3S397.26,269.34,397.26,269.5Z"/><path class="cls-8" d="M401.89,269.5c0,.17-.52.31-1.16.31s-1.16-.14-1.16-.31.52-.3,1.16-.3S401.89,269.34,401.89,269.5Z"/><path class="cls-8" d="M406.53,269.5c0,.17-.52.31-1.16.31s-1.16-.14-1.16-.31.52-.3,1.16-.3S406.53,269.34,406.53,269.5Z"/><path class="cls-8" d="M411.17,269.5c0,.17-.52.31-1.16.31s-1.16-.14-1.16-.31.52-.3,1.16-.3S411.17,269.34,411.17,269.5Z"/><path class="cls-8" d="M415.8,269.5c0,.17-.52.31-1.16.31s-1.16-.14-1.16-.31.52-.3,1.16-.3S415.8,269.34,415.8,269.5Z"/><path class="cls-8" d="M420.44,269.5c0,.17-.52.31-1.16.31s-1.16-.14-1.16-.31.52-.3,1.16-.3S420.44,269.34,420.44,269.5Z"/><path class="cls-8" d="M425.08,269.5c0,.17-.52.31-1.16.31s-1.16-.14-1.16-.31.52-.3,1.16-.3S425.08,269.34,425.08,269.5Z"/><path class="cls-8" d="M429.71,269.5c0,.17-.52.31-1.16.31s-1.16-.14-1.16-.31.52-.3,1.16-.3S429.71,269.34,429.71,269.5Z"/><path class="cls-8" d="M434.35,269.5c0,.17-.52.31-1.16.31s-1.16-.14-1.16-.31.52-.3,1.16-.3S434.35,269.34,434.35,269.5Z"/><path class="cls-8" d="M439,269.5c0,.17-.52.31-1.16.31s-1.16-.14-1.16-.31.52-.3,1.16-.3S439,269.34,439,269.5Z"/><path class="cls-8" d="M443.62,269.5c0,.17-.52.31-1.16.31s-1.16-.14-1.16-.31.52-.3,1.16-.3S443.62,269.34,443.62,269.5Z"/><path class="cls-8" d="M448.26,269.5c0,.17-.52.31-1.16.31s-1.16-.14-1.16-.31.52-.3,1.16-.3S448.26,269.34,448.26,269.5Z"/><path class="cls-8" d="M452.9,269.5c0,.17-.52.31-1.16.31s-1.16-.14-1.16-.31.52-.3,1.16-.3S452.9,269.34,452.9,269.5Z"/><path class="cls-8" d="M457.53,269.5c0,.17-.52.31-1.16.31s-1.16-.14-1.16-.31.52-.3,1.16-.3S457.53,269.34,457.53,269.5Z"/><path class="cls-8" d="M462.17,269.5c0,.17-.52.31-1.16.31s-1.16-.14-1.16-.31.52-.3,1.16-.3S462.17,269.34,462.17,269.5Z"/><path class="cls-8" d="M466.81,269.5c0,.17-.52.31-1.16.31s-1.16-.14-1.16-.31.52-.3,1.16-.3S466.81,269.34,466.81,269.5Z"/><path class="cls-8" d="M471.44,269.5c0,.17-.52.31-1.16.31s-1.16-.14-1.16-.31.52-.3,1.16-.3S471.44,269.34,471.44,269.5Z"/><path class="cls-8" d="M475.27,270.31c-.13,0-.24-.34-.28-.81l.28.29-.35,0c-.64,0-1.16-.14-1.16-.31s.52-.3,1.16-.3l.35,0,.31,0,0,.26C475.52,270,475.41,270.31,475.27,270.31Z"/><path class="cls-8" d="M475.27,274.94c-.16,0-.3-.52-.3-1.16s.14-1.15.3-1.15.31.51.31,1.15S475.44,274.94,475.27,274.94Z"/><path class="cls-8" d="M475.27,279.58c-.16,0-.3-.52-.3-1.16s.14-1.16.3-1.16.31.52.31,1.16S475.44,279.58,475.27,279.58Z"/><path class="cls-8" d="M475.27,284.22c-.16,0-.3-.52-.3-1.16s.14-1.16.3-1.16.31.52.31,1.16S475.44,284.22,475.27,284.22Z"/><path class="cls-8" d="M475.27,288.85c-.16,0-.3-.52-.3-1.16s.14-1.15.3-1.15.31.51.31,1.15S475.44,288.85,475.27,288.85Z"/><path class="cls-8" d="M475.27,293.49c-.16,0-.3-.52-.3-1.16s.14-1.16.3-1.16.31.52.31,1.16S475.44,293.49,475.27,293.49Z"/><path class="cls-8" d="M475.27,298.13c-.16,0-.3-.52-.3-1.16s.14-1.16.3-1.16.31.52.31,1.16S475.44,298.13,475.27,298.13Z"/><path class="cls-8" d="M475.27,302.76c-.16,0-.3-.52-.3-1.16s.14-1.15.3-1.15.31.51.31,1.15S475.44,302.76,475.27,302.76Z"/><path class="cls-8" d="M475.27,307.4c-.16,0-.3-.52-.3-1.16s.14-1.16.3-1.16.31.52.31,1.16S475.44,307.4,475.27,307.4Z"/><path class="cls-8" d="M475.27,312c-.16,0-.3-.52-.3-1.16s.14-1.16.3-1.16.31.52.31,1.16S475.44,312,475.27,312Z"/><path class="cls-8" d="M475.27,316.67c-.16,0-.3-.52-.3-1.16s.14-1.15.3-1.15.31.51.31,1.15S475.44,316.67,475.27,316.67Z"/><path class="cls-8" d="M475.27,321.31c-.16,0-.3-.52-.3-1.16s.14-1.16.3-1.16.31.52.31,1.16S475.44,321.31,475.27,321.31Z"/><path class="cls-8" d="M388.22,312.45c0-.17.52-.31,1.16-.31l-.3.31h0V312a2.73,2.73,0,0,1,.07-.37c.05-.21.13-.34.21-.34s.16.13.22.34a2.86,2.86,0,0,1,.06.37c0,.08,0,.15,0,.21v.21h0l-.3.3C388.74,312.75,388.22,312.61,388.22,312.45Z"/><path class="cls-8" d="M383.89,312.45c0-.17.49-.31,1.09-.31s1.08.14,1.08.31-.49.3-1.08.3S383.89,312.61,383.89,312.45Z"/><path class="cls-8" d="M379.56,312.45c0-.17.49-.31,1.09-.31s1.08.14,1.08.31-.49.3-1.08.3S379.56,312.61,379.56,312.45Z"/><path class="cls-8" d="M375.23,312.45c0-.17.49-.31,1.09-.31s1.08.14,1.08.31-.48.3-1.08.3S375.23,312.61,375.23,312.45Z"/><path class="cls-8" d="M370.91,312.45c0-.17.48-.31,1.08-.31s1.08.14,1.08.31-.48.3-1.08.3S370.91,312.61,370.91,312.45Z"/><path class="cls-8" d="M366.58,312.45c0-.17.48-.31,1.08-.31s1.08.14,1.08.31-.48.3-1.08.3S366.58,312.61,366.58,312.45Z"/><path class="cls-8" d="M362.25,312.45c0-.17.48-.31,1.08-.31s1.08.14,1.08.31-.48.3-1.08.3S362.25,312.61,362.25,312.45Z"/><path class="cls-8" d="M357.92,312.45c0-.17.48-.31,1.08-.31s1.08.14,1.08.31-.48.3-1.08.3S357.92,312.61,357.92,312.45Z"/><path class="cls-8" d="M354.59,311.29c.17,0,.3.52.3,1.16l-.3-.31h.24l.21,0a2.86,2.86,0,0,1,.37.06c.21.06.34.13.34.22s-.13.16-.34.21a1.79,1.79,0,0,1-.37.06l-.21,0h-.24l-.3-.3C354.29,311.81,354.43,311.29,354.59,311.29Z"/><path class="cls-8" d="M354.59,306.62c.17,0,.3.52.3,1.17s-.13,1.16-.3,1.16-.3-.52-.3-1.16S354.43,306.62,354.59,306.62Z"/><path class="cls-8" d="M354.59,302c.17,0,.3.53.3,1.17s-.13,1.17-.3,1.17-.3-.53-.3-1.17S354.43,302,354.59,302Z"/><path class="cls-8" d="M354.59,297.29c.17,0,.3.52.3,1.16s-.13,1.17-.3,1.17-.3-.52-.3-1.17S354.43,297.29,354.59,297.29Z"/><path class="cls-8" d="M354.59,292.62c.17,0,.3.52.3,1.17s-.13,1.16-.3,1.16-.3-.52-.3-1.16S354.43,292.62,354.59,292.62Z"/><path class="cls-8" d="M354.59,288c.17,0,.3.53.3,1.17s-.13,1.17-.3,1.17-.3-.53-.3-1.17S354.43,288,354.59,288Z"/><path class="cls-8" d="M354.59,283.29c.17,0,.3.52.3,1.16s-.13,1.17-.3,1.17-.3-.52-.3-1.17S354.43,283.29,354.59,283.29Z"/><path class="cls-8" d="M355.75,279.79c0,.17-.52.31-1.16.31.61-.61.17-.17.3-.31h0V280l0,.22a3,3,0,0,1-.06.36c-.06.21-.13.34-.22.34s-.16-.13-.21-.34a2.88,2.88,0,0,1-.07-.36c0-.09,0-.16,0-.22v-.21h0l.3-.3C355.23,279.49,355.75,279.63,355.75,279.79Z"/><path class="cls-8" d="M360.08,279.79c0,.17-.48.31-1.08.31s-1.08-.14-1.08-.31.48-.3,1.08-.3S360.08,279.63,360.08,279.79Z"/><path class="cls-8" d="M364.41,279.79c0,.17-.48.31-1.08.31s-1.08-.14-1.08-.31.48-.3,1.08-.3S364.41,279.63,364.41,279.79Z"/><path class="cls-8" d="M368.74,279.79c0,.17-.48.31-1.08.31s-1.08-.14-1.08-.31.48-.3,1.08-.3S368.74,279.63,368.74,279.79Z"/><path class="cls-8" d="M373.07,279.79c0,.17-.48.31-1.08.31s-1.08-.14-1.08-.31.48-.3,1.08-.3S373.07,279.63,373.07,279.79Z"/><path class="cls-8" d="M377.4,279.79c0,.17-.48.31-1.08.31s-1.09-.14-1.09-.31.49-.3,1.09-.3S377.4,279.63,377.4,279.79Z"/><path class="cls-8" d="M381.73,279.79c0,.17-.49.31-1.08.31s-1.09-.14-1.09-.31.49-.3,1.09-.3S381.73,279.63,381.73,279.79Z"/><path class="cls-8" d="M386.06,279.79c0,.17-.49.31-1.08.31s-1.09-.14-1.09-.31.49-.3,1.09-.3S386.06,279.63,386.06,279.79Z"/><path class="cls-8" d="M389.38,281c-.16,0-.3-.52-.3-1.16.6.61.17.17.3.31h-.23l-.22,0a1.91,1.91,0,0,1-.37-.06c-.21-.06-.34-.13-.34-.22s.13-.15.34-.21a1.91,1.91,0,0,1,.37-.06l.22,0h.23l.3.3C389.68,280.43,389.55,281,389.38,281Z"/><path class="cls-8" d="M389.38,285.62c-.16,0-.3-.52-.3-1.17s.14-1.16.3-1.16.3.52.3,1.16S389.55,285.62,389.38,285.62Z"/><path class="cls-8" d="M389.38,290.29c-.16,0-.3-.53-.3-1.17s.14-1.17.3-1.17.3.53.3,1.17S389.55,290.29,389.38,290.29Z"/><path class="cls-8" d="M389.38,295c-.16,0-.3-.52-.3-1.16s.14-1.17.3-1.17.3.52.3,1.17S389.55,295,389.38,295Z"/><path class="cls-8" d="M389.38,299.62c-.16,0-.3-.52-.3-1.17s.14-1.16.3-1.16.3.52.3,1.16S389.55,299.62,389.38,299.62Z"/><path class="cls-8" d="M389.38,304.29c-.16,0-.3-.53-.3-1.17s.14-1.17.3-1.17.3.53.3,1.17S389.55,304.29,389.38,304.29Z"/><path class="cls-8" d="M389.38,309c-.16,0-.3-.52-.3-1.16s.14-1.17.3-1.17.3.52.3,1.17S389.55,309,389.38,309Z"/><rect class="cls-8" x="353.76" y="311.62" width="1.66" height="1.66"/><rect class="cls-8" x="353.76" y="278.96" width="1.66" height="1.66"/><rect class="cls-8" x="388.55" y="278.96" width="1.66" height="1.66"/><rect class="cls-8" x="388.55" y="310.79" width="1.66" height="1.66"/><rect class="cls-8" x="370.33" y="311.62" width="1.66" height="1.66"/><rect class="cls-8" x="371.16" y="278.96" width="1.66" height="1.66"/><rect class="cls-8" x="353.76" y="296.12" width="1.66" height="1.66"/><rect class="cls-8" x="387.72" y="295.29" width="1.66" height="1.66"/><path class="cls-9" d="M316.92,246.44h80.55a3.17,3.17,0,0,0,2.35-1l30.23-33.19a3.19,3.19,0,0,0,.83-2.14V149.48a3.19,3.19,0,0,0-3.19-3.19H350.6a3.19,3.19,0,0,0-3.18,3.19v58a3.19,3.19,0,0,1-.95,2.27L314.69,241A3.18,3.18,0,0,0,316.92,246.44Z"/><rect class="cls-7" x="350.35" y="150.09" width="77.74" height="55.31"/><path class="cls-10" d="M429.85,209.28c0,.21-18.1.37-40.41.37s-40.42-.16-40.42-.37,18.1-.37,40.42-.37S429.85,209.08,429.85,209.28Z"/><path class="cls-9" d="M422.1,201.33a10.61,10.61,0,0,1,2.49-.15H425l-.15.14a8,8,0,0,1,.15-2.11,9.11,9.11,0,0,1,.15,2.11v.15h-.52A10.61,10.61,0,0,1,422.1,201.33Z"/><path class="cls-9" d="M416.39,201.33a6.84,6.84,0,0,1,2.85,0,6.84,6.84,0,0,1-2.85,0Z"/><path class="cls-9" d="M410.67,201.33a6.89,6.89,0,0,1,2.86,0,6.89,6.89,0,0,1-2.86,0Z"/><path class="cls-9" d="M405,201.33a6.84,6.84,0,0,1,2.85,0,6.84,6.84,0,0,1-2.85,0Z"/><path class="cls-9" d="M399.24,201.33a6.89,6.89,0,0,1,2.86,0,6.89,6.89,0,0,1-2.86,0Z"/><path class="cls-9" d="M393.53,201.33a6.84,6.84,0,0,1,2.85,0,6.84,6.84,0,0,1-2.85,0Z"/><path class="cls-9" d="M387.81,201.33a6.89,6.89,0,0,1,2.86,0,6.89,6.89,0,0,1-2.86,0Z"/><path class="cls-9" d="M382.1,201.33a6.84,6.84,0,0,1,2.85,0,6.84,6.84,0,0,1-2.85,0Z"/><path class="cls-9" d="M376.38,201.33a6.89,6.89,0,0,1,2.86,0,6.89,6.89,0,0,1-2.86,0Z"/><path class="cls-9" d="M370.67,201.33a6.84,6.84,0,0,1,2.85,0,6.84,6.84,0,0,1-2.85,0Z"/><path class="cls-9" d="M365,201.33a6.89,6.89,0,0,1,2.86,0,6.89,6.89,0,0,1-2.86,0Z"/><path class="cls-9" d="M359.24,201.33a6.84,6.84,0,0,1,2.85,0,6.84,6.84,0,0,1-2.85,0Z"/><path class="cls-9" d="M353.52,201.33a6.89,6.89,0,0,1,2.86,0,6.89,6.89,0,0,1-2.86,0Z"/><path class="cls-9" d="M353.48,195.66a6.89,6.89,0,0,1,0,2.86,6.89,6.89,0,0,1,0-2.86Z"/><path class="cls-9" d="M353.48,189.94a6.89,6.89,0,0,1,0,2.86,6.89,6.89,0,0,1,0-2.86Z"/><path class="cls-9" d="M353.48,184.23a6.89,6.89,0,0,1,0,2.86,6.89,6.89,0,0,1,0-2.86Z"/><path class="cls-9" d="M353.48,178.51a6.89,6.89,0,0,1,0,2.86,6.89,6.89,0,0,1,0-2.86Z"/><path class="cls-9" d="M353.48,172.8a6.89,6.89,0,0,1,0,2.86,6.89,6.89,0,0,1,0-2.86Z"/><path class="cls-9" d="M353.48,167.08a6.89,6.89,0,0,1,0,2.86,6.89,6.89,0,0,1,0-2.86Z"/><path class="cls-9" d="M358.14,166a6.89,6.89,0,0,1-2.86,0,6.89,6.89,0,0,1,2.86,0Z"/><path class="cls-9" d="M363.85,166a6.89,6.89,0,0,1-2.86,0,6.89,6.89,0,0,1,2.86,0Z"/><path class="cls-9" d="M369.57,166a6.89,6.89,0,0,1-2.86,0,6.89,6.89,0,0,1,2.86,0Z"/><path class="cls-9" d="M375.28,166a6.89,6.89,0,0,1-2.86,0,6.89,6.89,0,0,1,2.86,0Z"/><path class="cls-9" d="M381,166a6.89,6.89,0,0,1-2.86,0,6.89,6.89,0,0,1,2.86,0Z"/><path class="cls-9" d="M386.71,166a6.89,6.89,0,0,1-2.86,0,6.89,6.89,0,0,1,2.86,0Z"/><path class="cls-9" d="M392.43,166a6.89,6.89,0,0,1-2.86,0,6.89,6.89,0,0,1,2.86,0Z"/><path class="cls-9" d="M398.14,166a6.89,6.89,0,0,1-2.86,0,6.89,6.89,0,0,1,2.86,0Z"/><path class="cls-9" d="M403.86,166a6.89,6.89,0,0,1-2.86,0,6.89,6.89,0,0,1,2.86,0Z"/><path class="cls-9" d="M409.57,166a3.6,3.6,0,0,1-1.43.15,3.53,3.53,0,0,1-1.42-.15,3.33,3.33,0,0,1,1.42-.15A3.4,3.4,0,0,1,409.57,166Z"/><path class="cls-9" d="M415.29,166a6.89,6.89,0,0,1-2.86,0,6.89,6.89,0,0,1,2.86,0Z"/><path class="cls-9" d="M421,166a3.6,3.6,0,0,1-1.43.15,3.53,3.53,0,0,1-1.42-.15,3.33,3.33,0,0,1,1.42-.15A3.4,3.4,0,0,1,421,166Z"/><path class="cls-9" d="M425,167.79a3.6,3.6,0,0,1-.15-1.43V166l.15.14a2.47,2.47,0,0,1-1.1-.14,2.56,2.56,0,0,1,1.1-.15h.14v.48A3.6,3.6,0,0,1,425,167.79Z"/><path class="cls-9" d="M425,173.5a6.89,6.89,0,0,1,0-2.86,6.89,6.89,0,0,1,0,2.86Z"/><path class="cls-9" d="M425,179.22a6.89,6.89,0,0,1,0-2.86,6.89,6.89,0,0,1,0,2.86Z"/><path class="cls-9" d="M425,184.93a6.89,6.89,0,0,1,0-2.86,6.89,6.89,0,0,1,0,2.86Z"/><path class="cls-9" d="M425,190.65a6.89,6.89,0,0,1,0-2.86,6.89,6.89,0,0,1,0,2.86Z"/><path class="cls-9" d="M425,196.36a6.89,6.89,0,0,1,0-2.86,6.89,6.89,0,0,1,0,2.86Z"/><rect class="cls-9" x="353.48" y="153.01" width="71.48" height="10.3"/><polygon class="cls-10" points="406.89 230.1 423.75 211.7 351.12 211.7 332.52 229.55 406.89 230.1"/><polygon class="cls-8" points="172.37 564.77 164.02 595.65 191.16 598.13 196.86 568.73 172.37 564.77"/><path class="cls-9" d="M192,595.62a19.51,19.51,0,0,1-4-.14c-2.44-.19-5.81-.57-9.52-1L169,593.16a21.87,21.87,0,0,1-3.91-.68,20,20,0,0,1,4,.15c2.45.2,5.82.58,9.53,1.06L188,595A21.44,21.44,0,0,1,192,595.62Z"/><g class="cls-11"><polyline class="cls-6" points="164.02 595.65 191.16 598.13 191.6 595.87 164.8 592.46 164.04 595.35"/></g><path class="cls-9" d="M177.5,594.28c-.17,0,1-5.34,2.58-11.83s3-11.72,3.2-11.68-1,5.34-2.58,11.83S177.67,594.32,177.5,594.28Z"/><path class="cls-9" d="M190.45,595.42a13.21,13.21,0,0,0,.06-5.74,11.45,11.45,0,0,0-3-5.38,11.12,11.12,0,0,0-6.76-3.1,11.59,11.59,0,0,0-7.27,1.65,12.7,12.7,0,0,0-4.22,4.49,16.33,16.33,0,0,0-1.72,5.51,1.2,1.2,0,0,1,0-.41,8.18,8.18,0,0,1,.07-1.18,12.18,12.18,0,0,1,1.29-4.13,12.52,12.52,0,0,1,4.31-4.77,12,12,0,0,1,7.65-1.8,11.2,11.2,0,0,1,10.1,9,10.7,10.7,0,0,1,0,4.33,8.39,8.39,0,0,1-.33,1.13C190.53,595.3,190.47,595.42,190.45,595.42Z"/><path class="cls-8" d="M284.44,556.49l-1.81,27.43s27.3,9.07,27.46,14.17l-53.35.38,1.08-42.86Z"/><g class="cls-11"><path class="cls-6" d="M266.21,581.11a2.18,2.18,0,0,0-1.58,2.44,2.09,2.09,0,0,0,2.4,1.59,2.28,2.28,0,0,0,1.66-2.59,2.17,2.17,0,0,0-2.68-1.38"/></g><g class="cls-11"><path class="cls-6" d="M256.74,598.47l.11-4.32,51.53,1.43a3.68,3.68,0,0,1,2,2.89Z"/></g><path class="cls-9" d="M283.5,583.68c0,.26-1.32.34-2.63,1.14s-2,1.87-2.26,1.76.2-1.61,1.8-2.54S283.56,583.44,283.5,583.68Z"/><path class="cls-9" d="M289,586.16c.05.25-1.09.66-2,1.74s-1.2,2.23-1.46,2.21-.38-1.5.78-2.81S289,585.91,289,586.16Z"/><path class="cls-9" d="M292,593c-.24,0-.57-1.26.15-2.67s1.94-1.94,2.05-1.71-.68.95-1.24,2.12S292.25,592.93,292,593Z"/><path class="cls-9" d="M283.22,577.38c-.12.23-1.3-.16-2.78-.11s-2.63.49-2.76.26,1-1.12,2.74-1.16S283.35,577.18,283.22,577.38Z"/><g class="cls-12"><polygon points="284.08 561.92 283.76 566.81 257.56 565.78 257.66 561.37 284.08 561.92"/></g><path class="cls-9" d="M283.48,571.84a4.92,4.92,0,0,1-2.67-.1,12.3,12.3,0,0,1-4.27-1.8,3.38,3.38,0,0,1-.79-.65,1.15,1.15,0,0,1-.08-1.39,1.46,1.46,0,0,1,1.16-.56,3.59,3.59,0,0,1,1,.17,8.85,8.85,0,0,1,1.64.62,9,9,0,0,1,2.41,1.69c1.21,1.18,1.6,2.17,1.51,2.21s-.7-.75-1.93-1.73a10.42,10.42,0,0,0-2.34-1.41,8.76,8.76,0,0,0-1.52-.52c-.56-.17-1-.19-1.19.06-.06.09-.07.13,0,.3a2.73,2.73,0,0,0,.58.48,16.11,16.11,0,0,0,1.38.85,15.31,15.31,0,0,0,2.55,1.06A19.11,19.11,0,0,1,283.48,571.84Z"/><path class="cls-9" d="M283.13,572.2a4.26,4.26,0,0,1-.62-2.6,8.6,8.6,0,0,1,1.18-4.51,2.22,2.22,0,0,1,1.74-1.3,1.26,1.26,0,0,1,1.1.78,3.56,3.56,0,0,1,.24,1,5.92,5.92,0,0,1,0,1.79,6.16,6.16,0,0,1-1.23,2.73c-1.08,1.35-2.18,1.63-2.2,1.54s.84-.61,1.68-1.91a6.08,6.08,0,0,0,.92-2.49,5.3,5.3,0,0,0,0-1.54c-.07-.57-.26-1-.48-1s-.73.4-1,.84a8.2,8.2,0,0,0-.7,1.43,9.3,9.3,0,0,0-.6,2.65C283,571.18,283.28,572.17,283.13,572.2Z"/><polygon class="cls-9" points="284.44 318.14 203.15 317.53 163.87 575.53 197.61 579.81 240.85 367.67 253.79 580.57 253.82 581.2 290.31 580.56 284.44 318.14"/><path class="cls-10" d="M247.47,339.05a10.9,10.9,0,0,1,1.68-.11l4.89-.18,17.57-.5h.33v.34c0,5.1,0,10.8.05,16.85v.16l-.12.11-3.07,2.82-9,8.26-.23.22-.24-.21-12-10.72-.1-.09v-.13c.06-5.12.12-9.33.15-12.36,0-1.38.06-2.49.08-3.33a7.34,7.34,0,0,1,.06-1.12,10.53,10.53,0,0,1,.06,1.23c0,.86.05,2,.08,3.39,0,3,.09,7.14.15,12.19l-.1-.21,12.12,10.61h-.48c2.86-2.62,5.88-5.41,9-8.28l3.06-2.81-.12.27c0-6.05,0-11.75.05-16.85l.33.33-17.36.16h-5l-1.34,0A2.78,2.78,0,0,1,247.47,339.05Z"/><path class="cls-10" d="M209.21,337.93a10.62,10.62,0,0,1,1.5.07l4.38.36,15.8,1.43.33,0,0,.34c-.59,5-1.27,10.66-2,16.73V357l-.12.09-3.51,2.8-8.64,6.88-.29.22-.22-.28-9.45-11.95-.08-.1,0-.12c.68-5.05,1.24-9.23,1.65-12.24q.3-2,.48-3.3a7.74,7.74,0,0,1,.2-1.11,10,10,0,0,1-.08,1.24c-.09.86-.2,2-.34,3.39-.33,3-.78,7.1-1.33,12.1l-.06-.22L217,366.3l-.5-.05c2.75-2.2,5.64-4.52,8.63-6.9l3.51-2.8-.14.25c.76-6.06,1.47-11.74,2.09-16.72l.29.36-15.57-1.74-4.43-.53A14.3,14.3,0,0,1,209.21,337.93Z"/><path class="cls-10" d="M259,377.09a24.34,24.34,0,0,1-3.69-1.79c-2.24-1.17-5.33-2.79-8.77-4.51s-6.6-3.21-8.88-4.3a24,24,0,0,1-3.64-1.86,20.92,20.92,0,0,1,3.86,1.38c2.34,1,5.53,2.39,9,4.12s6.52,3.42,8.7,4.71A20.16,20.16,0,0,1,259,377.09Z"/><path class="cls-10" d="M257.9,383.35a8.37,8.37,0,0,1-2.77-1,23.75,23.75,0,0,1-10.08-9.93,8.32,8.32,0,0,1-1.09-2.76c.22-.11,1.94,4.12,5.89,8S258,383.14,257.9,383.35Z"/><path class="cls-10" d="M280.85,457.9a4.23,4.23,0,0,1-.37,1.35,18.46,18.46,0,0,1-1.69,3.42,20.65,20.65,0,0,1-21.91,9.24,17.58,17.58,0,0,1-3.63-1.17,4.34,4.34,0,0,1-1.22-.67c.05-.14,1.83.78,5,1.32a21.13,21.13,0,0,0,21.37-9A48,48,0,0,0,280.85,457.9Z"/><path class="cls-10" d="M275.5,455.71a10.29,10.29,0,0,1-3.1,1.37,30.55,30.55,0,0,1-8.09,1.33,42.16,42.16,0,0,1-8.17-.48,12.84,12.84,0,0,1-3.3-.76c0-.26,5.13.73,11.44.5a38.59,38.59,0,0,0,8-1.1A31.14,31.14,0,0,1,275.5,455.71Z"/><path class="cls-10" d="M215.06,457.24a12.58,12.58,0,0,1-2.82,2.56,32.76,32.76,0,0,1-17.11,6.37,12.49,12.49,0,0,1-3.81-.09c0-.12,1.45-.14,3.76-.43a40.48,40.48,0,0,0,8.8-2.15,39.4,39.4,0,0,0,8.05-4.13C213.87,458.08,215,457.15,215.06,457.24Z"/><path class="cls-10" d="M207.94,456.93c0,.18-3.29.95-7.46.61s-7.33-1.62-7.26-1.79,3.26.74,7.32,1.05S207.91,456.7,207.94,456.93Z"/><path class="cls-10" d="M240.36,369.45a16.4,16.4,0,0,1-3.65,1.66,51.22,51.22,0,0,1-19.05,3.05,16.13,16.13,0,0,1-4-.44,33.46,33.46,0,0,1,4-.09,70.27,70.27,0,0,0,9.55-.82,69.57,69.57,0,0,0,9.33-2.2A31.6,31.6,0,0,1,240.36,369.45Z"/><path class="cls-10" d="M238.14,361.12c.21,0,.39.64.4,1.43s-.15,1.43-.36,1.43-.38-.63-.39-1.42S237.94,361.12,238.14,361.12Z"/><path class="cls-10" d="M238.15,355.41c.21,0,.37.64.36,1.43s-.17,1.42-.38,1.42-.36-.64-.36-1.43S238,355.4,238.15,355.41Z"/><path class="cls-10" d="M238.27,349.69c.2,0,.35.65.33,1.44s-.2,1.42-.4,1.42-.36-.65-.34-1.44S238.06,349.69,238.27,349.69Z"/><path class="cls-10" d="M238.5,344c.2,0,.34.66.3,1.44s-.23,1.42-.43,1.42-.34-.66-.31-1.45S238.29,344,238.5,344Z"/><path class="cls-10" d="M238.84,338.28c.2,0,.33.66.28,1.44s-.26,1.42-.47,1.41-.33-.66-.28-1.45S238.63,338.26,238.84,338.28Z"/><path class="cls-10" d="M239.29,332.58c.2,0,.31.67.25,1.45s-.29,1.41-.49,1.4-.32-.67-.25-1.46S239.08,332.56,239.29,332.58Z"/><path class="cls-10" d="M239.74,327.91c.2,0,.33.45.27.95s-.25.89-.46.87-.33-.44-.28-1S239.53,327.89,239.74,327.91Z"/><path class="cls-10" d="M193.78,574.15c.2,0,.24.7.08,1.48s-.44,1.36-.64,1.32-.24-.7-.08-1.47S193.58,574.11,193.78,574.15Z"/><path class="cls-10" d="M194.9,568.55c.2,0,.24.7.09,1.47s-.45,1.37-.65,1.33-.24-.7-.08-1.47S194.7,568.51,194.9,568.55Z"/><path class="cls-10" d="M196,562.94c.2,0,.24.7.09,1.48s-.45,1.37-.65,1.33-.24-.7-.08-1.48S195.82,562.9,196,562.94Z"/><path class="cls-10" d="M197.14,557.34c.21,0,.24.7.09,1.47s-.45,1.37-.65,1.33-.24-.7-.08-1.47S196.94,557.3,197.14,557.34Z"/><path class="cls-10" d="M198.26,551.74c.21,0,.24.7.09,1.47s-.44,1.37-.65,1.33-.24-.7-.08-1.48S198.06,551.7,198.26,551.74Z"/><path class="cls-10" d="M199.39,546.13c.2,0,.24.7.08,1.48s-.44,1.36-.64,1.32-.24-.7-.09-1.47S199.18,546.09,199.39,546.13Z"/><path class="cls-10" d="M200.51,540.53c.2,0,.24.7.08,1.47s-.44,1.37-.64,1.33-.24-.7-.09-1.47S200.31,540.49,200.51,540.53Z"/><path class="cls-10" d="M201.63,534.92c.2,0,.24.7.08,1.48s-.44,1.37-.64,1.33-.24-.7-.09-1.48S201.43,534.88,201.63,534.92Z"/><path class="cls-10" d="M202.75,529.32c.2,0,.24.7.08,1.47s-.44,1.37-.64,1.33-.24-.7-.09-1.47S202.55,529.28,202.75,529.32Z"/><path class="cls-10" d="M203.87,523.72c.2,0,.24.7.08,1.47s-.44,1.37-.64,1.33-.24-.7-.08-1.48S203.67,523.68,203.87,523.72Z"/><path class="cls-10" d="M205,518.11c.2,0,.24.7.09,1.48s-.45,1.36-.65,1.32-.24-.7-.08-1.47S204.79,518.07,205,518.11Z"/><path class="cls-10" d="M206.11,512.51c.2,0,.24.7.09,1.47s-.45,1.37-.65,1.33-.24-.7-.08-1.47S205.91,512.47,206.11,512.51Z"/><path class="cls-10" d="M207.23,506.9c.2,0,.24.7.09,1.48s-.45,1.37-.65,1.33-.24-.7-.08-1.48S207,506.86,207.23,506.9Z"/><path class="cls-10" d="M208.35,501.3c.21,0,.24.7.09,1.47s-.44,1.37-.65,1.33-.24-.7-.08-1.47S208.15,501.26,208.35,501.3Z"/><path class="cls-10" d="M209.48,495.7c.2,0,.23.7.08,1.47s-.44,1.37-.65,1.33-.23-.7-.08-1.48S209.27,495.66,209.48,495.7Z"/><path class="cls-10" d="M210.6,490.09c.2,0,.24.7.08,1.48s-.44,1.36-.64,1.32-.24-.7-.09-1.47S210.39,490.05,210.6,490.09Z"/><path class="cls-10" d="M211.72,484.49c.2,0,.24.7.08,1.47s-.44,1.37-.64,1.33-.24-.7-.09-1.47S211.52,484.45,211.72,484.49Z"/><path class="cls-10" d="M212.84,478.88c.2,0,.24.7.08,1.48s-.44,1.37-.64,1.33-.24-.7-.09-1.48S212.64,478.84,212.84,478.88Z"/><path class="cls-10" d="M214,473.28c.2,0,.24.7.08,1.47s-.44,1.37-.64,1.33-.24-.7-.09-1.47S213.76,473.24,214,473.28Z"/><path class="cls-10" d="M215.08,467.68c.2,0,.24.7.09,1.47s-.45,1.37-.65,1.33-.24-.7-.08-1.48S214.88,467.64,215.08,467.68Z"/><path class="cls-10" d="M216.2,462.07c.2,0,.24.7.09,1.48s-.45,1.36-.65,1.32-.24-.7-.08-1.47S216,462,216.2,462.07Z"/><path class="cls-10" d="M217.32,456.47c.2,0,.24.7.09,1.47s-.45,1.37-.65,1.33-.24-.7-.08-1.47S217.12,456.43,217.32,456.47Z"/><path class="cls-10" d="M218.44,450.86c.21,0,.24.7.09,1.48s-.45,1.37-.65,1.33-.24-.7-.08-1.48S218.24,450.82,218.44,450.86Z"/><path class="cls-10" d="M219.56,445.26c.21,0,.24.7.09,1.47s-.44,1.37-.65,1.33-.23-.7-.08-1.47S219.36,445.22,219.56,445.26Z"/><path class="cls-10" d="M220.69,439.66c.2,0,.24.7.08,1.47s-.44,1.37-.64,1.33-.24-.7-.09-1.48S220.48,439.62,220.69,439.66Z"/><path class="cls-10" d="M221.81,434.05c.2,0,.24.7.08,1.48s-.44,1.36-.64,1.32-.24-.7-.09-1.47S221.61,434,221.81,434.05Z"/><path class="cls-10" d="M222.93,428.45c.2,0,.24.7.08,1.47s-.44,1.37-.64,1.33-.24-.7-.09-1.47S222.73,428.41,222.93,428.45Z"/><path class="cls-10" d="M224.05,422.84c.2,0,.24.7.08,1.48s-.44,1.37-.64,1.33-.24-.7-.09-1.48S223.85,422.8,224.05,422.84Z"/><path class="cls-10" d="M225.17,417.24c.2,0,.24.7.08,1.47s-.44,1.37-.64,1.33-.24-.7-.08-1.47S225,417.2,225.17,417.24Z"/><path class="cls-10" d="M226.29,411.64c.2,0,.24.7.09,1.47s-.45,1.37-.65,1.33-.24-.7-.08-1.48S226.09,411.6,226.29,411.64Z"/><path class="cls-10" d="M227.41,406c.2,0,.24.7.09,1.48s-.45,1.36-.65,1.32-.24-.7-.08-1.47S227.21,406,227.41,406Z"/><path class="cls-10" d="M228.53,400.43c.2,0,.24.7.09,1.47s-.45,1.37-.65,1.33-.24-.7-.08-1.47S228.33,400.39,228.53,400.43Z"/><path class="cls-10" d="M229.65,394.82c.21,0,.24.7.09,1.48s-.44,1.37-.65,1.33-.24-.7-.08-1.48S229.45,394.78,229.65,394.82Z"/><path class="cls-10" d="M230.78,389.22c.2,0,.23.7.08,1.47s-.44,1.37-.65,1.33-.23-.7-.08-1.47S230.57,389.18,230.78,389.22Z"/><path class="cls-10" d="M231.9,383.62c.2,0,.24.7.08,1.47s-.44,1.37-.64,1.33-.24-.7-.09-1.48S231.7,383.58,231.9,383.62Z"/><path class="cls-10" d="M233,378c.2,0,.24.7.08,1.48s-.44,1.36-.64,1.32-.24-.7-.09-1.47S232.82,378,233,378Z"/><path class="cls-10" d="M234.14,372.41c.2,0,.24.7.08,1.47s-.44,1.37-.64,1.33-.24-.7-.09-1.47S233.94,372.37,234.14,372.41Z"/><path class="cls-13" d="M346.2,199.59s9.51-14.26,9.76-14.39h0s8.59-14.46,11.44-14.46,1.83,2.93-1.12,8.11c-2.59,4.54-2.85,7.38-2.85,7.38l7.05,4.25s4.71-1.82,4.91,2.57a30,30,0,0,1-.81,6c-.29,1.57-1,3.24-2.47,2.65a1.84,1.84,0,0,1-1.26-1.77c-.09-2.6.39-3.55.06-3.55S365.84,210,365.84,210Z"/><path class="cls-13" d="M365.4,188.39a14.06,14.06,0,0,1,2.26-1.35,4.68,4.68,0,0,1,2.57-.4,2.07,2.07,0,0,1,1.7,2.93,6.82,6.82,0,0,1-1.15,1.94"/><path class="cls-13" d="M362.18,185.51a13.65,13.65,0,0,1,2.15-1.27,4.34,4.34,0,0,1,2.43-.37,1.93,1.93,0,0,1,1.61,2.75,18.25,18.25,0,0,1-2.19,2.82"/><path class="cls-13" d="M349.51,191.54l-13.74,29.39,15.15,15.49,7.89-21.91s4.24.84,6-2c1.93-3.14,4.46-12.19,4.46-12.19Z"/><path class="cls-14" d="M359.33,190.73c-.15,0,.2-2,1.63-4.07a7.27,7.27,0,0,1,2.35-2.08c.71-.39,1.19-.52,1.23-.43s-1.64,1.1-3,2.95S359.56,190.82,359.33,190.73Z"/><path class="cls-14" d="M374.58,190.85c-.06.1-.53-.16-1.33-.3a4.66,4.66,0,0,0-3,.46,7.28,7.28,0,0,0-2.24,2.22c-.49.68-.81,1.12-.91,1.06s.07-.56.46-1.34a6,6,0,0,1,2.33-2.59,4.41,4.41,0,0,1,3.49-.32C374.25,190.34,374.63,190.78,374.58,190.85Z"/><path class="cls-14" d="M369.46,186.7c0,.23-1.7.52-3.23,1.9s-2.29,3-2.5,2.85.3-1.88,2-3.41a5.83,5.83,0,0,1,2.53-1.32C369,186.56,369.45,186.61,369.46,186.7Z"/><path class="cls-14" d="M372.84,193.05c.19-.07.55,1.07-.17,2.21s-1.89,1.31-1.91,1.11.74-.61,1.28-1.51S372.63,193.08,372.84,193.05Z"/><path class="cls-13" d="M346.23,199s-.48-8.77,1.64-10.75,8.2.07,8.2.07"/><path class="cls-14" d="M356.92,184.15c.17.13-1.24,2.37-3.14,5s-3.57,4.68-3.75,4.56,1.24-2.35,3.15-5S356.76,184,356.92,184.15Z"/><path class="cls-13" d="M208.83,192.14c.21-1.17.5-2.54.91-4.14a12.27,12.27,0,0,1,1.73-3.85,18.8,18.8,0,0,1,3.37-4.05c1.3-1,.75-3-.72-3s-5.13,2.57-7.64,7.15-4-3.51-4.58-6.44-2.85-11.93-3.89-12.46c-1.54-.79-2.66.71-2,3.63s2,11.81.45,12-4.34-14.75-4.34-14.75-.08-3.3-1.9-3.08c-3.28.38.87,16.09,1.31,17.58.3,1-1.4,1.35-1.66.22s-2.45-15-5.79-14.65c-2.56.28,3.3,13,2.15,16.08s-3.47-10.06-5.9-9.7c-.91.14-1.57.37.86,7.75,1.17,3.58,5.74,20.36,5.74,20.36l-2.62,13.75,20.89,5.29Z"/><path class="cls-13" d="M235.24,117.64,235,186.1l29.37,1.4.85-16.65s10.43,2.07,13.12-7.62c1.72-6.19,1.29-54,1.29-54Z"/><path class="cls-9" d="M283.52,114c-4.62,1.32-5.63,8.88-5.63,8.88l-7.25,16c-3.7-2.89-8.66-2.73-9.6,3.77-.68,4.69,5.16,5.64,5.16,5.64-3.4,5.78-5.71,10.46-10.65,16-5.36,6-8.35,6.55-14.16,6.64H235s-3.14-10.17-8.94-35.61c-6.44-28.22,26.94-24.59,33.12-31.79C269.25,91.83,298.11,109.86,283.52,114Z"/><path class="cls-9" d="M226.66,138c-5.41-3.63-5.9-13.8-2.74-19.9a19.61,19.61,0,0,1,16.66-10.36,8,8,0,0,0,2.72-.3,7.58,7.58,0,0,0,2.93-2.78c4.83-6.28,9.58-12.46,18.59-12.46a10.22,10.22,0,0,1,5.67,1.41,8.91,8.91,0,0,1,3.4,4.5,19.81,19.81,0,0,1,5.27-1.9,6.53,6.53,0,0,1,5.29,1.29,4,4,0,0,1,.83,5.07,6.41,6.41,0,0,1,6.4,5.33c.47,3-3.83,5.12-4.28,5.35,0,0,2.36,4.95-3.27,7.91-2.27,1.2-5.23-.24-5.56-.41"/><path class="cls-10" d="M248.1,144.59c.19,0,.48,2.36-.17,5.2s-1.91,4.87-2.07,4.77.74-2.2,1.35-4.93S247.88,144.6,248.1,144.59Z"/><path class="cls-10" d="M251.65,141.24c.2,0,.25,2.27-.27,5s-1.36,4.83-1.55,4.77.32-2.23.82-4.91S251.44,141.22,251.65,141.24Z"/><path class="cls-10" d="M261.83,129.94c.07.1-.77.7-1.82,1.94a18.71,18.71,0,0,0-3.17,5.46,47.7,47.7,0,0,0-1.75,6.16,10,10,0,0,1-.73,2.59,9.09,9.09,0,0,1,.21-2.69,30.36,30.36,0,0,1,1.58-6.33,16,16,0,0,1,3.47-5.55A5.62,5.62,0,0,1,261.83,129.94Z"/><path class="cls-10" d="M265.94,122.25a3.8,3.8,0,0,1,.57,1.85,12.24,12.24,0,0,1-.26,4.67,12,12,0,0,1-2,4.24c-.72,1-1.31,1.43-1.37,1.37s1.8-2.35,2.63-5.79S265.71,122.28,265.94,122.25Z"/><path class="cls-10" d="M230.89,139.34c-.1.18-1-.13-2-.69s-1.75-1.17-1.65-1.35,1,.13,2,.7S231,139.16,230.89,139.34Z"/><path class="cls-10" d="M245.08,132c.19,0,.07,1.48-.84,3s-2.13,2.29-2.25,2.13.79-1.13,1.61-2.51S244.87,132,245.08,132Z"/><path class="cls-10" d="M249.44,129.69c.19,0-.12,1.78-1.31,3.56s-2.66,2.74-2.77,2.59,1-1.32,2.15-3S249.23,129.63,249.44,129.69Z"/><path class="cls-10" d="M271.13,101c-.06.06-.56-.42-1.61-1a10.88,10.88,0,0,0-4.93-1.27,13.11,13.11,0,0,0-7.21,1.94,17.75,17.75,0,0,0-6.15,6.85,30.7,30.7,0,0,0-2.5,6.42l-.12.43-.39-.21a14.62,14.62,0,0,0-6.55-1.68,15.75,15.75,0,0,0-5.34.81,22.48,22.48,0,0,0-4.35,2.18,3.92,3.92,0,0,1,1-.87,13.27,13.27,0,0,1,3.22-1.73,15.25,15.25,0,0,1,5.49-1,15,15,0,0,1,6.88,1.66l-.51.22a30.78,30.78,0,0,1,2.53-6.59,18.21,18.21,0,0,1,6.45-7.08,13.52,13.52,0,0,1,7.6-1.88,10.44,10.44,0,0,1,5,1.55,6.75,6.75,0,0,1,1.13.9C271,100.88,271.14,101,271.13,101Z"/><path class="cls-10" d="M286.57,104.75c-.05,0,.82-.22,1.68.76a2.88,2.88,0,0,1,.68,2.14,3.31,3.31,0,0,1-1.71,2.44,4.83,4.83,0,0,1-3.56.49A10.4,10.4,0,0,1,280,108.8a33.57,33.57,0,0,0-3.6-2.47,14.74,14.74,0,0,0-4.33-1.52,18.36,18.36,0,0,0-8.86.6,24.2,24.2,0,0,0-6.54,3.33c-3.43,2.47-5.12,4.53-5.23,4.42a7.79,7.79,0,0,1,1.16-1.44,27.48,27.48,0,0,1,3.76-3.4,23.33,23.33,0,0,1,6.64-3.56,18.6,18.6,0,0,1,9.2-.68,15.74,15.74,0,0,1,4.56,1.61,34.63,34.63,0,0,1,3.64,2.55,9.9,9.9,0,0,0,3.42,1.74,4.34,4.34,0,0,0,3.17-.34,2.93,2.93,0,0,0,1.56-2,2.69,2.69,0,0,0-.49-1.91A2.59,2.59,0,0,0,286.57,104.75Z"/><path class="cls-8" d="M205.39,189.44,169.5,253.61a18.22,18.22,0,0,0,2.77,17.06l-.74-1.07a15.3,15.3,0,0,0,11.91,5.69h.68a15.32,15.32,0,0,0,14-9.21l8.43-12.79Z"/><path class="cls-8" d="M283.12,184.85c-7.05-3.59-14-4.41-21.58-4.63-8.84-.26-21.29-1.49-30.81-.48,0,0-29-.89-29.13,21.59l3.83,86.3-6.21,37,86.92,2.63-.63-43.64c1.08-22.7-1.21-54.85-1.21-54.85,1.33-12.2,8-17.7,9-25.63C294.1,196.1,289.41,188.07,283.12,184.85Z"/><path class="cls-9" d="M258.62,288.88a6.47,6.47,0,0,1-1.28,1.21,28.53,28.53,0,0,1-4,2.72,31.69,31.69,0,0,1-30.53.54,27.15,27.15,0,0,1-4-2.58,6.71,6.71,0,0,1-1.32-1.16c.08-.12,2,1.51,5.61,3.27a32.75,32.75,0,0,0,30-.53C256.66,290.46,258.53,288.77,258.62,288.88Z"/><path class="cls-9" d="M201.6,201.33a4.09,4.09,0,0,1,.1.85c0,.64.09,1.45.15,2.44.1,2.22.24,5.26.41,9,.32,7.66.76,18.09,1.24,29.61s1,21.94,1.34,29.61c.19,3.71.35,6.75.46,9,0,1,.08,1.8.11,2.44a3.56,3.56,0,0,1,0,.86,4.17,4.17,0,0,1-.13-.85c-.07-.63-.15-1.44-.25-2.43-.2-2.11-.43-5.17-.69-9-.52-7.57-1.07-18-1.56-29.61s-.83-22-1-29.63c-.08-3.71-.14-6.76-.18-9,0-1,0-1.8,0-2.44A3.62,3.62,0,0,1,201.6,201.33Z"/><path class="cls-8" d="M183.37,208.79s-3.28,9.65-3.87,11c0,0-8.11,23.46-10.76,39.3l25.95-46.86C194.91,212.22,183.72,208.88,183.37,208.79Z"/><path class="cls-9" d="M196.16,206a3.2,3.2,0,0,1-.3.68l-1,1.88c-.88,1.62-2.18,4-3.85,6.79-3.3,5.7-8.26,13.34-13.28,22-2.5,4.33-4.63,8.63-6.47,12.55a23.12,23.12,0,0,0-2.52,11,17.56,17.56,0,0,0,2,7.37c.86,1.61,1.57,2.36,1.51,2.41a3.4,3.4,0,0,1-.53-.53,12.58,12.58,0,0,1-1.23-1.74,17.11,17.11,0,0,1-2.29-7.48c-.32-3.35.61-7.35,2.43-11.33s3.93-8.28,6.45-12.64c5-8.72,10.06-16.3,13.47-21.93,1.67-2.73,3-5,4.05-6.65.44-.73.81-1.32,1.11-1.81A2.67,2.67,0,0,1,196.16,206Z"/><path class="cls-8" d="M356,229.92l-20.11-13.16-12.7,22s-17.6-24.46-25.59-38.79c-7.36-13.19-16.88-16.74-21.47-17.7a2,2,0,0,0-2.44,2.23l6.94,47.56c.87,2.48,15.39,23.52,23.5,34.11,13.54,17.67,33.49,6.36,39-6C347.48,250.33,354.25,235.42,356,229.92Z"/><path class="cls-9" d="M329,258.6a15.23,15.23,0,0,1-.38-3.14,61.66,61.66,0,0,0-1-7.49,24.78,24.78,0,0,0-2.57-7c-.95-1.67-1.75-2.58-1.66-2.66a7.37,7.37,0,0,1,2.11,2.39,21,21,0,0,1,2.85,7.13,39.74,39.74,0,0,1,.76,7.62A12.33,12.33,0,0,1,329,258.6Z"/><path class="cls-9" d="M334.89,248.77c-.12,0-.21-1-.71-2.57a14.21,14.21,0,0,0-3.22-5.4,8.4,8.4,0,0,0-5.35-2.92,7.34,7.34,0,0,0-2.55.45c-.07-.05.77-.92,2.56-1s4.1,1,5.88,2.94a12.69,12.69,0,0,1,3.18,5.76A5.64,5.64,0,0,1,334.89,248.77Z"/><path class="cls-9" d="M274.85,188.14s-.15.21-.48.55l-.62.64-.77.93A19.5,19.5,0,0,0,269.5,197a26.48,26.48,0,0,0-.77,11.23,25.41,25.41,0,0,0,1.73,6.43,71,71,0,0,0,3.25,6.46c4.93,8.64,10,16.12,13.66,21.52l4.42,6.35a22.91,22.91,0,0,1,1.59,2.34s-.19-.16-.5-.53-.77-.92-1.33-1.64c-1.13-1.44-2.71-3.56-4.61-6.22-3.78-5.33-8.93-12.77-13.88-21.46a68.74,68.74,0,0,1-3.27-6.54,24.94,24.94,0,0,1-1.73-6.62,26.16,26.16,0,0,1,.94-11.48,18.78,18.78,0,0,1,3.76-6.79l.83-.9.68-.58C274.63,188.27,274.83,188.12,274.85,188.14Z"/><g class="cls-12"><path d="M252.41,292.76c6.41-2.93,11.48-9.63,11.66-16.42a6.76,6.76,0,0,0-1.57-5.08c-1.9-1.88-5.1-1.53-7.46-.29-3.89,2-6.43,5.87-9.16,9.31s-6.19,6.82-10.56,7.23a27.24,27.24,0,0,1-5.62-.42,9.51,9.51,0,0,0-5.52.67c-1.67.88-2.86,2.87-2.28,4.66,0,0,7.68,4.78,15.69,4.22A45.32,45.32,0,0,0,252.41,292.76Z"/></g><path class="cls-9" d="M274.9,314.51a2.47,2.47,0,0,1-.61.26l-1.81.63c-.78.27-1.75.58-2.89.88s-2.43.71-3.88,1a98.14,98.14,0,0,1-10.27,1.88,108.48,108.48,0,0,1-12.75.85,112,112,0,0,1-12.77-.77,99.18,99.18,0,0,1-10.27-1.83c-1.46-.3-2.75-.69-3.89-1s-2.11-.61-2.9-.87l-1.81-.62a2.47,2.47,0,0,1-.61-.26,2.68,2.68,0,0,1,.66.12l1.85.48c.79.22,1.77.49,2.92.74s2.43.62,3.89.89c2.89.62,6.36,1.19,10.24,1.66a118.66,118.66,0,0,0,12.69.7,117.4,117.4,0,0,0,12.67-.78c3.88-.48,7.35-1.07,10.23-1.71,1.46-.28,2.75-.64,3.89-.91s2.12-.53,2.92-.76l1.84-.49A2.18,2.18,0,0,1,274.9,314.51Z"/><path class="cls-9" d="M623.29,598.47c0,.21-139.54.38-311.63.38S0,598.68,0,598.47s139.51-.37,311.66-.37S623.29,598.27,623.29,598.47Z"/></g></svg>