<svg id="Layer_1" data-name="Layer 1" xmlns="http://www.w3.org/2000/svg" xmlns:xlink="http://www.w3.org/1999/xlink" viewBox="0 0 606.32 606.32"><defs><style>.cls-1{fill:none;}.cls-2{clip-path:url(#clip-path);}.cls-3{fill:#e0e0e0;}.cls-4{fill:#fff;}.cls-5{fill:#f5f5f5;}.cls-6{fill:#ebebeb;}.cls-7{fill:#263238;}.cls-8{fill:#ffbe9d;}.cls-9{fill:#455a64;}.cls-10{fill:#e8505b;}.cls-11{fill:#eb996e;}.cls-12{opacity:0.3;}.cls-13{opacity:0.4;}.cls-14{opacity:0.2;}.cls-15{fill:#fafafa;}.cls-16{opacity:0.8;}.cls-17{opacity:0.5;}.cls-18{opacity:0.6;}.cls-19{opacity:0.7;}</style><clipPath id="clip-path"><circle class="cls-1" cx="303.16" cy="303.16" r="303.16"/></clipPath></defs><g class="cls-2"><polygon class="cls-3" points="220.86 -66.25 351.73 -66.25 351.73 123.49 221.76 123.49 220.86 -66.25"/><rect class="cls-4" x="211.05" y="-65.36" width="129.68" height="187.96" transform="translate(551.77 57.24) rotate(180)"/><path class="cls-3" d="M341.61-66.25V123.49H210.16V-66.25Zm-1.78,188V-64.47H211.94V121.71Z"/><rect class="cls-4" x="227.16" y="-45" width="97.45" height="147.25"/><path class="cls-3" d="M227.16-45s0,.25,0,.73,0,1.19,0,2.09c0,1.86,0,4.57,0,8.09,0,7.07.07,17.35.11,30.34.06,26,.13,62.72.21,106l-.42-.42,97.44,0h0l-.46.46c0-55.54.07-106.75.09-147.24l.37.37-70.9-.2-19.61-.09L229-45c-1.17,0-1.79,0-1.79,0s.57,0,1.71,0l5.08,0,19.53-.1,71.13-.19H325V-45c0,40.49.06,91.7.1,147.24v.47h-.48l-97.44,0h-.43v-.43c.09-43.38.16-80.24.21-106.27.05-12.95.09-23.2.12-30.25,0-3.47,0-6.15.05-8,0-.88,0-1.56,0-2S227.16-45,227.16-45Z"/><path class="cls-3" d="M210.68,122.6a15.94,15.94,0,0,1,2.1-3.23c1.38-1.92,3.35-4.54,5.62-7.37s4.4-5.31,6-7.06a14.87,14.87,0,0,1,2.76-2.69c.2.17-3.53,4.69-8,10.33S210.89,122.77,210.68,122.6Z"/><path class="cls-3" d="M340.72,122.6c-.2.16-3.93-4.22-8.33-9.78s-7.8-10.21-7.6-10.37,3.93,4.23,8.33,9.79S340.92,122.44,340.72,122.6Z"/><path class="cls-3" d="M282.17,30.77H265l-2,4.73a10.42,10.42,0,0,0-1,3.9,3.24,3.24,0,0,0,1.64,3,14.15,14.15,0,0,0,4.76.86v1.32H252.24V43.27a7.26,7.26,0,0,0,4.29-2.17c1.13-1.18,2.51-3.62,4.16-7.32L278.05-5h.68l17.51,39.81q2.5,5.65,4.12,7.13a5.6,5.6,0,0,0,3.43,1.29v1.32H280.31V43.27h1a7.43,7.43,0,0,0,4-.79,1.92,1.92,0,0,0,.78-1.65,4.43,4.43,0,0,0-.21-1.32c-.05-.22-.41-1.11-1.07-2.69ZM281,28.12,273.72,11.4l-7.45,16.72Z"/><path class="cls-3" d="M24.12,214.14a2.83,2.83,0,0,1,1.32-.16h.45l-.14.15c0-.52.07-.88.14-.88s.13.36.15.88v.14h-.6A3.08,3.08,0,0,1,24.12,214.14Z"/><path class="cls-3" d="M20.57,214.14c0-.09.4-.16.89-.16s.88.07.88.16-.39.15-.88.15S20.57,214.22,20.57,214.14Z"/><path class="cls-3" d="M17,214.14c0-.09.4-.16.89-.16s.88.07.88.16-.39.15-.88.15S17,214.22,17,214.14Z"/><path class="cls-3" d="M13.47,214.14c0-.09.4-.16.89-.16s.89.07.89.16-.4.15-.89.15S13.47,214.22,13.47,214.14Z"/><path class="cls-3" d="M9.92,214.14c0-.09.4-.16.89-.16s.89.07.89.16-.4.15-.89.15S9.92,214.22,9.92,214.14Z"/><path class="cls-3" d="M6.37,214.14c0-.09.4-.16.89-.16s.89.07.89.16-.4.15-.89.15S6.37,214.22,6.37,214.14Z"/><path class="cls-3" d="M2.82,214.14c0-.09.4-.16.89-.16s.89.07.89.16-.4.15-.89.15S2.82,214.22,2.82,214.14Z"/><path class="cls-3" d="M-.72,214.14c0-.09.39-.16.88-.16s.89.07.89.16-.4.15-.89.15S-.72,214.22-.72,214.14Z"/><ellipse class="cls-3" cx="0.39" cy="150.93" rx="0.89" ry="0.15"/><path class="cls-3" d="M4.82,150.93c0,.08-.39.15-.88.15s-.89-.07-.89-.15.4-.16.89-.16S4.82,150.84,4.82,150.93Z"/><path class="cls-3" d="M8.37,150.93c0,.08-.39.15-.88.15s-.89-.07-.89-.15.4-.16.89-.16S8.37,150.84,8.37,150.93Z"/><ellipse class="cls-3" cx="11.04" cy="150.93" rx="0.89" ry="0.15"/><path class="cls-3" d="M15.47,150.93c0,.08-.4.15-.89.15s-.88-.07-.88-.15.39-.16.88-.16S15.47,150.84,15.47,150.93Z"/><path class="cls-3" d="M19,150.93c0,.08-.4.15-.89.15s-.88-.07-.88-.15.39-.16.88-.16S19,150.84,19,150.93Z"/><ellipse class="cls-3" cx="21.68" cy="150.93" rx="0.89" ry="0.15"/><path class="cls-3" d="M25.89,151.15s-.07-.08-.1-.22l.1.1a3.86,3.86,0,0,1-.66.05c-.49,0-.89-.07-.89-.15s.4-.16.89-.16a3.86,3.86,0,0,1,.66,0l.12,0,0,.08C26,151.07,25.93,151.15,25.89,151.15Z"/><ellipse class="cls-3" cx="25.89" cy="153.81" rx="0.15" ry="0.89"/><path class="cls-3" d="M25.89,158.25c-.08,0-.15-.4-.15-.89s.07-.88.15-.88.16.39.16.88S26,158.25,25.89,158.25Z"/><path class="cls-3" d="M25.89,161.8c-.08,0-.15-.4-.15-.89s.07-.89.15-.89.16.4.16.89S26,161.8,25.89,161.8Z"/><ellipse class="cls-3" cx="25.89" cy="164.46" rx="0.15" ry="0.89"/><path class="cls-3" d="M25.89,168.9c-.08,0-.15-.4-.15-.89s.07-.89.15-.89.16.4.16.89S26,168.9,25.89,168.9Z"/><path class="cls-3" d="M25.89,172.45c-.08,0-.15-.4-.15-.89s.07-.89.15-.89.16.4.16.89S26,172.45,25.89,172.45Z"/><ellipse class="cls-3" cx="25.89" cy="175.11" rx="0.15" ry="0.89"/><path class="cls-3" d="M25.89,179.54c-.08,0-.15-.39-.15-.88s.07-.89.15-.89.16.4.16.89S26,179.54,25.89,179.54Z"/><path class="cls-3" d="M25.89,183.09c-.08,0-.15-.4-.15-.89s.07-.88.15-.88.16.39.16.88S26,183.09,25.89,183.09Z"/><ellipse class="cls-3" cx="25.89" cy="185.75" rx="0.15" ry="0.89"/><path class="cls-3" d="M25.89,190.19c-.08,0-.15-.4-.15-.89s.07-.88.15-.88.16.39.16.88S26,190.19,25.89,190.19Z"/><path class="cls-3" d="M25.89,193.74c-.08,0-.15-.4-.15-.89s.07-.89.15-.89.16.4.16.89S26,193.74,25.89,193.74Z"/><ellipse class="cls-3" cx="25.89" cy="196.4" rx="0.15" ry="0.89"/><ellipse class="cls-3" cx="25.89" cy="199.95" rx="0.15" ry="0.89"/><path class="cls-3" d="M25.89,204.39c-.08,0-.15-.4-.15-.89s.07-.89.15-.89.16.4.16.89S26,204.39,25.89,204.39Z"/><ellipse class="cls-3" cx="25.89" cy="207.05" rx="0.15" ry="0.89"/><ellipse class="cls-3" cx="25.89" cy="210.6" rx="0.15" ry="0.89"/><rect class="cls-3" x="23.55" y="211.16" width="4.68" height="4.68"/><rect class="cls-3" x="23.55" y="148.13" width="4.68" height="4.68"/><path class="cls-3" d="M609.81,438.37a4.52,4.52,0,1,1-4.51-4.52A4.51,4.51,0,0,1,609.81,438.37Z"/><path class="cls-5" d="M601.26,433.39s11.57-26,16.26-31.62c0,0,5.38,1.9,8.48,5.08,0,0-13.83,26.44-16.21,30.92Z"/><path class="cls-5" d="M602.18,443.82c.18.55,18.29,28,18.29,28l8-5.48-17.32-28.56Z"/><rect class="cls-4" x="597.83" y="184.12" width="53.33" height="91.48"/><rect class="cls-3" x="597.83" y="184.12" width="53.33" height="7.71"/><path class="cls-3" d="M609.09,252.23a36.77,36.77,0,0,1-5.42,0,36.77,36.77,0,0,1,5.42,0Z"/><path class="cls-3" d="M651.16,275.59s0-.15,0-.45,0-.73,0-1.3c0-1.15,0-2.84,0-5,0-4.4,0-10.81,0-18.9,0-16.15-.05-39-.08-65.79l.16.16H597.83l.17-.17c0,34.89,0,66.9,0,91.47l-.13-.13,38.9.07,10.67,0,2.8,0h0l-2.76,0-10.65,0-39,.07h-.14v-.13c0-24.57,0-56.58,0-91.47v-.18h.17l53.33,0h.16v.16c0,26.83-.06,49.71-.08,65.9,0,8.07,0,14.47,0,18.85,0,2.19,0,3.87,0,5,0,.56,0,1,0,1.28S651.16,275.59,651.16,275.59Z"/><path class="cls-6" d="M567.76,133.93h-5.15l-11.25-15.68V108s-8-.49-7,13-.07,10.05-.07,10.05-16.92.06-18.33,1.53c-1,1.07-1.48,17.88-1.66,27-.09,4.59,2.73,8.86,7,9.94a7.19,7.19,0,0,0,1.82.25c4.22,0,25.79-3.44,25.79-3.44h8.9Z"/><polygon class="cls-6" points="582.52 131.1 579.35 166.36 570.52 166.36 570.52 131.81 582.52 131.1"/><path class="cls-7" d="M705.18,605.51c0,.18-180.61.32-403.35.32s-403.39-.14-403.39-.32,180.57-.32,403.39-.32S705.18,605.34,705.18,605.51Z"/><path class="cls-8" d="M378.28,439.22c0,.66,3.52,4.91,2.12,9.56-.4,1.33-3.85,4-3.85,4l3.6,6.44-21.48,9.19-10.79-21.08,21.6-6.09Z"/><path class="cls-5" d="M365.61,414.67a9.46,9.46,0,0,0,2.09-13.53c-2.34-2.77-6.26-4.06-8-7.23-1.29-2.34-1.11-5.21-.58-7.84s1.36-5.22,1.27-7.9-1.41-5.53-3.91-6.48c-3.49-1.31-7.15,1.64-9.09,4.81a23.94,23.94,0,0,0-1.16,22.43c1.46,3.05,3.56,5.76,5.15,8.74s2.66,6.47,1.83,9.75"/><path class="cls-7" d="M355.66,381.4a17,17,0,0,0-1.48,4.43,12.86,12.86,0,0,0,.28,5,13,13,0,0,0,1.1,2.76,11.63,11.63,0,0,0,1.92,2.51c1.57,1.52,3.46,2.68,4.65,4.32a9.43,9.43,0,0,1,1.8,4.92,9.16,9.16,0,0,1-.39,3.5A3.78,3.78,0,0,1,363,410a12.38,12.38,0,0,0,.5-4.63,9.27,9.27,0,0,0-1.83-4.6c-1.12-1.52-3-2.64-4.62-4.22a12.17,12.17,0,0,1-2-2.67,13.39,13.39,0,0,1-1.12-2.91,12.64,12.64,0,0,1-.15-5.23,10.25,10.25,0,0,1,1.18-3.31A4,4,0,0,1,355.66,381.4Z"/><path class="cls-7" d="M349.94,381.83a16.12,16.12,0,0,0-1.48,4.44,12.49,12.49,0,0,0,.28,5,13.11,13.11,0,0,0,1.09,2.75,12.37,12.37,0,0,0,1.92,2.52c1.58,1.51,3.47,2.67,4.66,4.32a9.45,9.45,0,0,1,1.8,4.91,8.91,8.91,0,0,1-.4,3.5,3.52,3.52,0,0,1-.55,1.17,12.13,12.13,0,0,0,.5-4.63,9.19,9.19,0,0,0-1.82-4.6c-1.13-1.52-3-2.64-4.63-4.22a11.89,11.89,0,0,1-2-2.67,13.39,13.39,0,0,1-1.12-2.91,12.64,12.64,0,0,1-.15-5.23,10.52,10.52,0,0,1,1.17-3.31A3.81,3.81,0,0,1,349.94,381.83Z"/><path class="cls-5" d="M359,344.36a5.21,5.21,0,0,1,3.2,3.41,8.24,8.24,0,0,1-2.31,8.09,4.93,4.93,0,0,1-3.69,1.23,5.85,5.85,0,0,1-4.11-2.95,7.67,7.67,0,0,1-.26-8c1.51-2.36,5-3.39,7.34-1.81"/><path class="cls-9" d="M378,410.64l3.85,34.49a5.06,5.06,0,0,1-4.21,5.55l-21,3.5a5.06,5.06,0,0,1-5.81-4.08l-6.16-33.29Z"/><path class="cls-7" d="M361.55,419.48l1.23-.17,1.1,7.86-1.23.17Z"/><path class="cls-7" d="M364.7,445.35l-1.25.15-.39-1.41-1.52.19,0,1.45-1.13.14.31-8,1.81-.22Zm-3.13-2.16,1.2-.15-1.08-3.91Z"/><path class="cls-7" d="M367.86,445a2.24,2.24,0,0,1-.23-1l-.15-1.23c-.09-.74-.37-1-.93-.91l-.43.05.39,3.21-1.24.15-.95-7.88,1.87-.22a1.59,1.59,0,0,1,2.05,1.59l.08.62a1.58,1.58,0,0,1-.62,1.69c.65.19.92.76,1,1.58l.15,1.22a2.25,2.25,0,0,0,.25.94Zm-2.16-6.59.29,2.42.48-.06c.46-.06.72-.29.64-.92L367,439c-.07-.56-.29-.79-.73-.73Z"/><path class="cls-7" d="M368.48,436.9l3.83-.45.13,1.12-1.29.15.81,6.75-1.24.15-.81-6.75-1.29.16Z"/><path class="cls-10" d="M364.26,430.82a6.93,6.93,0,0,0-2.14-1.94,1.6,1.6,0,0,0-2.31,2.11,4.18,4.18,0,0,0,1.11,1.3,20.64,20.64,0,0,0,4.24,2.77,10.55,10.55,0,0,0,2.56-4.38,3,3,0,0,0,.14-1.53,1.26,1.26,0,0,0-1.06-1,2.13,2.13,0,0,0-1.4.56,4.49,4.49,0,0,0-1.14,2.11"/><path class="cls-8" d="M378.32,413.93s-10.95,11.86-9.1,15.65c1.07,2.2,4,2,5.66-.09s3.84-4.63,5.33-6.41C382.16,420.73,381.88,413.65,378.32,413.93Z"/><path class="cls-8" d="M380.46,422.23s-10,9.7-8.33,12.95,4.56,1.3,6-.5,2.42-3.37,3.7-4.91C383.53,427.74,383.88,421.05,380.46,422.23Z"/><path class="cls-8" d="M381.22,430s-7.09,7.72-5.85,10.19,2.74,1.92,3.84.55,2.53-3,3.5-4.21C384,435,383.51,429.44,381.22,430Z"/><path class="cls-8" d="M347.88,447l-5.68-13.29,13.26-15s3.34,2.1,1.36,6.52-7,8.52-7,8.52l.36,13.29Z"/><path class="cls-9" d="M352.47,421.41c0,.34-2.64-.23-6.28,1.3a12.67,12.67,0,0,0-5.22,4.13,12,12,0,0,0,1.1,15,12.63,12.63,0,0,0,5.77,3.32c3.82,1,6.33,0,6.39.37,0,.1-.51.47-1.66.79a11.88,11.88,0,0,1-5,.16,13.28,13.28,0,0,1-6.72-3.4,13.28,13.28,0,0,1-1.27-17.3,13.13,13.13,0,0,1,6.16-4.34,11.64,11.64,0,0,1,5-.57C351.89,421,352.49,421.31,352.47,421.41Z"/><path class="cls-11" d="M380.89,421.72c.13.11-1.59,2.41-3.85,5.14s-4.21,4.86-4.34,4.75,1.59-2.42,3.85-5.15S380.75,421.6,380.89,421.72Z"/><path class="cls-11" d="M382,429.65c.14.1-1.05,2-2.79,4.18s-3.37,3.74-3.49,3.62,1.27-1.87,3-4S381.85,429.54,382,429.65Z"/><path class="cls-11" d="M375.07,453.91c.07.16-2.27,1.19-5.21,2.29s-5.37,1.87-5.43,1.71,2.27-1.19,5.21-2.3S375,453.74,375.07,453.91Z"/><path class="cls-7" d="M358,539.33s3.67-43.19,1.66-48.69-7.87-26.14-7.87-26.14L383.49,455s16.2,42.72,21.77,80.21Z"/><path class="cls-7" d="M348.64,568.06,309.5,524.24l-.4,53.26L320,605.84H202.42l-3.56-66.23-8.43-70.94a19.25,19.25,0,0,1,12.07-20.19l32.21-12.69,45.38,8.32,18.25,6.94a50,50,0,0,1,19.89,13.84l54.95,62.83"/><path class="cls-4" d="M306.75,513.76a61.26,61.26,0,0,0,6.62-.46,26.83,26.83,0,0,0,22-20.29c1-4,.81-6.56,1-6.56a5.93,5.93,0,0,1,.16,1.8,23,23,0,0,1-.51,4.91A26.24,26.24,0,0,1,313.46,514a22.8,22.8,0,0,1-4.93.11A5.74,5.74,0,0,1,306.75,513.76Z"/><path class="cls-9" d="M309.42,575.24c.28,0,.69-18.45.92-41.2s.19-41.21-.08-41.22-.68,18.44-.91,41.21S309.15,575.23,309.42,575.24Z"/><path class="cls-7" d="M305.89,588.78,235.16,560.3a16.16,16.16,0,0,1-10.08-13.76l-5.18-67.82s.61-28.84-17.4-30.24l-10.25,4c-13.25,7-16.53,26.32-14.72,41.21,2.56,21.16,3.63,51.1,6.49,69.46,2.35,15,10.95,28.23,25.65,32.1l86.1,11Z"/><path class="cls-9" d="M220.91,489.07a8.62,8.62,0,0,1,.23,1.55l.45,4.47c.36,4,.87,9.57,1.5,16.44s1.31,15.24,2.09,24.4q.3,3.45.6,7.06a52.6,52.6,0,0,0,.9,7.25,12,12,0,0,0,3.52,6.36,23.82,23.82,0,0,0,6.52,4.06c19.51,8.44,37.48,15.41,50.53,20.3l15.49,5.7,4.22,1.56a9,9,0,0,1,1.44.6,10.75,10.75,0,0,1-1.51-.42L302.62,587c-3.7-1.23-9-3.06-15.6-5.43-13.12-4.73-31.13-11.59-50.69-20.06a24.72,24.72,0,0,1-6.78-4.24,12.89,12.89,0,0,1-3.77-6.83,52.28,52.28,0,0,1-.9-7.38q-.28-3.62-.56-7.06c-.72-9.17-1.36-17.44-1.9-24.42s-.91-12.49-1.2-16.47c-.11-1.88-.2-3.38-.27-4.49A9.67,9.67,0,0,1,220.91,489.07Z"/><path class="cls-7" d="M210.64,573.39a10.23,10.23,0,0,1,1.28-3.77,24.33,24.33,0,0,1,14.35-12.26,10.4,10.4,0,0,1,3.93-.68c0,.16-1.46.45-3.71,1.31a27.61,27.61,0,0,0-14,11.94C211.31,572,210.79,573.44,210.64,573.39Z"/><path class="cls-4" d="M224.55,521.81a2.66,2.66,0,0,1,.45.2l1.26.67a45.36,45.36,0,0,0,5.05,2.14,40,40,0,0,0,19.83,1.69,39.17,39.17,0,0,0,24.64-15.31,32.52,32.52,0,0,0,6.45-16,21.86,21.86,0,0,0-.94-9.06,18.47,18.47,0,0,0-5.1-7.8,15.48,15.48,0,0,0-8.3-4,9.89,9.89,0,0,0-8.33,2.34,5.34,5.34,0,0,0-1.62,3.76,6.57,6.57,0,0,0,1.37,3.89c1.67,2.29,4.49,3.35,7.19,3.75A29.13,29.13,0,0,0,282,485.81a28.67,28.67,0,0,0,16.29-18.21,30.66,30.66,0,0,0,1.35-8.51,33.24,33.24,0,0,0-.4-5.45c-.11-.58-.19-1-.26-1.41a2,2,0,0,1-.06-.49,22.89,22.89,0,0,1,1.08,7.35,30.31,30.31,0,0,1-1.2,8.66A29.66,29.66,0,0,1,293.44,478a30.24,30.24,0,0,1-27.07,10.85c-2.81-.41-5.89-1.52-7.79-4.08a7.53,7.53,0,0,1-1.56-4.43,6.29,6.29,0,0,1,1.89-4.42,10.78,10.78,0,0,1,9.1-2.61,16.33,16.33,0,0,1,8.81,4.26,19.28,19.28,0,0,1,5.36,8.2,22.79,22.79,0,0,1,1,9.45,33.3,33.3,0,0,1-6.68,16.46,39.07,39.07,0,0,1-45.29,13.44A28.41,28.41,0,0,1,224.55,521.81Z"/><path class="cls-4" d="M178.22,503.73a6.06,6.06,0,0,1,1.16-1.45A26.51,26.51,0,0,1,183.2,499a32,32,0,0,1,15.65-5.54,30.05,30.05,0,0,1,9.22.39,28.69,28.69,0,0,1,7.11,2.49,32.43,32.43,0,0,1,4.32,2.63,6.64,6.64,0,0,1,1.42,1.2c-.1.15-2.22-1.45-6-3.22A29.63,29.63,0,0,0,199,494.35a33.63,33.63,0,0,0-15.37,5.16C180.08,501.84,178.35,503.86,178.22,503.73Z"/><path class="cls-4" d="M189.53,455.23c.14-.16,1.82,2.16,5.72,4.17a20.55,20.55,0,0,0,7.29,2.13A18.27,18.27,0,0,0,219,454.72a20.46,20.46,0,0,0,3.65-6.67c1.35-4.18.89-7,1.11-7A6.2,6.2,0,0,1,224,443a17.37,17.37,0,0,1-.7,5.26,20.07,20.07,0,0,1-3.61,7,18.59,18.59,0,0,1-17.24,7.14,20.31,20.31,0,0,1-7.51-2.41,17.51,17.51,0,0,1-4.22-3.23A6,6,0,0,1,189.53,455.23Z"/><path class="cls-4" d="M251.17,566.75a7.75,7.75,0,0,1,.14-1.34,14.41,14.41,0,0,1,1.26-3.66c1.43-3,5-6.87,10.59-9.2s13.13-3,20.79-.74c3.74,1.11,8,2.48,10.84,6.14a6.59,6.59,0,0,1,.8,6.65,10.67,10.67,0,0,1-5,4.76,16,16,0,0,1-6.7,1.65,9.74,9.74,0,0,1-6.43-2,8.19,8.19,0,0,1-2.88-5.83,14.58,14.58,0,0,1,1-6.13,27.52,27.52,0,0,1,14.58-14.75A28.5,28.5,0,0,1,304,539.92a19.34,19.34,0,0,1,5.08,1.07c0,.12-1.8-.48-5.11-.71a29.12,29.12,0,0,0-13.61,2.64,28.46,28.46,0,0,0-7.94,5.38,25.54,25.54,0,0,0-6.1,9.06,13.85,13.85,0,0,0-.88,5.76A7.28,7.28,0,0,0,278,568.3a8.8,8.8,0,0,0,5.82,1.77,15,15,0,0,0,6.29-1.56,9.71,9.71,0,0,0,4.61-4.3,5.62,5.62,0,0,0-.69-5.72,13.23,13.23,0,0,0-4.73-3.76,34,34,0,0,0-5.59-2.08c-7.51-2.22-14.88-1.82-20.31.52s-9,5.82-10.51,8.75A20.1,20.1,0,0,0,251.17,566.75Z"/><path class="cls-4" d="M204.07,592.28c0-.18,2.7-.4,6.79-1.86a33.82,33.82,0,0,0,21.69-24c1-4.21,1-6.94,1.18-6.93a7,7,0,0,1,.1,1.91,29,29,0,0,1-.62,5.17,32.62,32.62,0,0,1-22.14,24.49,28.47,28.47,0,0,1-5.09,1.14A6.2,6.2,0,0,1,204.07,592.28Z"/><path class="cls-4" d="M181.15,539.57a3.2,3.2,0,0,1,.85-.34c.57-.19,1.42-.45,2.53-.73a30.2,30.2,0,0,1,9.63-1,20,20,0,0,1,6.55,1.62,15.22,15.22,0,0,1,6.12,4.79,12.6,12.6,0,0,1,2.37,8.25,10,10,0,0,1-1.4,4.42,7,7,0,0,1-3.71,3.1,4.89,4.89,0,0,1-4.78-.94,6.44,6.44,0,0,1-1.65-4.41,18.86,18.86,0,0,1,1.67-8.41,18.42,18.42,0,0,1,10.32-9.79,18.62,18.62,0,0,1,9.62-.95,15.6,15.6,0,0,1,2.56.64,3.84,3.84,0,0,1,.84.37c0,.1-1.22-.37-3.46-.65a19.19,19.19,0,0,0-9.32,1.21,17.87,17.87,0,0,0-9.76,9.52,18.1,18.1,0,0,0-1.54,8,5.53,5.53,0,0,0,1.37,3.77,4,4,0,0,0,3.84.72,6.11,6.11,0,0,0,3.2-2.69,9.14,9.14,0,0,0,1.28-4,11.8,11.8,0,0,0-2.16-7.66,14.52,14.52,0,0,0-5.73-4.59,19.75,19.75,0,0,0-6.28-1.66,32.26,32.26,0,0,0-9.5.67C182.39,539.31,181.17,539.64,181.15,539.57Z"/><g class="cls-12"><path d="M285.56,580.69c-7.56-4.27-15-7.55-22.87-11.15s-15.65-8.2-20.83-15.18c-9.76-13.16-8.65-32.15-18.64-45.13q1,13.1,2,26.19c.59,8-.63,15.91,4.52,21.35,4.34,4.58,12.81,8.1,18.8,10.07,12.05,4,25,9.88,37.06,13.85"/></g><path class="cls-4" d="M391.23,475.21a5.86,5.86,0,0,1-.88.55c-.6.33-1.44.86-2.51,1.56a38.18,38.18,0,0,0-8,7.31,36.1,36.1,0,0,0-7.17,14.24,17.72,17.72,0,0,0-.08,9.29,10,10,0,0,0,2.47,4.18,8.63,8.63,0,0,0,4.29,2.48,6.42,6.42,0,0,0,4.78-.77,8,8,0,0,0,3.13-3.63,7.79,7.79,0,0,0,.6-4.59,9.27,9.27,0,0,0-1.86-4.09,11.11,11.11,0,0,0-7.14-4.11,14.7,14.7,0,0,0-7.29.82,19,19,0,0,0-5.33,3,27.83,27.83,0,0,0-3.4,3.2c-.86.95-1.49,1.73-1.91,2.27a5.86,5.86,0,0,1-.66.79,1.3,1.3,0,0,1,.13-.23c.1-.15.23-.36.43-.64a27.54,27.54,0,0,1,1.83-2.35A25.8,25.8,0,0,1,366,501.2a18.9,18.9,0,0,1,5.39-3.17,15.09,15.09,0,0,1,7.53-.92,11.59,11.59,0,0,1,7.52,4.27,9.84,9.84,0,0,1,2,4.34,8.48,8.48,0,0,1-.63,4.95,8.65,8.65,0,0,1-3.37,3.92,7.11,7.11,0,0,1-5.25.85,9.26,9.26,0,0,1-4.6-2.66,10.48,10.48,0,0,1-2.61-4.44,18.28,18.28,0,0,1,.1-9.61,36.38,36.38,0,0,1,15.6-21.61,28.25,28.25,0,0,1,2.59-1.47A6.11,6.11,0,0,1,391.23,475.21Z"/><path class="cls-9" d="M257,605.84a7,7,0,0,1-1.05-.2l-3-.63-11-2.16c-4.64-.9-10.18-2-16.3-3.24-3.07-.64-6.28-1.34-9.59-2.13A62.49,62.49,0,0,1,206,594.42a34,34,0,0,1-15.55-12.94A51.37,51.37,0,0,1,184.32,566a73.77,73.77,0,0,1-1.7-11.09c-.09-1.32-.15-2.35-.15-3a6.15,6.15,0,0,1,0-1.06,7.38,7.38,0,0,1,.12,1.06c0,.69.14,1.71.27,3a80.94,80.94,0,0,0,1.89,11,51.89,51.89,0,0,0,6.15,15.27c3.25,5.3,8.73,9.81,15.3,12.67a64.17,64.17,0,0,0,10,3c3.3.8,6.51,1.51,9.57,2.16l16.27,3.37c4.63,1,8.38,1.75,11,2.36,1.29.31,2.28.55,2.95.74A5.14,5.14,0,0,1,257,605.84Z"/><path class="cls-8" d="M308,591.56l4.22-1.92,6.52-7.71a10,10,0,0,1,9.55-3.39l15.15,2.88-4.09,20H306.69Z"/><path class="cls-7" d="M324.19,340.62c-6.41-3.76-15.09.73-21.86-2.34-4.11-1.86-6.55-6.08-9.88-9.13-5-4.56-13-7-19.52-5.4s-11.09,3.87-13.43,10.2c-4.61-4.32-15.09.29-19.65,6s-5.39,12.64-5.31,20a96.92,96.92,0,0,0,7.75,36.9c.44,1,1.24,2.24,2.34,2,.76-.15,1.18-.95,1.47-1.67,2.52-6.1,3.25-12.77,4.22-19.3s2.26-13.2,5.72-18.82,9.56-10.06,16.16-9.82c4.87.19,9.35,2.85,12.94,6.15s6.49,7.27,9.81,10.85,7.22,6.86,11.91,8.18,10.31.3,13.35-3.52,2.21-10.46-2.2-12.54a9.59,9.59,0,0,0,6.18-17.77Z"/><path class="cls-8" d="M244.05,364.28,234,437.65a22,22,0,0,0,19.91,25h0a22,22,0,0,0,23.75-19c.75-5.53,1.39-10.13,1.51-10.69,0,0,18.92.81,22.81-17.49,1.88-8.85,4.27-27.38,6.24-44.17a34.83,34.83,0,0,0-27.8-38.21l-1.77-.36C259.29,330,246.21,344.91,244.05,364.28Z"/><path class="cls-11" d="M279.2,432.68s-11.78-1.38-22.56-11.58c0,0,3,14.33,21.65,16.34Z"/><path class="cls-7" d="M300.37,382.5a2.66,2.66,0,0,1-3.05,2.14,2.55,2.55,0,0,1-2.23-2.9,2.67,2.67,0,0,1,3.05-2.14A2.55,2.55,0,0,1,300.37,382.5Z"/><path class="cls-7" d="M302.43,379.5c-.39.28-2.08-1.59-4.9-2.15s-5.17.45-5.41,0c-.12-.18.33-.73,1.37-1.21a7.27,7.27,0,0,1,4.41-.45,7.07,7.07,0,0,1,3.82,2.13C302.45,378.7,302.62,379.38,302.43,379.5Z"/><path class="cls-7" d="M272.53,377.94a2.68,2.68,0,0,1-3.06,2.13,2.55,2.55,0,0,1-2.22-2.9A2.67,2.67,0,0,1,270.3,375,2.56,2.56,0,0,1,272.53,377.94Z"/><path class="cls-7" d="M274.61,374.49c-.39.27-2.08-1.59-4.9-2.15s-5.17.44-5.41,0c-.12-.18.33-.74,1.37-1.21a7.29,7.29,0,0,1,4.41-.45,7.07,7.07,0,0,1,3.82,2.13C274.63,373.69,274.8,374.37,274.61,374.49Z"/><path class="cls-7" d="M280.67,397.44c0-.16,1.83-.11,4.74.09.74.07,1.45.06,1.67-.41a3.79,3.79,0,0,0-.06-2.23q-.5-2.81-1-5.9c-1.4-8.4-2.26-15.24-1.92-15.3s1.75,6.71,3.14,15.11c.33,2.06.65,4,.94,5.92a4.26,4.26,0,0,1-.19,2.9,1.87,1.87,0,0,1-1.39.82,5.41,5.41,0,0,1-1.26-.08C282.42,397.94,280.65,397.6,280.67,397.44Z"/><path class="cls-7" d="M272,397.73c.46.07-.14,3.13,2,5.82s5.51,3,5.45,3.45c0,.2-.84.45-2.23.21a7.75,7.75,0,0,1-4.58-2.7,6.81,6.81,0,0,1-1.52-4.84C271.28,398.36,271.77,397.67,272,397.73Z"/><path class="cls-7" d="M277.55,363.58c-.43.72-3.17-.21-6.56-.47s-6.24.1-6.55-.67c-.13-.37.48-1,1.71-1.53a11.45,11.45,0,0,1,10,.88C277.25,362.52,277.74,363.24,277.55,363.58Z"/><path class="cls-7" d="M303,371.13c-.63.54-2.44-.51-4.77-1s-4.4-.43-4.72-1.19c-.13-.36.31-.94,1.29-1.38a6.76,6.76,0,0,1,4.09-.27,6.68,6.68,0,0,1,3.55,2.05C303.17,370.15,303.31,370.86,303,371.13Z"/><path class="cls-8" d="M242.83,378.17c-.28-.2-11.86-6.25-14,6.37s11,12.14,11.08,11.78S242.83,378.17,242.83,378.17Z"/><path class="cls-11" d="M236.89,390.89c0-.05-.24.12-.64.23a2.28,2.28,0,0,1-1.65-.24c-1.25-.71-2-3-1.71-5.3a7.48,7.48,0,0,1,1.14-3.05,2.59,2.59,0,0,1,1.94-1.41,1.15,1.15,0,0,1,1.2.82c.11.38,0,.62.05.65s.31-.17.29-.7a1.46,1.46,0,0,0-.36-.88,1.75,1.75,0,0,0-1.17-.52,3.11,3.11,0,0,0-2.62,1.57,7.6,7.6,0,0,0-1.35,3.39c-.34,2.56.56,5.16,2.3,6a2.41,2.41,0,0,0,2.07,0C236.82,391.19,236.93,390.92,236.89,390.89Z"/><path class="cls-7" d="M312.82,368.25a27,27,0,0,1-22.48-10c-3.71-4.67-6.07-10.8-11.31-13.64a15.24,15.24,0,0,0-11.71-.72,29.49,29.49,0,0,0-10.23,6.22c1.69,10-2.78,20-7.12,29.16a5.11,5.11,0,0,1-2,2.6c-1.71.84-3.76-.49-4.78-2.1-1.64-2.58-1.83-5.81-1.77-8.86a52.58,52.58,0,0,1,4.19-20.32,35.82,35.82,0,0,1,13.19-15.8,33.9,33.9,0,0,1,25.11-4.16,41.7,41.7,0,0,1,22,13.21,24.54,24.54,0,0,1,5.93,10.41"/><path class="cls-9" d="M328.58,346.09a2.66,2.66,0,0,1-.33,1.06,5.19,5.19,0,0,1-2.27,2.24,8.19,8.19,0,0,1-5,.63,13.37,13.37,0,0,1-3.07-.82,6.72,6.72,0,0,1-2.9-2.12,4.47,4.47,0,0,1-.86-3.85,4,4,0,0,1,3.3-2.67,5.05,5.05,0,0,1,2.31.16,4.22,4.22,0,0,1,2,1.4,5.8,5.8,0,0,1,1,4.76,6.72,6.72,0,0,1-2.89,4.21,10.32,10.32,0,0,1-5.06,1.67,16.89,16.89,0,0,1-10.49-3.31,48.23,48.23,0,0,1-8.16-7.44,59.67,59.67,0,0,0-7.34-7.05,18.9,18.9,0,0,0-8.19-3.82,18.05,18.05,0,0,0-7.89.43,22.6,22.6,0,0,0-9.84,5.9,29.7,29.7,0,0,0-2.12,2.34,8,8,0,0,1-.72.85s0-.09.14-.25.26-.38.48-.68a25.58,25.58,0,0,1,2.05-2.44,22.38,22.38,0,0,1,9.88-6.16,18.5,18.5,0,0,1,8.1-.51,19.45,19.45,0,0,1,8.47,3.87,61.7,61.7,0,0,1,7.44,7.1,48,48,0,0,0,8.06,7.33,16.26,16.26,0,0,0,10.09,3.22,9.77,9.77,0,0,0,4.76-1.55,6.11,6.11,0,0,0,2.66-3.83,5.25,5.25,0,0,0-.85-4.3,3.87,3.87,0,0,0-3.76-1.38,3.46,3.46,0,0,0-2.91,2.28,4.05,4.05,0,0,0,.75,3.46,6.48,6.48,0,0,0,2.69,2,14,14,0,0,0,3,.84,8,8,0,0,0,4.84-.5,5.24,5.24,0,0,0,2.27-2.08A10.19,10.19,0,0,0,328.58,346.09Z"/><path class="cls-9" d="M235.45,350.35a21.32,21.32,0,0,0,3.63,1.76,11,11,0,0,0,4.3.4,18.54,18.54,0,0,0,5.15-1.32,14.93,14.93,0,0,0,7.08-6.36,31.16,31.16,0,0,0,1.61-3.71,3,3,0,0,1-.15,1.09,12.76,12.76,0,0,1-1.06,2.84,14.58,14.58,0,0,1-7.23,6.72,17.83,17.83,0,0,1-5.36,1.33,11.11,11.11,0,0,1-4.48-.56,10.56,10.56,0,0,1-2.67-1.44A3.34,3.34,0,0,1,235.45,350.35Z"/><path class="cls-9" d="M234.19,359.54c0-.11,1.44.5,3.83.84a17.52,17.52,0,0,0,16.57-6.75c1.47-1.91,2-3.33,2.15-3.28a3.39,3.39,0,0,1-.34,1A15.15,15.15,0,0,1,255,353.9a16.93,16.93,0,0,1-17,6.93,14.08,14.08,0,0,1-2.81-.81A3.14,3.14,0,0,1,234.19,359.54Z"/><path class="cls-11" d="M262.85,384.6a.35.35,0,0,1,0-.69.35.35,0,0,1,0,.69Z"/><path class="cls-11" d="M268.48,384.46a.41.41,0,0,1,0-.8.41.41,0,0,1,0,.8Z"/><path class="cls-11" d="M272.13,385.09c-.18,0-.3-.25-.28-.54s.18-.5.35-.49.3.25.28.54S272.3,385.1,272.13,385.09Z"/><path class="cls-11" d="M264.82,388.51c-.17,0-.29-.15-.27-.26s.18-.17.35-.13.3.15.27.26S265,388.55,264.82,388.51Z"/><path class="cls-11" d="M270,388.35a.34.34,0,0,1-.27-.39.33.33,0,0,1,.35-.32.36.36,0,0,1-.08.71Z"/><ellipse class="cls-11" cx="296.32" cy="390.06" rx="0.32" ry="0.36"/><path class="cls-11" d="M300.05,390.82a.41.41,0,1,1,.36-.37A.37.37,0,0,1,300.05,390.82Z"/><path class="cls-11" d="M293.05,389.86a.28.28,0,1,1,0-.55.28.28,0,1,1,0,.55Z"/><path class="cls-11" d="M295,394.08a.35.35,0,0,1-.39-.29.35.35,0,0,1,.23-.43.36.36,0,0,1,.39.29A.34.34,0,0,1,295,394.08Z"/><path class="cls-11" d="M298.3,394.08a.27.27,0,1,1,.24-.48.3.3,0,0,1,.17.38A.3.3,0,0,1,298.3,394.08Z"/><path class="cls-7" d="M231.19,393.3a7.56,7.56,0,0,0-.91,2.78,4.15,4.15,0,0,0,.84,2.89,3.81,3.81,0,0,0,3.2,1.57,3.52,3.52,0,0,0,2.93-2,4.49,4.49,0,0,0,.07-3,6.26,6.26,0,0,0-1.4-2.57c0-.1,1.22.55,1.83,2.43a4.81,4.81,0,0,1,0,3.4,4,4,0,0,1-3.42,2.34,4.34,4.34,0,0,1-3.71-1.85,4.57,4.57,0,0,1-.82-3.29,5,5,0,0,1,.79-2.13C230.93,393.46,231.16,393.27,231.19,393.3Z"/><path class="cls-7" d="M231.65,391.18c0-.05.43.25.53,1a1.84,1.84,0,0,1-.32,1.26,1.88,1.88,0,0,1-1.39.82,1.75,1.75,0,0,1-1.48-.69,1.43,1.43,0,0,1-.22-1.32c.26-.75.83-.84.83-.76s-.32.3-.4.87a1.07,1.07,0,0,0,.24.85,1.26,1.26,0,0,0,1,.41,1.37,1.37,0,0,0,1-.53,1.55,1.55,0,0,0,.34-.9C231.76,391.6,231.56,391.23,231.65,391.18Z"/><polygon class="cls-9" points="455.63 526.74 419.96 605.84 264.63 605.84 265.27 601.82 319.1 600.91 346.23 527.09 455.63 526.74"/><path class="cls-6" d="M384.57,562.58a6.13,6.13,0,0,1,5-.41,6.26,6.26,0,0,1,3.84,4.2c.91,3.77-2.24,6.91-5.62,7.09a5.68,5.68,0,0,1-5.7-3.76c-.68-2.36.08-5.88,2.51-7.12"/><rect class="cls-5" x="359.53" y="32.45" width="21.46" height="25.52"/><rect class="cls-10" x="263.27" y="30.79" width="97" height="28.79"/><path class="cls-10" d="M381.65,33.21h-24V30.79h24A1.21,1.21,0,0,1,382.86,32h0A1.22,1.22,0,0,1,381.65,33.21Z"/><path class="cls-10" d="M381.65,59.57h-24V57.15h24a1.21,1.21,0,0,1,1.21,1.21h0A1.21,1.21,0,0,1,381.65,59.57Z"/><g class="cls-13"><rect x="341.18" y="30.79" width="11.46" height="28.79"/></g><g class="cls-13"><rect x="271.88" y="30.79" width="11.46" height="28.79"/></g><path class="cls-3" d="M381,36.67c0,.07-4.65.13-10.38.13s-10.37-.06-10.37-.13,4.64-.13,10.37-.13S381,36.6,381,36.67Z"/><path class="cls-3" d="M381,40.5c0,.07-4.65.12-10.38.12s-10.37,0-10.37-.12,4.64-.13,10.37-.13S381,40.43,381,40.5Z"/><path class="cls-3" d="M381,45.21c0,.07-4.65.12-10.38.12s-10.37,0-10.37-.12,4.64-.13,10.37-.13S381,45.14,381,45.21Z"/><path class="cls-3" d="M381,49.92c0,.07-4.65.13-10.38.13s-10.37-.06-10.37-.13,4.64-.13,10.37-.13S381,49.85,381,49.92Z"/><path class="cls-3" d="M381,54.63c0,.07-4.65.13-10.38.13s-10.37-.06-10.37-.13,4.64-.13,10.37-.13S381,54.56,381,54.63Z"/><g class="cls-14"><rect x="291.38" y="42.62" width="43.64" height="5.18"/></g><rect class="cls-15" x="358.98" y="60.13" width="21.79" height="15.55"/><rect class="cls-9" x="266.48" y="59.57" width="92.75" height="16.68"/><path class="cls-9" d="M358.55,60.7H382a.56.56,0,0,0,.56-.57h0a.56.56,0,0,0-.56-.56H358.55Z"/><path class="cls-9" d="M358.55,75.12h23.57a.42.42,0,0,1,.42.42v.29a.42.42,0,0,1-.42.42H358.55a0,0,0,0,1,0,0V75.12A0,0,0,0,1,358.55,75.12Z"/><path class="cls-3" d="M380.78,63.09c0,.07-4.83.13-10.78.13s-10.77-.06-10.77-.13S364.05,63,370,63,380.78,63,380.78,63.09Z"/><path class="cls-3" d="M380.78,66c0,.07-4.83.13-10.78.13s-10.77-.06-10.77-.13,4.82-.13,10.77-.13S380.78,66,380.78,66Z"/><path class="cls-3" d="M380.78,69c0,.07-4.83.13-10.78.13S359.23,69,359.23,69s4.82-.13,10.77-.13S380.78,68.9,380.78,69Z"/><path class="cls-3" d="M380.78,71.91c0,.07-4.83.13-10.78.13s-10.77-.06-10.77-.13,4.82-.13,10.77-.13S380.78,71.84,380.78,71.91Z"/><rect class="cls-6" x="361.84" y="77.73" width="22.24" height="42.15"/><rect class="cls-10" x="257.42" y="76.25" width="104.41" height="45.7"/><path class="cls-10" d="M385.82,122H359v-3h26.84a1.49,1.49,0,0,1,1.49,1.48h0A1.49,1.49,0,0,1,385.82,122Z"/><path class="cls-10" d="M359,76.25H386.2a1.1,1.1,0,0,1,1.1,1.1v.76a1.1,1.1,0,0,1-1.1,1.1H359a0,0,0,0,1,0,0v-3A0,0,0,0,1,359,76.25Z"/><path class="cls-3" d="M384.08,83.38c0,.07-5,.13-11.12.13s-11.12-.06-11.12-.13,5-.13,11.12-.13S384.08,83.31,384.08,83.38Z"/><path class="cls-3" d="M384.08,88.78c0,.07-5,.13-11.12.13s-11.12-.06-11.12-.13,5-.12,11.12-.12S384.08,88.71,384.08,88.78Z"/><path class="cls-3" d="M384.08,94.19c0,.07-5,.13-11.12.13s-11.12-.06-11.12-.13,5-.13,11.12-.13S384.08,94.12,384.08,94.19Z"/><path class="cls-3" d="M384.08,99.6c0,.07-5,.12-11.12.12s-11.12,0-11.12-.12,5-.13,11.12-.13S384.08,99.52,384.08,99.6Z"/><path class="cls-3" d="M384.08,105c0,.07-5,.13-11.12.13s-11.12-.06-11.12-.13,5-.13,11.12-.13S384.08,104.93,384.08,105Z"/><path class="cls-3" d="M384.08,110.41c0,.07-5,.12-11.12.12s-11.12,0-11.12-.12,5-.13,11.12-.13S384.08,110.34,384.08,110.41Z"/><path class="cls-3" d="M384.08,115.81c0,.07-5,.13-11.12.13s-11.12-.06-11.12-.13,5-.13,11.12-.13S384.08,115.74,384.08,115.81Z"/><path class="cls-6" d="M293.15,101.6v2.54c0,3.06-1.53,4.81-4.48,4.81s-4.48-1.75-4.48-4.81v-10c0-3.07,1.53-4.81,4.48-4.81s4.48,1.74,4.48,4.81v1.86h-2.84V94c0-1.37-.6-1.89-1.56-1.89s-1.56.52-1.56,1.89v10.33c0,1.37.61,1.86,1.56,1.86s1.56-.49,1.56-1.86V101.6Z"/><path class="cls-6" d="M294.74,94.19c0-3.07,1.61-4.81,4.56-4.81s4.57,1.74,4.57,4.81v10c0,3.06-1.61,4.81-4.57,4.81s-4.56-1.75-4.56-4.81Zm3,10.14c0,1.37.6,1.89,1.55,1.89s1.56-.52,1.56-1.89V94c0-1.37-.6-1.89-1.56-1.89s-1.55.52-1.55,1.89Z"/><path class="cls-6" d="M305.81,89.59h3V106h4.95v2.73h-8Z"/><path class="cls-6" d="M314.83,94.19c0-3.07,1.61-4.81,4.57-4.81S324,91.12,324,94.19v10c0,3.06-1.61,4.81-4.56,4.81s-4.57-1.75-4.57-4.81Zm3,10.14c0,1.37.6,1.89,1.56,1.89s1.55-.52,1.55-1.89V94c0-1.37-.6-1.89-1.55-1.89s-1.56.52-1.56,1.89Z"/><path class="cls-6" d="M328.77,89.59v14.77c0,1.37.6,1.86,1.56,1.86s1.56-.49,1.56-1.86V89.59h2.84v14.58c0,3.06-1.53,4.81-4.48,4.81s-4.49-1.75-4.49-4.81V89.59Z"/><path class="cls-6" d="M343.07,108.73a5.78,5.78,0,0,1-.27-2.35v-3c0-1.77-.61-2.43-2-2.43h-1v7.79h-3V89.59h4.54c3.12,0,4.46,1.45,4.46,4.41v1.5c0,2-.63,3.25-2,3.88,1.5.63,2,2.08,2,4.08v3a5.62,5.62,0,0,0,.33,2.32Zm-3.28-16.4v5.88H341c1.12,0,1.81-.5,1.81-2V94.3c0-1.37-.47-2-1.53-2Z"/><path class="cls-7" d="M292.5,66.14h-2.19l.12-.57h5l-.12.57h-2.19L292,71.78h-.64Z"/><path class="cls-7" d="M299.68,67.11l-3.41,5.28c-.57.89-1,1.16-1.68,1.16a1.49,1.49,0,0,1-1.11-.42l.34-.46a1.05,1.05,0,0,0,.82.34c.4,0,.71-.19,1.08-.75l.32-.5-1.16-4.65h.64l1,4,2.55-4Z"/><path class="cls-7" d="M304.88,69.05a2.63,2.63,0,0,1-2.65,2.78,1.76,1.76,0,0,1-1.78-1l-.53,2.7h-.63l1.27-6.4h.6l-.15.75a2.37,2.37,0,0,1,1.82-.78A1.9,1.9,0,0,1,304.88,69.05Zm-.64,0a1.37,1.37,0,0,0-1.54-1.46,2,2,0,0,0-2,2.19,1.35,1.35,0,0,0,1.53,1.45A2,2,0,0,0,304.24,69.09Z"/><path class="cls-7" d="M305.61,69.85a2.65,2.65,0,0,1,2.7-2.77,1.91,1.91,0,0,1,2.12,2,2.65,2.65,0,0,1-2.7,2.78A1.92,1.92,0,0,1,305.61,69.85Zm4.19-.76a1.37,1.37,0,0,0-1.54-1.46,2,2,0,0,0-2,2.19,1.36,1.36,0,0,0,1.54,1.45A2,2,0,0,0,309.8,69.09Z"/><path class="cls-7" d="M316.47,67.11l-.81,4.11a2.49,2.49,0,0,1-2.72,2.33,3,3,0,0,1-2.08-.7l.38-.48A2.44,2.44,0,0,0,313,73a1.82,1.82,0,0,0,2-1.67l.11-.51a2.43,2.43,0,0,1-1.87.8,1.85,1.85,0,0,1-2.06-1.89,2.58,2.58,0,0,1,2.67-2.64,1.79,1.79,0,0,1,1.82,1.06l.19-1ZM315.41,69c0-.85-.58-1.36-1.55-1.36a2,2,0,0,0-2,2.06c0,.85.57,1.36,1.55,1.36A2,2,0,0,0,315.41,69Z"/><path class="cls-7" d="M320.59,67.08l-.11.61h-.18a1.84,1.84,0,0,0-1.89,1.73l-.47,2.37h-.63l.92-4.67h.6l-.16.86A2.1,2.1,0,0,1,320.59,67.08Z"/><path class="cls-7" d="M325.94,67.11,325,71.78h-.6l.15-.73a2.4,2.4,0,0,1-1.82.78,1.89,1.89,0,0,1-2-2,2.63,2.63,0,0,1,2.64-2.77,1.76,1.76,0,0,1,1.78,1l.19-1Zm-1,2a1.37,1.37,0,0,0-1.54-1.46,2,2,0,0,0-2,2.19,1.35,1.35,0,0,0,1.53,1.45A2,2,0,0,0,324.9,69.09Z"/><path class="cls-7" d="M332,69.05a2.62,2.62,0,0,1-2.64,2.78,1.76,1.76,0,0,1-1.78-1l-.53,2.7h-.63l1.27-6.4h.6l-.15.75a2.37,2.37,0,0,1,1.82-.78A1.89,1.89,0,0,1,332,69.05Zm-.64,0a1.36,1.36,0,0,0-1.53-1.46,2,2,0,0,0-2,2.19,1.36,1.36,0,0,0,1.54,1.45A2,2,0,0,0,331.36,69.09Z"/><path class="cls-7" d="M337.66,68.6a2.53,2.53,0,0,1-.06.53l-.53,2.65h-.63l.53-2.66a2.18,2.18,0,0,0,0-.42c0-.67-.4-1-1.21-1a1.82,1.82,0,0,0-1.9,1.63l-.5,2.5h-.63l1.32-6.58h.63l-.53,2.62a2.28,2.28,0,0,1,1.79-.74A1.47,1.47,0,0,1,337.66,68.6Z"/><path class="cls-7" d="M343.56,67.11l-3.41,5.28c-.58.89-1,1.16-1.69,1.16a1.51,1.51,0,0,1-1.11-.42l.34-.46a1.05,1.05,0,0,0,.82.34c.4,0,.71-.19,1.08-.75l.33-.5-1.17-4.65h.64l1,4,2.55-4Z"/><g class="cls-12"><polygon points="283.34 76.25 268.96 121.94 257.43 121.94 257.43 76.25 283.34 76.25"/></g><path class="cls-10" d="M315.14,9c-6.76-3.92-10.38-13-10.65-20.51s2.84-15.26,9-19.54c6.45-4.51,15.64-4.43,22.27-.18a23.18,23.18,0,0,1,10.21,20.12A26.71,26.71,0,0,1,335,9"/><path class="cls-4" d="M325.94,9.76a9.08,9.08,0,0,1-.13-1.71c0-1.22-.07-2.79-.13-4.66-.1-3.93-.25-9.36-.52-15.36s-.58-11.42-.83-15.34c-.11-1.87-.2-3.43-.28-4.65a9.89,9.89,0,0,1,0-1.72,9.12,9.12,0,0,1,.27,1.7c.14,1.09.3,2.67.48,4.63.36,3.92.75,9.35,1,15.35s.34,11.45.33,15.38c0,2,0,3.57-.07,4.67A9.81,9.81,0,0,1,325.94,9.76Z"/><path class="cls-7" d="M343.5,2.25c-.11.14-1-.39-1.88-1.33s-1.34-1.88-1.2-2,.83.65,1.66,1.54S343.61,2.11,343.5,2.25Z"/><path class="cls-7" d="M311,3c.08.16-.87.81-2.12,1.47s-2.34,1-2.42.9.87-.81,2.13-1.47A5.53,5.53,0,0,1,311,3Z"/><path class="cls-7" d="M320.86,2.68c.06.16-.81.66-1.95,1.11s-2.11.67-2.17.51.8-.66,1.94-1.1S320.8,2.52,320.86,2.68Z"/><path class="cls-7" d="M330.65,7.15c-.14.11-.7-.35-1.25-1s-.9-1.32-.76-1.43.69.35,1.25,1S330.78,7,330.65,7.15Z"/><path class="cls-7" d="M337,5.21c-.11.14-1-.4-1.95-1.33S333.54,2,333.68,1.93s.88.61,1.77,1.5S337.06,5.07,337,5.21Z"/><path class="cls-4" d="M323.93-34.39A28.3,28.3,0,0,0,318.38-30a27.11,27.11,0,0,0-6.93,15.3,34.65,34.65,0,0,0,.42,9.37,71.47,71.47,0,0,0,1.76,7.53c.61,2.11,1.16,3.81,1.54,5A10.2,10.2,0,0,1,315.7,9a10.76,10.76,0,0,1-.76-1.76c-.45-1.15-1.08-2.83-1.74-4.94a62.39,62.39,0,0,1-1.9-7.56,33.78,33.78,0,0,1-.48-9.55,26.7,26.7,0,0,1,7.23-15.53,19.91,19.91,0,0,1,4.15-3.24,10.68,10.68,0,0,1,1.27-.66C323.76-34.35,323.92-34.41,323.93-34.39Z"/><path class="cls-4" d="M332.58,9.44a71.46,71.46,0,0,0,2.85-6.81,38.58,38.58,0,0,0,1.7-17.5,33,33,0,0,0-2.7-9.34,22.17,22.17,0,0,0-4.6-6.41,16.92,16.92,0,0,0-4.51-2.85c-1.18-.49-1.88-.6-1.87-.66a1.58,1.58,0,0,1,.52,0,11.71,11.71,0,0,1,1.44.39A15.53,15.53,0,0,1,330.12-31a21.82,21.82,0,0,1,4.84,6.5,32.76,32.76,0,0,1,2.8,9.5,37.31,37.31,0,0,1-1.91,17.74c-.36,1.09-.82,2-1.16,2.88s-.75,1.53-1.06,2.09A11.72,11.72,0,0,1,332.58,9.44Z"/><polygon class="cls-7" points="308.02 7.94 342.97 7.94 343.18 14.94 308.02 14.94 308.02 7.94"/><polygon class="cls-7" points="310.99 11.44 313 32.79 338.55 32.79 340.6 11.67 310.99 11.44"/><path class="cls-9" d="M343.18,15c0,.17-7.87.32-17.57.32S308,15.19,308,15s7.87-.32,17.58-.32S343.18,14.84,343.18,15Z"/><path class="cls-9" d="M339.63,21.52a5.48,5.48,0,0,1-.75,1.34,19.22,19.22,0,0,1-2.71,3.2l-.16.15-.16-.17a50.48,50.48,0,0,0-6.85-6l.39,0-3,2.67-3.59,3.12-.19.18-.2-.17-5.84-4.91.34,0-3,3.68a8.41,8.41,0,0,1-1.18,1.3,8.24,8.24,0,0,1,1-1.46l2.86-3.82.14-.19.2.16,5.92,4.8h-.4l3.58-3.14,3-2.65.19-.17.2.15a43.81,43.81,0,0,1,6.81,6.19h-.32A34.78,34.78,0,0,0,339.63,21.52Z"/><rect class="cls-4" x="499.72" y="488.64" width="121.55" height="88.77"/><rect class="cls-10" x="499.72" y="488.64" width="121.55" height="11.09"/><path class="cls-4" d="M506.32,494.5a1.28,1.28,0,1,1-1.27-1.39A1.33,1.33,0,0,1,506.32,494.5Z"/><path class="cls-4" d="M511.46,494.5a1.28,1.28,0,1,1-1.27-1.39A1.33,1.33,0,0,1,511.46,494.5Z"/><path class="cls-4" d="M516.6,494.5a1.27,1.27,0,1,1-1.27-1.39A1.33,1.33,0,0,1,516.6,494.5Z"/><rect class="cls-10" x="511.27" y="510.6" width="17.32" height="43.58"/><rect class="cls-6" x="537.99" y="510.6" width="17.32" height="43.58"/><rect class="cls-15" x="564.7" y="510.6" width="17.32" height="43.58"/><rect class="cls-3" x="591.41" y="510.94" width="17.32" height="43.58"/><rect class="cls-10" x="509.27" y="558.99" width="105" height="9.96"/><polygon class="cls-7" points="606.28 566.91 608.54 578.9 610.39 575.55 614.38 581.53 616.38 580.19 612.39 574.21 616.05 573.65 606.28 566.91"/><path class="cls-7" d="M621.27,577.4s0-.56,0-1.63,0-2.65,0-4.71c0-4.14,0-10.19-.06-17.92,0-15.46-.07-37.62-.12-64.5l.23.22-121.54.05h0l.27-.27c0,31.84,0,62,0,88.76l-.25-.25,87.67.13,25,.06,6.63,0,1.71,0h.59l-.56,0H619l-6.58,0-24.89.07-87.84.12h-.25v-.25c0-26.73,0-56.92,0-88.76v-.28h.29l121.54.05h.23v.23c0,26.93-.09,49.14-.12,64.64,0,7.71,0,13.74-.06,17.87,0,2,0,3.6,0,4.67S621.27,577.4,621.27,577.4Z"/><path class="cls-10" d="M631.83,373c0,.42-31.24.77-69.76.77s-69.77-.35-69.77-.77,31.23-.77,69.77-.77S631.83,372.6,631.83,373Z"/><rect class="cls-10" x="560.47" y="370.04" width="8.24" height="8.24"/><circle class="cls-10" cx="492.3" cy="373.02" r="2.44"/><path class="cls-10" d="M552.76,350.45l10.43,19.48,1.34,0-.36-15.6a1.75,1.75,0,1,1,.66,0l.36,15.61,1.27,0,9.85-20.37c-7.58-.25-8.49-7.49-8.49-7.49l-7.34.11C560.65,349.42,552.76,350.45,552.76,350.45Z"/><path class="cls-10" d="M621.22,441.36a1.81,1.81,0,0,1,0-.51c0-.37,0-.86-.06-1.49,0-1.31-.12-3.24-.29-5.72A88.65,88.65,0,0,0,617,413a60.64,60.64,0,0,0-6-13.17,48.58,48.58,0,0,0-10.85-12.47,49.47,49.47,0,0,0-7.48-4.95,56.2,56.2,0,0,0-8.63-3.62,64.77,64.77,0,0,0-9.46-2.18,81.73,81.73,0,0,0-10-.83c-13.49-.51-26.5,3.57-35.8,10.66a47.24,47.24,0,0,0-11.25,12.11,56,56,0,0,0-6.25,13c-.4,1-.65,2.09-.95,3.1s-.59,2-.81,3c-.39,2-.86,3.79-1.12,5.54s-.51,3.36-.69,4.86-.26,2.88-.37,4.13-.16,2.34-.19,3.29-.07,1.76-.09,2.43S507,439,507,439.41a2.8,2.8,0,0,1-.05.5,2.81,2.81,0,0,1,0-.51c0-.36,0-.85,0-1.49s0-1.47,0-2.42,0-2.07.14-3.31l.3-4.14c.17-1.5.42-3.14.65-4.89s.7-3.6,1.08-5.58c.21-1,.52-2,.79-3a32.62,32.62,0,0,1,.94-3.13,55.73,55.73,0,0,1,6.23-13.18A47.26,47.26,0,0,1,528.43,386c9.41-7.21,22.53-11.34,36.18-10.83a81.07,81.07,0,0,1,10,.84,63.61,63.61,0,0,1,9.56,2.21,57,57,0,0,1,8.73,3.67,48.12,48.12,0,0,1,18.49,17.69,60.69,60.69,0,0,1,6,13.31,86.27,86.27,0,0,1,3.68,20.75c.13,2.49.18,4.43.17,5.74,0,.63,0,1.12,0,1.49A4.9,4.9,0,0,1,621.22,441.36Z"/><rect class="cls-7" x="462.51" y="218.01" width="5.31" height="8.28" transform="translate(-32.37 357.02) rotate(-40.7)"/><path class="cls-9" d="M468.25,217.3,460,224.43l-5.82-6.77a20.84,20.84,0,0,1,8.28-7.13Z"/><path class="cls-7" d="M461.34,223.23c-.13.12-1.6-1.36-3.29-3.3s-2.94-3.6-2.81-3.71,1.6,1.36,3.29,3.3S461.48,223.12,461.34,223.23Z"/><path class="cls-7" d="M462.92,221.88c-.13.11-1.58-1.46-3.25-3.49a25,25,0,0,1-2.84-3.83c.17-.16,1.66,1.4,3.33,3.43S463.06,221.77,462.92,221.88Z"/><path class="cls-7" d="M465,220.07c-.14.11-1.6-1.48-3.28-3.54a22.19,22.19,0,0,1-2.82-3.91c.15-.13,1.64,1.45,3.32,3.51S465.16,220,465,220.07Z"/><path class="cls-7" d="M466.94,218.37c-.13.12-1.59-1.38-3.27-3.34s-2.92-3.64-2.78-3.76,1.59,1.39,3.27,3.35S467.08,218.26,466.94,218.37Z"/><rect class="cls-7" x="528.3" y="218.88" width="5.31" height="8.28" transform="translate(325.38 -314.93) rotate(46.3)"/><path class="cls-9" d="M536,225.85l-7.55-7.9,6.45-6.17a20.8,20.8,0,0,1,7.55,7.9Z"/><path class="cls-7" d="M529.67,219.27c-.12-.13,1.28-1.68,3.12-3.46s3.45-3.13,3.57-3-1.28,1.68-3.13,3.46S529.79,219.39,529.67,219.27Z"/><path class="cls-7" d="M531.11,220.78c-.12-.14,1.37-1.67,3.31-3.44a24.29,24.29,0,0,1,3.68-3c.16.15-1.31,1.73-3.25,3.5S531.23,220.9,531.11,220.78Z"/><path class="cls-7" d="M533,222.78c-.12-.13,1.39-1.67,3.36-3.45a21.92,21.92,0,0,1,3.75-3c.14.15-1.36,1.72-3.33,3.5S533.14,222.91,533,222.78Z"/><path class="cls-7" d="M534.82,224.61c-.12-.13,1.3-1.67,3.17-3.44s3.48-3.11,3.6-3-1.3,1.67-3.17,3.45S534.94,224.73,534.82,224.61Z"/><rect class="cls-7" x="495.66" y="203.76" width="6.28" height="9.8"/><path class="cls-10" d="M505.31,206.69H492.37V196.12a24.79,24.79,0,0,1,12.94,0Z"/><path class="cls-7" d="M505.46,196.17c.1.12-2.71,1.66-6.57,1.66s-6.68-1.48-6.58-1.6,2.89,1,6.58,1S505.4,196,505.46,196.17Z"/><path class="cls-7" d="M496.65,206.66c-.18,0-.32-2-.32-4.53s.14-4.53.32-4.53.31,2,.31,4.53S496.82,206.66,496.65,206.66Z"/><path class="cls-7" d="M499.11,206.72c-.18,0-.32-2-.32-4.55s.14-4.55.32-4.55.32,2,.32,4.55S499.28,206.72,499.11,206.72Z"/><path class="cls-7" d="M501.57,206.68c-.17,0-.32-2-.32-4.55s.15-4.55.32-4.55.32,2,.32,4.55S501.75,206.68,501.57,206.68Z"/><path class="cls-7" d="M503.62,206.68c-.17,0-.32-2.2-.32-4.92s.15-4.92.32-4.92.32,2.2.32,4.92S503.8,206.68,503.62,206.68Z"/><path class="cls-7" d="M494.32,206.62c-.18,0-.32-2.21-.32-4.92s.14-4.92.32-4.92.32,2.2.32,4.92S494.49,206.62,494.32,206.62Z"/><circle class="cls-10" cx="498.04" cy="256.24" r="45.71"/><circle class="cls-15" cx="498.04" cy="255.87" r="38.39" transform="translate(-35.06 427.11) rotate(-45)"/><path class="cls-7" d="M536.43,255.87s0-.21-.06-.62-.08-1-.13-1.82c0-.4,0-.85-.08-1.34s-.16-1-.25-1.6a27.76,27.76,0,0,0-.8-4,36.68,36.68,0,0,0-4.26-10.17,38.33,38.33,0,0,0-25.77-17.93,34.68,34.68,0,0,0-4.82-.56c-.82,0-1.65-.11-2.49-.09l-2.52.13c-.42,0-.85,0-1.27.08l-1.27.2c-.85.14-1.71.24-2.56.41a42.5,42.5,0,0,0-10,3.68c-.81.44-1.58.94-2.37,1.42a18.76,18.76,0,0,0-2.3,1.58,34.61,34.61,0,0,0-8.05,8.09,36.44,36.44,0,0,0-5.44,10.49,37.68,37.68,0,0,0,0,24,36.91,36.91,0,0,0,5.45,10.5,42.8,42.8,0,0,0,3.73,4.41,44,44,0,0,0,4.32,3.68,19.94,19.94,0,0,0,2.3,1.58c.79.47,1.56,1,2.37,1.42a40.3,40.3,0,0,0,5,2.18,38.72,38.72,0,0,0,5.08,1.49c.85.18,1.71.28,2.56.42l1.27.2c.42.05.85.05,1.27.08l2.53.13c.83,0,1.66-.07,2.48-.09a36.26,36.26,0,0,0,4.82-.56,38.3,38.3,0,0,0,25.77-17.94,36.43,36.43,0,0,0,4.26-10.17,27.65,27.65,0,0,0,.8-3.95c.09-.58.2-1.11.25-1.6s.06-.94.08-1.34c0-.78.1-1.39.13-1.83s.06-.62.06-.62,0,.21,0,.63,0,1-.06,1.82c0,.41,0,.86,0,1.35s-.14,1-.22,1.61a27.38,27.38,0,0,1-.75,4,36.46,36.46,0,0,1-4.19,10.29,38.61,38.61,0,0,1-26,18.28,37.12,37.12,0,0,1-4.89.58c-.83,0-1.67.11-2.52.1l-2.56-.12c-.43,0-.86,0-1.29-.08l-1.29-.2c-.86-.14-1.74-.24-2.6-.42a40.34,40.34,0,0,1-5.16-1.5,38.67,38.67,0,0,1-5.05-2.21c-.82-.44-1.61-.95-2.41-1.43a19.44,19.44,0,0,1-2.34-1.61,44,44,0,0,1-4.4-3.72,43.22,43.22,0,0,1-3.79-4.49,37.27,37.27,0,0,1-5.54-10.66,38.27,38.27,0,0,1,0-24.42A37.27,37.27,0,0,1,466.88,233a43,43,0,0,1,3.8-4.48,44,44,0,0,1,4.39-3.73,20.58,20.58,0,0,1,2.34-1.6c.81-.48,1.59-1,2.41-1.44A43.17,43.17,0,0,1,490,218c.86-.17,1.74-.27,2.6-.41l1.29-.2c.43-.05.86-.05,1.29-.08l2.56-.12c.85,0,1.69.07,2.52.1a35.36,35.36,0,0,1,4.88.58,38.62,38.62,0,0,1,26,18.27,36.46,36.46,0,0,1,4.19,10.29,27.63,27.63,0,0,1,.75,4c.08.58.17,1.12.22,1.61s0,1,0,1.35c0,.79,0,1.39.06,1.83S536.43,255.87,536.43,255.87Z"/><path class="cls-7" d="M530.82,255.27c-3.5.06-6.35-.11-6.36-.37s2.82-.64,6.32-.84,6.34,0,6.35.37S534.32,255.22,530.82,255.27Z"/><path class="cls-7" d="M521.77,278.5c-2.53-2.43-4.43-4.55-4.26-4.74s2.45,1.53,5.08,3.84,4.54,4.43,4.26,4.74S524.3,280.92,521.77,278.5Z"/><path class="cls-7" d="M499,288.65c-.09-3.51.05-6.35.31-6.36s.67,2.8.91,6.3.11,6.34-.3,6.36S499.1,292.14,499,288.65Z"/><path class="cls-7" d="M475.68,279.85c2.4-2.55,4.5-4.48,4.69-4.31s-1.5,2.47-3.78,5.12-4.39,4.59-4.69,4.31S473.29,282.4,475.68,279.85Z"/><path class="cls-7" d="M465.28,257.2c3.5-.13,6.35,0,6.36.23s-2.79.7-6.29,1-6.34.18-6.36-.23S461.79,257.33,465.28,257.2Z"/><path class="cls-7" d="M473.82,233.78c2.58,2.37,4.53,4.45,4.36,4.64S475.7,237,473,234.69s-4.63-4.33-4.36-4.64S471.24,231.41,473.82,233.78Z"/><path class="cls-7" d="M496.36,223.13c.17,3.5.09,6.35-.17,6.37s-.73-2.8-1.05-6.28-.24-6.34.17-6.37S496.19,219.63,496.36,223.13Z"/><path class="cls-7" d="M519.87,231.41c-2.34,2.61-4.4,4.58-4.59,4.41s1.44-2.5,3.67-5.2,4.28-4.68,4.59-4.41S522.21,228.81,519.87,231.41Z"/><path class="cls-7" d="M530.76,253.83c-3.49.21-6.34.16-6.36-.1s2.78-.76,6.27-1.11,6.33-.32,6.36.09S534.26,253.62,530.76,253.83Z"/><path class="cls-4" d="M483.14,214.34a18.41,18.41,0,0,1-2,.9,46.15,46.15,0,0,0-5.27,2.7,44.16,44.16,0,0,0-21.29,31.16A46.16,46.16,0,0,0,454,255a17.34,17.34,0,0,1-.11,2.18,2.26,2.26,0,0,1-.07-.56c0-.37-.07-.92-.06-1.62a38,38,0,0,1,.4-5.95,43,43,0,0,1,21.52-31.48,39.49,39.49,0,0,1,5.39-2.54c.66-.26,1.19-.41,1.54-.53A2,2,0,0,1,483.14,214.34Z"/><path class="cls-4" d="M495.89,211.87c0,.18-2,.42-4.49.75s-4.49.59-4.53.42,1.94-.73,4.45-1S495.89,211.7,495.89,211.87Z"/><g class="cls-13"><path d="M467.36,279s19.89,31.39,50.75,15.31C550.32,277.48,532.53,239,532.53,239s15.16,30.66-16.24,50.66c-7.82,5-16.34,5-22.83,4.33C476.86,292.33,467.36,279,467.36,279Z"/></g><path class="cls-3" d="M508.74,235.47a132.12,132.12,0,0,1-.51,16.88,20.79,20.79,0,0,1-1.21,6,7.88,7.88,0,0,1-4,4.42,5,5,0,0,1-5.6-1.1Z"/><polygon class="cls-10" points="497.21 252.85 511.16 229.35 502.74 255.87 498.44 257.16 497.21 252.85"/><g class="cls-13"><polygon points="511.16 229.35 500.81 253.36 502.74 255.87 511.16 229.35"/></g><path class="cls-15" d="M502.93,257.16a4.49,4.49,0,1,1-4.49-4.49A4.49,4.49,0,0,1,502.93,257.16Z"/><path class="cls-7" d="M502.93,257.16c-.06,0-.06-.4-.26-1.06a4.49,4.49,0,0,0-1.65-2.33,4.22,4.22,0,1,0,0,6.78,4.51,4.51,0,0,0,1.65-2.32c.2-.67.2-1.07.26-1.07a2.26,2.26,0,0,1,0,1.13,4.5,4.5,0,0,1-1.62,2.62,4.67,4.67,0,0,1-4.48.74,4.76,4.76,0,0,1,0-9,4.72,4.72,0,0,1,4.48.74,4.52,4.52,0,0,1,1.62,2.63A2.22,2.22,0,0,1,502.93,257.16Z"/><circle class="cls-9" cx="498.44" cy="257.16" r="3.34"/><path class="cls-10" d="M377.2,168.43a34,34,0,1,0-46.45,33.86c.26,4,.55,8.57.55,8.57l29.77-1.93s-.13-4.82-.34-9.12A34,34,0,0,0,377.2,168.43Z"/><path class="cls-7" d="M350.3,209.49s0-.15,0-.42,0-.71.06-1.24c.06-1.08.15-2.68.32-4.74s.41-4.57.88-7.47A49.33,49.33,0,0,1,354,186a32.64,32.64,0,0,1,2.46-5.26,6.26,6.26,0,0,1,2.19-2.24,3.48,3.48,0,0,1,3.23-.1,2.3,2.3,0,0,1,1.16,1.27,2.35,2.35,0,0,1,0,1.75,4.76,4.76,0,0,1-2.47,2.43,9.34,9.34,0,0,1-7.1,0,9.45,9.45,0,0,1-5.16-5.36,7.07,7.07,0,0,1-.45-3.9,3.05,3.05,0,0,1,2.93-2.56A2.23,2.23,0,0,1,352.6,173a3.1,3.1,0,0,1,.4,2.08,6.6,6.6,0,0,1-2.17,3.53,10.12,10.12,0,0,1-7.76,2.81,8.87,8.87,0,0,1-6.89-4.47,5.12,5.12,0,0,1-.49-4.1,2.57,2.57,0,0,1,1.39-1.6,2.52,2.52,0,0,1,2.1.06,3.39,3.39,0,0,1,1.53,1.39,5.26,5.26,0,0,1,.65,1.93,9.88,9.88,0,0,1-.27,3.91,10.12,10.12,0,0,1-4.42,6,10.33,10.33,0,0,1-7,1.42,5.49,5.49,0,0,1-3.17-1.42,2.64,2.64,0,0,1-.4-3.26,2.22,2.22,0,0,1,1.48-.85,3.15,3.15,0,0,1,1.64.21,4.9,4.9,0,0,1,2.23,2.2c1,1.78,1.78,3.53,2.58,5.19,3.16,6.67,5.45,12.19,7,16,.77,1.91,1.35,3.4,1.74,4.42.18.5.32.88.43,1.16s.13.4.13.4a3.75,3.75,0,0,1-.17-.39c-.12-.27-.27-.65-.47-1.14l-1.81-4.39c-1.59-3.81-3.92-9.3-7.11-15.95-.8-1.65-1.63-3.41-2.59-5.16a4.61,4.61,0,0,0-2.07-2.05,2.32,2.32,0,0,0-2.72.53,2.29,2.29,0,0,0,.38,2.81,5.07,5.07,0,0,0,3,1.31,10,10,0,0,0,6.71-1.39,9.82,9.82,0,0,0,4.49-9.53,3.7,3.7,0,0,0-1.95-3,2.15,2.15,0,0,0-1.77-.05,2.17,2.17,0,0,0-1.16,1.35,4.73,4.73,0,0,0,.47,3.77,8.41,8.41,0,0,0,6.56,4.25,9.74,9.74,0,0,0,7.44-2.69,6.35,6.35,0,0,0,2.05-3.29,2.75,2.75,0,0,0-.35-1.8,1.8,1.8,0,0,0-1.47-.89,2.41,2.41,0,0,0-1.66.65,3,3,0,0,0-.87,1.59,6.8,6.8,0,0,0,.43,3.67,9.05,9.05,0,0,0,4.94,5.14,8.93,8.93,0,0,0,6.79.07,4.51,4.51,0,0,0,2.3-2.23,2,2,0,0,0-1-2.58,3.18,3.18,0,0,0-2.91.08,6,6,0,0,0-2.08,2.12,33.41,33.41,0,0,0-2.46,5.19,50.24,50.24,0,0,0-2.51,9.59c-.49,2.88-.75,5.39-1,7.45s-.3,3.63-.39,4.73c-.05.52-.08.93-.1,1.23S350.3,209.49,350.3,209.49Z"/><path class="cls-7" d="M359.14,214.59l-25.56,1.65a1.93,1.93,0,0,1-2.05-1.79h0a1.92,1.92,0,0,1,1.8-2l25.56-1.65a1.92,1.92,0,0,1,2,1.79h0A1.92,1.92,0,0,1,359.14,214.59Z"/><path class="cls-7" d="M359.24,216.27l-25.56,1.65a1.92,1.92,0,0,0,.25,3.84l2.81-.19,4.18,6.85a2.49,2.49,0,0,0,2.26,1.18l9.14-.6a2.44,2.44,0,0,0,2.1-1.48l3.16-7.29,1.91-.13a1.92,1.92,0,1,0-.25-3.83Z"/><g class="cls-14"><path class="cls-4" d="M320,150.39a24.87,24.87,0,0,1,6.5-5,18,18,0,0,1,5.14-1.86c1.28-.22,2-.14,2.1.13.18.6-2.33,1.68-5.65,4.22a28,28,0,0,0-11,28.26c.74,4.11,1.87,6.61,1.32,6.93-.24.14-.84-.3-1.63-1.32A18.05,18.05,0,0,1,314.3,177a25,25,0,0,1-1.47-8,26.46,26.46,0,0,1,1.75-10"/></g><g class="cls-14"><path class="cls-4" d="M342,144.63c-2.15.12-4.09-.34-4.39-1.47-.13-.56.23-1.19,1-1.71a6.85,6.85,0,0,1,6.42-.38c.8.43,1.24,1,1.17,1.58"/></g><path class="cls-9" d="M354,228.16c0,.06-.69-.19-1.79-.43a14.65,14.65,0,0,0-4.38-.26,14.49,14.49,0,0,0-4.24,1.07,18.3,18.3,0,0,1-1.68.75,5.23,5.23,0,0,1,1.55-1,12.55,12.55,0,0,1,8.82-.83A5.43,5.43,0,0,1,354,228.16Z"/><path class="cls-9" d="M357.64,220.31c0,.12-4.6.51-10.3.88s-10.33.57-10.34.45,4.61-.5,10.31-.87S357.64,220.19,357.64,220.31Z"/><path class="cls-9" d="M356.24,223.45a14.75,14.75,0,0,1-2.5.41c-1.55.2-3.7.43-6.08.62s-4.54.3-6.1.34a13.84,13.84,0,0,1-2.54,0,15.86,15.86,0,0,1,2.52-.27l6.09-.47,6.08-.49A15.86,15.86,0,0,1,356.24,223.45Z"/><rect class="cls-6" x="101.11" y="178.97" width="50.58" height="63.27" transform="translate(-99.19 307.76) rotate(-82.33)"/><path class="cls-7" d="M161.12,189.76l-.3,0-.88-.11-3.41-.44-12.85-1.68-45.28-6,.18-.14c-2,14.92-4.3,32-6.73,50.13h0l-.15-.2,62.69,8.47-.17.13c2.07-15.09,3.78-27.6,5-36.35.61-4.37,1.09-7.8,1.41-10.15.17-1.17.29-2.06.38-2.68s.14-.93.14-.93,0,.3-.1.9-.19,1.5-.34,2.66c-.31,2.34-.76,5.77-1.33,10.13-1.16,8.77-2.82,21.32-4.83,36.46l0,.15-.15,0-62.7-8.41-.19,0,0-.18h0c2.44-18.1,4.75-35.2,6.77-50.12l0-.17.16,0,45.37,6.19,12.8,1.77,3.37.47.86.12Z"/><rect class="cls-10" x="104.25" y="181.19" width="44.21" height="58.82" transform="translate(-99.22 307.72) rotate(-82.33)"/><polygon class="cls-10" points="94.26 228.58 118.29 204.09 128.6 222.83 138.38 214.87 152.55 236.43 94.26 228.58"/><path class="cls-10" d="M136.7,203.17a4.63,4.63,0,1,1-4-5.21A4.63,4.63,0,0,1,136.7,203.17Z"/><g class="cls-14"><polygon points="94.26 228.58 118.29 204.09 128.6 222.83 138.38 214.87 152.55 236.43 94.26 228.58"/></g><g class="cls-14"><path d="M136.7,203.17a4.63,4.63,0,1,1-4-5.21A4.63,4.63,0,0,1,136.7,203.17Z"/></g><rect class="cls-6" x="146" y="135.88" width="76.43" height="95.6" transform="translate(-24.67 338.74) rotate(-81.51)"/><path class="cls-7" d="M237.13,153l-.46-.06-1.33-.18L230.2,152l-19.37-2.83-68.28-10.07.28-.21c-3.35,22.5-7.2,48.29-11.26,75.59h0l-.24-.32,94.55,14.17-.27.19,8.31-54.8c1-6.6,1.8-11.77,2.35-15.32.27-1.75.48-3.11.63-4s.23-1.4.23-1.4,0,.45-.18,1.35l-.57,4c-.51,3.53-1.26,8.7-2.22,15.28-1.95,13.23-4.73,32.15-8.09,55l0,.23-.23,0-94.56-14.08-.27,0,0-.28h0c4.09-27.29,7.95-53.08,11.32-75.58l0-.25.25,0L211,148.92l19.29,3,5.09.79,1.29.21Z"/><rect class="cls-10" x="150.75" y="139.23" width="66.81" height="88.88" transform="translate(-24.71 338.67) rotate(-81.51)"/><polygon class="cls-10" points="135.26 210.14 172.1 173.66 187.28 202.2 202.23 190.39 223.17 223.27 135.26 210.14"/><path class="cls-10" d="M199.94,172.67a7,7,0,1,1-5.88-7.95A7,7,0,0,1,199.94,172.67Z"/><g class="cls-14"><polygon points="135.26 210.14 172.1 173.66 187.28 202.2 202.23 190.39 223.17 223.27 135.26 210.14"/></g><g class="cls-14"><path d="M199.94,172.67a7,7,0,1,1-5.88-7.95A7,7,0,0,1,199.94,172.67Z"/></g><path class="cls-5" d="M-26.17,371.51-5.33,393.2a3.62,3.62,0,0,0,5.12.16L82.7,313.72a3.63,3.63,0,0,0,0-5.13L61.91,286.9a3.61,3.61,0,0,0-5.12-.16l-82.91,79.64A3.63,3.63,0,0,0-26.17,371.51Z"/><path class="cls-7" d="M-26.17,371.51a2.78,2.78,0,0,1-.52-.62,3.66,3.66,0,0,1-.56-2.29,3.55,3.55,0,0,1,.57-1.67,11.57,11.57,0,0,1,1.46-1.54l3.77-3.67,24.11-23.3,35.81-34.49,10.35-10c1.77-1.69,3.55-3.41,5.35-5.14.93-.87,1.76-1.73,2.77-2.61a3.92,3.92,0,0,1,3.91-.43,4.72,4.72,0,0,1,1.6,1.23l1.34,1.39,2.68,2.79,5.42,5.64L83,308.36a4,4,0,0,1,.92,4.07,4.14,4.14,0,0,1-1.22,1.75l-1.44,1.39c-1.93,1.85-3.84,3.68-5.73,5.51L64.29,331.83,43.1,352.16,7.19,386.56l-7.3,7a3.8,3.8,0,0,1-4.54.44,8.75,8.75,0,0,1-1.66-1.53c-.5-.53-1-1.05-1.48-1.55l-9.95-10.44L-24,373.84l-1.62-1.73c-.36-.39-.54-.6-.54-.6s.21.18.58.56l1.67,1.69,6.36,6.53,10,10.36c.48.51,1,1,1.49,1.54a8.41,8.41,0,0,0,1.59,1.46,3.42,3.42,0,0,0,4.07-.4l7.26-7c10.2-9.82,22.34-21.51,35.81-34.5l21.17-20.35,11.2-10.77,5.73-5.5,1.44-1.39a3.48,3.48,0,0,0,1.06-1.51,3.38,3.38,0,0,0-.78-3.42L71.44,297.27,66,291.62c-.89-.93-1.79-1.86-2.67-2.79L62,287.45a4.17,4.17,0,0,0-1.41-1.1,3.32,3.32,0,0,0-3.29.35c-.89.78-1.81,1.72-2.71,2.56l-5.36,5.14-10.37,10L3,338.75-21.28,361.9l-3.81,3.62A12.63,12.63,0,0,0-26.55,367a3.55,3.55,0,0,0-.58,1.6,3.68,3.68,0,0,0,.5,2.24C-26.36,371.31-26.15,371.49-26.17,371.51Z"/><rect class="cls-10" x="50.93" y="292.65" width="21.01" height="30.64" transform="translate(-197.36 130.08) rotate(-44.22)"/><rect class="cls-10" x="1.88" y="340.37" width="21.01" height="30.64" transform="translate(-244.54 109.4) rotate(-44.22)"/><rect class="cls-10" x="18.25" y="324.44" width="21.01" height="30.64" transform="translate(-228.79 116.3) rotate(-44.22)"/><rect class="cls-10" x="34.63" y="308.51" width="21.01" height="30.64" transform="translate(-213.04 123.21) rotate(-44.22)"/><g class="cls-16"><rect x="50.93" y="292.65" width="21.01" height="30.64" transform="translate(-197.36 130.08) rotate(-44.22)"/></g><g class="cls-17"><rect x="1.88" y="340.37" width="21.01" height="30.64" transform="translate(-244.54 109.4) rotate(-44.22)"/></g><g class="cls-18"><rect x="18.25" y="324.44" width="21.01" height="30.64" transform="translate(-228.79 116.3) rotate(-44.22)"/></g><g class="cls-19"><rect x="34.63" y="308.51" width="21.01" height="30.64" transform="translate(-213.04 123.21) rotate(-44.22)"/></g><path class="cls-5" d="M-24.77,367.8l14.56,26.32a3.6,3.6,0,0,0,4.86,1.5l99.18-54.84a3.6,3.6,0,0,0,1.31-4.92L80.59,309.54a3.61,3.61,0,0,0-4.87-1.5l-99.17,54.84A3.6,3.6,0,0,0-24.77,367.8Z"/><path class="cls-7" d="M-24.77,367.8a3.12,3.12,0,0,1-.34-.73,3.65,3.65,0,0,1,0-2.33,3.5,3.5,0,0,1,.95-1.46,10.59,10.59,0,0,1,1.78-1.11l4.54-2.55,29-16.13,43-23.85,12.43-6.89L73,309.19l1.62-.9a9.69,9.69,0,0,1,1.74-.84,3.92,3.92,0,0,1,3.77,1,6.46,6.46,0,0,1,1.1,1.64l.92,1.66L84,315.09c1.24,2.24,2.48,4.5,3.74,6.77l7.66,13.84a3.91,3.91,0,0,1-1.72,5.51l-1.73,1L85.09,346,71.64,353.4l-25.43,14L3.14,391.18c-3.08,1.68-5.95,3.31-8.78,4.8a3.78,3.78,0,0,1-4.35-1.2c-.86-1.29-1.45-2.56-2.15-3.77L-19,378.5c-1.87-3.43-3.32-6.09-4.31-7.92l-1.11-2.07c-.25-.46-.36-.71-.36-.71s.15.22.42.68l1.16,2,4.41,7.86c1.91,3.42,4.25,7.6,7,12.45.69,1.19,1.35,2.53,2.13,3.71a3.41,3.41,0,0,0,3.91,1.07c2.74-1.47,5.66-3.14,8.72-4.82l43-23.86,25.41-14.07,13.44-7.44,6.88-3.8,1.73-1A3.28,3.28,0,0,0,94.86,336l-7.65-13.84-3.74-6.78c-.62-1.12-1.24-2.23-1.85-3.35l-.92-1.66a6.13,6.13,0,0,0-1-1.49,3.32,3.32,0,0,0-3.17-.85,8.85,8.85,0,0,0-1.61.79l-1.63.9-6.42,3.55-12.45,6.87L11.37,343.88l-29.07,16-4.57,2.49A11.36,11.36,0,0,0-24,363.39a3.47,3.47,0,0,0-.94,1.39,3.71,3.71,0,0,0-.08,2.27C-24.9,367.56-24.75,367.79-24.77,367.8Z"/><rect class="cls-10" x="62.92" y="316.02" width="21.01" height="30.64" transform="translate(-152.67 78.24) rotate(-29.28)"/><rect class="cls-10" x="3.23" y="349.49" width="21.01" height="30.64" transform="translate(-176.67 53.33) rotate(-29.28)"/><rect class="cls-10" x="23.15" y="338.32" width="21.01" height="30.64" transform="translate(-168.66 61.64) rotate(-29.28)"/><rect class="cls-10" x="43.09" y="327.14" width="21.01" height="30.64" transform="translate(-160.65 69.96) rotate(-29.28)"/><g class="cls-17"><rect x="62.92" y="316.02" width="21.01" height="30.64" transform="translate(-152.67 78.24) rotate(-29.28)"/></g><g class="cls-14"><rect x="3.23" y="349.49" width="21.01" height="30.64" transform="translate(-176.67 53.33) rotate(-29.28)"/></g><g class="cls-12"><rect x="23.15" y="338.32" width="21.01" height="30.64" transform="translate(-168.66 61.64) rotate(-29.28)"/></g><g class="cls-13"><rect x="43.09" y="327.14" width="21.01" height="30.64" transform="translate(-160.65 69.96) rotate(-29.28)"/></g><path class="cls-5" d="M-28.42,367.56-22,397a3.7,3.7,0,0,0,4.41,2.79L98.72,374.32a3.7,3.7,0,0,0,2.84-4.38l-6.42-29.38a3.69,3.69,0,0,0-4.41-2.79L-25.58,363.19A3.68,3.68,0,0,0-28.42,367.56Z"/><path class="cls-7" d="M-28.42,367.56a2.91,2.91,0,0,1-.12-.82,3.68,3.68,0,0,1,.8-2.29,4,4,0,0,1,1.43-1.11,14.38,14.38,0,0,1,2.11-.55l5.27-1.18,33.63-7.46,49.89-11L79,340l7.45-1.63,3.78-.83a4.53,4.53,0,0,1,2-.11,4,4,0,0,1,1.88.92,3.91,3.91,0,0,1,1.16,1.75c.19.7.3,1.3.45,2,.28,1.29.57,2.58.85,3.88q.85,3.9,1.72,7.86,1.73,7.9,3.51,16.05a4,4,0,0,1-1.47,4,4.41,4.41,0,0,1-2,.84l-2,.44-8,1.75-15.6,3.4-29.48,6.42L-6.6,397.56l-10.14,2.2c-.4.08-.79.18-1.22.24a4.34,4.34,0,0,1-1.25-.07,3.91,3.91,0,0,1-2.1-1.23,4.17,4.17,0,0,1-1-2.13c-.16-.73-.31-1.45-.47-2.16-1.21-5.64-2.25-10.5-3.11-14.48s-1.49-7.05-1.94-9.16c-.21-1-.37-1.83-.49-2.39s-.14-.82-.14-.82.08.27.21.81.31,1.34.55,2.37c.47,2.11,1.16,5.18,2.05,9.13s2,8.83,3.22,14.47c.16.7.32,1.42.48,2.15a3.78,3.78,0,0,0,.88,2,3.56,3.56,0,0,0,1.9,1.1,4.82,4.82,0,0,0,2.3-.19l10.13-2.23,49.9-11,29.47-6.46,15.59-3.41,8-1.74,2-.44a3.9,3.9,0,0,0,1.76-.73,3.35,3.35,0,0,0,1.24-3.37q-1.77-8.13-3.51-16.05-.85-4-1.71-7.86c-.28-1.3-.57-2.59-.85-3.88-.14-.63-.27-1.32-.43-1.89a3.33,3.33,0,0,0-1-1.49,3.53,3.53,0,0,0-3.39-.67L86.6,339l-7.45,1.62-14.43,3.14L14.8,354.59l-33.67,7.26L-24.16,363a14,14,0,0,0-2.08.52,3.72,3.72,0,0,0-1.4,1,3.61,3.61,0,0,0-.83,2.21A7.45,7.45,0,0,0-28.42,367.56Z"/><rect class="cls-10" x="74.08" y="343.59" width="21.01" height="30.64" transform="translate(-74.67 26.33) rotate(-12.33)"/><rect class="cls-10" x="51.87" y="348.44" width="21.01" height="30.64" transform="translate(-76.22 21.7) rotate(-12.33)"/><rect class="cls-10" x="29.54" y="353.32" width="21.01" height="30.64" transform="translate(-77.78 17.05) rotate(-12.33)"/><rect class="cls-10" x="7.23" y="358.19" width="21.01" height="30.64" transform="translate(-79.33 12.4) rotate(-12.33)"/><g class="cls-16"><rect class="cls-4" x="7.23" y="358.19" width="21.01" height="30.64" transform="translate(-79.33 12.4) rotate(-12.33)"/></g><g class="cls-18"><rect class="cls-4" x="29.54" y="353.32" width="21.01" height="30.64" transform="translate(-77.78 17.05) rotate(-12.33)"/></g><g class="cls-13"><rect class="cls-4" x="51.87" y="348.44" width="21.01" height="30.64" transform="translate(-76.22 21.7) rotate(-12.33)"/></g><circle class="cls-10" cx="165.58" cy="360.51" r="16.95" transform="translate(-223.44 438.28) rotate(-76.64)"/><path class="cls-10" d="M165.58,339.31c-.18,0-.32-3.42-.32-7.63s.14-7.62.32-7.62.31,3.41.31,7.62S165.75,339.31,165.58,339.31Z"/><path class="cls-10" d="M164.71,400c-.17,0-.31-4-.31-9s.14-9,.31-9,.32,4,.32,9S164.89,400,164.71,400Z"/><path class="cls-10" d="M140,360.78c0,.18-2.66.32-5.94.32s-5.95-.14-5.95-.32,2.66-.31,5.95-.31S140,360.61,140,360.78Z"/><path class="cls-10" d="M203.3,358.53c0,.18-3.31.32-7.39.32s-7.4-.14-7.4-.32,3.31-.31,7.4-.31S203.3,358.36,203.3,358.53Z"/><path class="cls-10" d="M190.76,340.52c.12.13-1.36,1.81-3.31,3.77s-3.64,3.43-3.76,3.31,1.36-1.81,3.31-3.76S190.64,340.4,190.76,340.52Z"/><path class="cls-10" d="M188.51,382c-.12.12-1.59-1.15-3.28-2.83s-2.95-3.16-2.83-3.28,1.59,1.14,3.28,2.83S188.63,381.88,188.51,382Z"/><path class="cls-10" d="M149.29,375.91c.12.13-1.36,1.74-3.32,3.6s-3.63,3.28-3.76,3.15,1.37-1.74,3.33-3.6S149.17,375.78,149.29,375.91Z"/><path class="cls-10" d="M149.53,344.75c-.16.09-1.16-1.54-2.78-3.2s-3.21-2.72-3.11-2.88,1.88.69,3.56,2.44S149.68,344.68,149.53,344.75Z"/><path class="cls-10" d="M408.36,360.51A23.69,23.69,0,0,1,428.74,337a22.9,22.9,0,0,0-3.33-.24,23.71,23.71,0,0,0,0,47.42,24.39,24.39,0,0,0,3.33-.24A23.71,23.71,0,0,1,408.36,360.51Z"/><path class="cls-10" d="M433.84,358l.64,1.06a7.18,7.18,0,0,0,3,2.77l1.11.55-1.06.64a7.18,7.18,0,0,0-2.77,3l-.55,1.11-.64-1.06a7.31,7.31,0,0,0-3-2.77l-1.11-.55,1.06-.64a7.31,7.31,0,0,0,2.77-3Z"/><path class="cls-10" d="M387.76,371.78l.32.54a3.63,3.63,0,0,0,1.53,1.4l.56.28-.54.33a3.67,3.67,0,0,0-1.4,1.52l-.28.57-.33-.54a3.63,3.63,0,0,0-1.52-1.41l-.57-.28.54-.32a3.78,3.78,0,0,0,1.41-1.53Z"/><path class="cls-10" d="M376.26,361.4l.16.27a1.9,1.9,0,0,0,.76.7l.28.13-.27.16a2,2,0,0,0-.7.76l-.13.28-.17-.26a1.74,1.74,0,0,0-.75-.7l-.28-.14.26-.16a1.83,1.83,0,0,0,.7-.76Z"/><path class="cls-10" d="M455.64,374.39l.16.26a1.83,1.83,0,0,0,.76.7l.28.14-.27.16a1.75,1.75,0,0,0-.69.76l-.14.28-.16-.27a1.9,1.9,0,0,0-.76-.7l-.28-.14.27-.16a1.78,1.78,0,0,0,.69-.75Z"/><path class="cls-10" d="M442.77,353.9l.17.27a1.81,1.81,0,0,0,.75.7l.28.14-.26.16a1.77,1.77,0,0,0-.7.76l-.14.28-.16-.27a1.9,1.9,0,0,0-.76-.7l-.28-.14.27-.16a1.84,1.84,0,0,0,.7-.76Z"/><path class="cls-10" d="M176.28,347.67c.15.09-.46,1.32-1.35,2.74a7.84,7.84,0,0,1-1.9,2.41c-.15-.09.46-1.32,1.36-2.75S176.14,347.57,176.28,347.67Z"/><path class="cls-10" d="M183.48,337.85a7.86,7.86,0,0,1-1.61,2.61c-1,1.33-2,2.32-2.1,2.22s.57-1.27,1.6-2.61S183.34,337.74,183.48,337.85Z"/><path class="cls-10" d="M191.52,328.73a7.84,7.84,0,0,1-1.83,2.45c-1.14,1.23-2.16,2.14-2.29,2s.68-1.21,1.82-2.45S191.39,328.61,191.52,328.73Z"/><path class="cls-10" d="M200.33,320.34c.11.13-.8,1.16-2,2.28s-2.34,1.95-2.46,1.82.79-1.15,2-2.28S200.21,320.21,200.33,320.34Z"/><path class="cls-10" d="M209.83,312.74c.11.14-.89,1.08-2.22,2.1a7.73,7.73,0,0,1-2.61,1.6c-.11-.14.89-1.08,2.22-2.11S209.73,312.59,209.83,312.74Z"/><path class="cls-10" d="M220,306c.09.15-1,1-2.39,1.91s-2.64,1.52-2.74,1.37,1-1,2.4-1.91S219.86,305.81,220,306Z"/><path class="cls-10" d="M230.61,300.06c.08.16-1.06.92-2.55,1.7a7.68,7.68,0,0,1-2.84,1.14,7.64,7.64,0,0,1,2.55-1.7C229.26,300.41,230.53,299.9,230.61,300.06Z"/><path class="cls-10" d="M241.73,295.09a7.76,7.76,0,0,1-2.69,1.47c-1.54.66-2.85,1.06-2.92.9s1.12-.82,2.68-1.48S241.66,294.92,241.73,295.09Z"/><path class="cls-10" d="M253.22,291.08c.05.17-1.2.73-2.8,1.24s-2.93.81-3,.64,1.19-.72,2.8-1.24A7.73,7.73,0,0,1,253.22,291.08Z"/><path class="cls-10" d="M265,288.1a7.66,7.66,0,0,1-2.9,1c-1.63.38-3,.54-3,.37s1.25-.61,2.89-1S265,287.93,265,288.1Z"/><path class="cls-10" d="M277,286.18c0,.18-1.31.5-3,.73a7.65,7.65,0,0,1-3.06.1c0-.18,1.3-.5,3-.73S277,286,277,286.18Z"/><path class="cls-10" d="M289.17,285.38c0,.18-1.35.37-3,.42s-3,0-3.05-.16a7.18,7.18,0,0,1,3-.47A7.63,7.63,0,0,1,289.17,285.38Z"/><path class="cls-10" d="M301.34,285.71a7.66,7.66,0,0,1-3.06.16,7.75,7.75,0,0,1-3-.46c0-.18,1.37-.25,3.06-.17S301.35,285.53,301.34,285.71Z"/><path class="cls-10" d="M313.42,287.13a7.55,7.55,0,0,1-3.06-.11,7.7,7.7,0,0,1-3-.73c0-.18,1.39-.13,3.06.1S313.45,287,313.42,287.13Z"/><path class="cls-10" d="M325.33,289.61c-.05.17-1.41,0-3-.37s-2.93-.83-2.89-1,1.39,0,3,.38S325.37,289.44,325.33,289.61Z"/><path class="cls-10" d="M337,293.11c-.05.17-1.4-.12-3-.64a7.68,7.68,0,0,1-2.8-1.23c.05-.17,1.39.11,3,.63S337,292.94,337,293.11Z"/><path class="cls-10" d="M348.31,297.59c-.07.16-1.39-.24-2.93-.89a7.76,7.76,0,0,1-2.69-1.47c.07-.16,1.38.23,2.93.89S348.38,297.43,348.31,297.59Z"/><path class="cls-10" d="M359.22,303c-.09.16-1.36-.35-2.85-1.13s-2.63-1.53-2.55-1.69,1.35.35,2.85,1.13A7.7,7.7,0,0,1,359.22,303Z"/><path class="cls-10" d="M369.63,309.32c-.1.15-1.33-.46-2.74-1.36s-2.49-1.76-2.4-1.91,1.32.47,2.74,1.37S369.73,309.18,369.63,309.32Z"/><path class="cls-10" d="M379.46,316.51a7.73,7.73,0,0,1-2.61-1.6c-1.34-1-2.33-2-2.23-2.1s1.27.57,2.61,1.6S379.57,316.37,379.46,316.51Z"/><path class="cls-10" d="M388.62,324.51c-.12.13-1.22-.69-2.46-1.82s-2.15-2.15-2-2.28,1.21.68,2.46,1.82S388.74,324.39,388.62,324.51Z"/><path class="cls-10" d="M397,333.3c-.13.11-1.16-.8-2.29-2a7.81,7.81,0,0,1-1.82-2.46c.13-.12,1.15.79,2.29,2S397.16,333.18,397,333.3Z"/><path class="cls-10" d="M403.5,341.31c-.14.1-.83-.56-1.54-1.48s-1.17-1.75-1-1.86.82.55,1.53,1.48S403.64,341.2,403.5,341.31Z"/></g></svg>